<svg width="20" height="20" viewBox="0 0 20 20" fill="none" xmlns="http://www.w3.org/2000/svg">
<g clip-path="url(#clip0_56_3691)">
<path d="M10 0.625C8.1458 0.625 6.33324 1.17483 4.79153 2.20497C3.24982 3.23511 2.0482 4.69929 1.33863 6.41234C0.629062 8.1254 0.443406 10.0104 0.805142 11.829C1.16688 13.6475 2.05976 15.318 3.37088 16.6291C4.68199 17.9402 6.35246 18.8331 8.17103 19.1949C9.9896 19.5566 11.8746 19.3709 13.5877 18.6614C15.3007 17.9518 16.7649 16.7502 17.795 15.2085C18.8252 13.6668 19.375 11.8542 19.375 10C19.375 7.51359 18.3873 5.12903 16.6291 3.37087C14.871 1.61272 12.4864 0.625 10 0.625ZM5.98215 16.9576C6.08163 15.9664 6.54576 15.0476 7.28447 14.3793C8.02317 13.711 8.98379 13.341 9.97991 13.341C10.976 13.341 11.9367 13.711 12.6754 14.3793C13.4141 15.0476 13.8782 15.9664 13.9777 16.9576C12.7638 17.664 11.3844 18.0361 9.97991 18.0361C8.57545 18.0361 7.19605 17.664 5.98215 16.9576ZM15.183 16.1138C14.8976 14.9494 14.2298 13.9143 13.2865 13.1742C12.3432 12.4342 11.1789 12.032 9.97991 12.032C8.78096 12.032 7.61666 12.4342 6.67334 13.1742C5.73002 13.9143 5.06221 14.9494 4.77679 16.1138C3.5233 15.0488 2.62684 13.6247 2.20847 12.034C1.79011 10.4432 1.86999 8.76237 2.43732 7.21845C3.00466 5.67453 4.03213 4.3419 5.38097 3.40053C6.72981 2.45915 8.33506 1.95438 9.97991 1.95438C11.6248 1.95438 13.23 2.45915 14.5789 3.40053C15.9277 4.3419 16.9552 5.67453 17.5225 7.21845C18.0898 8.76237 18.1697 10.4432 17.7514 12.034C17.333 13.6247 16.4365 15.0488 15.183 16.1138ZM10 4.64286C9.33779 4.64286 8.69045 4.83923 8.13983 5.20713C7.58922 5.57504 7.16007 6.09796 6.90666 6.70976C6.65324 7.32157 6.58693 7.99478 6.71612 8.64427C6.84532 9.29376 7.1642 9.89036 7.63246 10.3586C8.10071 10.8269 8.69731 11.1458 9.3468 11.2749C9.99629 11.4041 10.6695 11.3378 11.2813 11.0844C11.8931 10.831 12.416 10.4018 12.7839 9.85124C13.1518 9.30063 13.3482 8.65328 13.3482 7.99107C13.3482 7.10307 12.9955 6.25144 12.3675 5.62353C11.7396 4.99561 10.888 4.64286 10 4.64286ZM10 10C9.60267 10 9.21427 9.88218 8.8839 9.66143C8.55354 9.44069 8.29605 9.12694 8.144 8.75985C7.99194 8.39277 7.95216 7.98884 8.02968 7.59915C8.10719 7.20945 8.29852 6.8515 8.57948 6.57054C8.86043 6.28959 9.21839 6.09826 9.60808 6.02074C9.99777 5.94323 10.4017 5.98301 10.7688 6.13506C11.1359 6.28711 11.4496 6.5446 11.6704 6.87497C11.8911 7.20534 12.0089 7.59374 12.0089 7.99107C12.0089 8.52387 11.7973 9.03485 11.4205 9.4116C11.0438 9.78834 10.5328 10 10 10Z" fill="#686767"/>
</g>
<defs>
<clipPath id="clip0_56_3691">
<rect width="20" height="20" fill="white"/>
</clipPath>
</defs>
</svg>
