<svg width="24" height="24" viewBox="0 0 24 24" fill="none" xmlns="http://www.w3.org/2000/svg">
<g clip-path="url(#clip0_56_1645)">
<path d="M24 16.431V4.614C23.9997 3.3902 23.5134 2.21661 22.6479 1.35135C21.7825 0.486085 20.6088 7.96222e-08 19.385 1.08352e-07H4.616C4.00987 -0.000131232 3.40964 0.119142 2.84961 0.351009C2.28958 0.582876 1.7807 0.922793 1.35206 1.35135C0.923407 1.7799 0.58338 2.2887 0.351392 2.84869C0.119404 3.40867 -1.42297e-08 4.00887 0 4.615L0 19.386C0.000131308 19.9921 0.119632 20.5921 0.351679 21.152C0.583725 21.7119 0.923774 22.2206 1.35241 22.649C1.78104 23.0775 2.28987 23.4173 2.84984 23.6491C3.40981 23.8809 4.00995 24.0001 4.616 24H19.384C20.4668 24.0002 21.5153 23.6196 22.3459 22.925C23.1766 22.2303 23.7366 21.2658 23.928 20.2C22.705 19.673 17.398 17.382 14.637 16.061C12.537 18.608 10.337 20.136 7.013 20.136C3.689 20.136 1.477 18.093 1.745 15.59C1.919 13.946 3.045 11.262 7.939 11.724C9.94803 11.9269 11.9199 12.4033 13.8 13.14C14.3598 12.1031 14.8076 11.0096 15.136 9.878H5.814V8.954H10.427V7.291H4.8V6.278H10.428V3.883C10.4464 3.77462 10.5039 3.67674 10.5896 3.60784C10.6753 3.53894 10.7832 3.50378 10.893 3.509H13.2V6.277H19.2V7.293H13.2V8.954H18.093C17.6733 10.7023 17.0052 12.3814 16.109 13.94C17.53 14.453 24 16.431 24 16.431ZM6.646 18.554C3.139 18.554 2.585 16.338 2.768 15.414C2.96763 14.7512 3.39033 14.1778 3.96444 13.791C4.53855 13.4043 5.22874 13.228 5.918 13.292C8.24427 13.3364 10.5264 13.9349 12.575 15.038C10.885 17.238 8.805 18.554 6.646 18.554Z" fill="#00AAEE"/>
</g>
<defs>
<clipPath id="clip0_56_1645">
<rect width="24" height="24" fill="white"/>
</clipPath>
</defs>
</svg>
