<svg width="39" height="24" viewBox="0 0 39 24" fill="none" xmlns="http://www.w3.org/2000/svg">
<g clip-path="url(#clip0_56_1640)">
<path d="M34.3597 23.981H3.85969C3.05693 23.9877 2.28434 23.6755 1.71156 23.113C1.13877 22.5505 0.812608 21.7837 0.804688 20.981V3.005C0.812608 2.20226 1.13877 1.43547 1.71156 0.872991C2.28434 0.310517 3.05693 -0.00166013 3.85969 0.00500257H34.3597C35.1624 -0.00166013 35.935 0.310517 36.5078 0.872991C37.0806 1.43547 37.4068 2.20226 37.4147 3.005V20.994C37.4034 21.7945 37.0757 22.5579 36.5033 23.1176C35.9309 23.6773 35.1602 23.9877 34.3597 23.981Z" fill="#1D91CE"/>
<path d="M5.937 15.017L5.337 16.411H0L4.215 7.57399H14.283L15.299 9.52602L16.248 7.57399H29.821L30.981 8.787L32.227 7.57399H38.527L34.055 11.981L38.337 16.409H32.237L30.872 15.109L29.519 16.409H7.746L7.091 15.015" fill="white"/>
<path d="M19.9944 8.83701H17.3434L15.3484 13.066L13.2024 8.83701H10.5514V14.959L7.81243 8.83701H5.32743L2.39844 15.149H4.19144L4.78443 13.71H8.19244L8.87444 15.149H12.1694V10.011L14.5044 15.149H16.0444L18.3674 10.1V15.149H19.9954V8.83701H19.9944ZM30.9394 10.882L29.0464 8.83701H21.4464V15.149H28.7934L30.8764 13.079L32.9764 15.149H34.9334L31.9414 11.955L35.0214 8.83701H32.9764L30.9444 10.882H30.9394ZM26.9394 13.882H23.0764V12.493H26.9394V11.231H23.0764V10.095H26.9394V9.022L29.8054 11.888L26.9394 14.766V13.882ZM6.52644 9.87201L7.63744 12.435H5.32743L6.52644 9.87201Z" fill="#1D91CE"/>
</g>
<defs>
<clipPath id="clip0_56_1640">
<rect width="38.53" height="23.985" fill="white"/>
</clipPath>
</defs>
</svg>
