<svg width="36" height="36" viewBox="0 0 36 36" fill="none" xmlns="http://www.w3.org/2000/svg">
<path d="M10.125 18.8719V25.1719C10.125 25.657 10.4414 26.1562 10.9266 26.1562H12.9375V29.8125C12.9375 30.7477 13.6898 31.5 14.625 31.5C15.5602 31.5 16.3125 30.7477 16.3125 29.8125V26.1562H19.7578V29.8125C19.7578 30.3398 19.9969 30.8109 20.3766 31.1203C20.6508 31.3594 21.0164 31.5 21.4102 31.5H21.4453C22.3805 31.5 23.1328 30.7477 23.1328 29.8125V26.1562H25.0734C25.5656 26.1562 25.875 25.657 25.875 25.1789V13.5H10.125V18.8719ZM28.6875 12.375C27.7523 12.375 27 13.1273 27 14.0625V20.8125C27 21.7477 27.7523 22.5 28.6875 22.5C29.6227 22.5 30.375 21.7477 30.375 20.8125V14.0625C30.375 13.1273 29.6227 12.375 28.6875 12.375ZM7.3125 12.375C6.37734 12.375 5.625 13.1273 5.625 14.0625V20.8125C5.625 21.7477 6.37734 22.5 7.3125 22.5C8.24766 22.5 9 21.7477 9 20.8125V14.0625C9 13.1273 8.24766 12.375 7.3125 12.375Z" fill="white"/>
<path d="M21.8813 6.26486L23.182 4.72502C23.2102 4.68986 23.168 4.61252 23.0906 4.54924C23.0133 4.49299 22.9219 4.47892 22.9008 4.52111L21.5508 6.12424C20.5945 5.74455 19.4273 5.50549 17.993 5.50549C16.5516 5.49846 15.3773 5.73049 14.4211 6.10314L13.0852 4.52814C13.057 4.49299 12.9727 4.50002 12.8953 4.55627C12.818 4.61252 12.7758 4.68283 12.8039 4.73205L14.0906 6.2508C10.7016 7.72033 10.1953 11.3274 10.125 12.382H25.8469C25.7836 11.3203 25.2844 7.76252 21.8813 6.26486ZM14.5406 9.76642C14.0203 9.76642 13.5914 9.34455 13.5914 8.83127C13.5914 8.31799 14.0133 7.89611 14.5406 7.89611C15.0609 7.89611 15.4898 8.31799 15.4898 8.83127C15.4898 9.34455 15.068 9.76642 14.5406 9.76642ZM21.4594 9.76642C20.9391 9.76642 20.5102 9.34455 20.5102 8.83127C20.5102 8.31799 20.932 7.89611 21.4594 7.89611C21.9797 7.89611 22.4086 8.31799 22.4086 8.83127C22.4086 9.34455 21.9797 9.76642 21.4594 9.76642Z" fill="white"/>
</svg>
