<svg width="36" height="36" viewBox="0 0 36 36" fill="none" xmlns="http://www.w3.org/2000/svg">
<path d="M23.4564 10.821C21.0939 10.821 20.0955 11.9812 18.4502 11.9812C16.7627 11.9812 15.476 10.8281 13.4299 10.8281C11.426 10.8281 9.28847 12.0867 7.93144 14.2312C6.02597 17.2546 6.34941 22.95 9.43613 27.8015C10.54 29.5382 12.0166 31.4859 13.9502 31.507H13.9853C15.6658 31.507 16.165 30.375 18.4783 30.3609H18.5135C20.7916 30.3609 21.2486 31.5 22.9221 31.5H22.9572C24.8908 31.4789 26.4447 29.3203 27.5486 27.5906C28.3432 26.346 28.6385 25.7203 29.2502 24.314C24.7853 22.5703 24.0682 16.0593 28.4838 13.5632C27.1338 11.8265 25.2424 10.821 23.4564 10.821Z" fill="white"/>
<path d="M22.9357 4.5C21.5295 4.59844 19.8912 5.51953 18.9279 6.72187C18.0561 7.81172 17.3389 9.42891 17.6201 10.9969H17.7326C19.2303 10.9969 20.7631 10.0688 21.6561 8.88047C22.5209 7.74844 23.1748 6.14531 22.9357 4.5Z" fill="white"/>
</svg>
