<svg width="61" height="60" viewBox="0 0 61 60" fill="none" xmlns="http://www.w3.org/2000/svg">
<g clip-path="url(#clip0_109_5575)">
<path d="M30.5 36.25C34.6375 36.25 37.975 32.8875 37.975 28.75L38 13.75C38 9.6 34.65 6.25 30.5 6.25C26.3625 6.25 23 9.6 23 13.75V28.75C23 32.8875 26.3625 36.25 30.5 36.25ZM43.75 28.75C43.75 36.25 37.4125 41.5 30.5 41.5C23.6 41.5 17.25 36.25 17.25 28.75H13C13 37.2875 19.8 44.3375 28 45.55V53.75H33V45.55C41.2 44.3375 48 37.2875 48 28.75H43.75Z" fill="white"/>
</g>
<defs>
<clipPath id="clip0_109_5575">
<rect width="60" height="60" fill="white" transform="translate(0.5)"/>
</clipPath>
</defs>
</svg>
