<svg width="60" height="60" viewBox="0 0 60 60" fill="none" xmlns="http://www.w3.org/2000/svg">
<path d="M40.1836 19.3828L41.25 18.6328L42.3164 19.3828L45 21.082V7.5H37.5V21.082L40.1836 19.3828Z" fill="white"/>
<path d="M52.1053 6.25H48.0861V24.3717L42.0574 20.4134L36.0287 24.3717V6.25H33.2153C32.198 6.25 31.0048 7.14062 31.0048 8.10547V48.8021L30 49.4824L28.9952 48.8021V8.10547C28.9952 7.23958 27.8397 6.25 26.7847 6.25H7.89474C5.53349 6.25 3.75 7.89518 3.75 10.2083V45.5983C3.75 47.9238 5.53349 49.7917 7.89474 49.7917H25.8929C27.6262 49.7917 28.9952 50.3112 28.9952 52.1914V53.75H31.0048V52.1914C31.0048 50.2988 32.3738 49.7917 34.1071 49.7917H52.1053C54.4665 49.7917 56.25 47.9238 56.25 45.5983V10.2083C56.25 7.89518 54.4665 6.25 52.1053 6.25Z" fill="white"/>
</svg>
