<svg width="8" height="8" viewBox="0 0 8 8" fill="none" xmlns="http://www.w3.org/2000/svg">
<path d="M4.00033 3.42308C4.27579 3.42308 4.51132 3.52464 4.70692 3.72776C4.90252 3.93089 5.00033 4.17548 5.00033 4.46154C5.00033 4.7476 4.90252 4.99219 4.70692 5.19531C4.51132 5.39844 4.27579 5.5 4.00033 5.5C3.72486 5.5 3.48933 5.39844 3.29373 5.19531C3.09813 4.99219 3.00033 4.7476 3.00033 4.46154C3.00033 4.17548 3.09813 3.93089 3.29373 3.72776C3.48933 3.52464 3.72486 3.42308 4.00033 3.42308ZM6.44477 1.92308C6.69014 1.92308 6.89963 2.01322 7.07324 2.19351C7.24685 2.3738 7.33366 2.59135 7.33366 2.84615V6.07692C7.33366 6.33173 7.24685 6.54928 7.07324 6.72957C6.89963 6.90986 6.69014 7 6.44477 7H1.55588C1.31051 7 1.10102 6.90986 0.927409 6.72957C0.753798 6.54928 0.666992 6.33173 0.666992 6.07692V2.84615C0.666992 2.59135 0.753798 2.3738 0.927409 2.19351C1.10102 2.01322 1.31051 1.92308 1.55588 1.92308H2.33366L2.51074 1.43269C2.55472 1.3149 2.63516 1.21334 2.75206 1.128C2.86896 1.04267 2.98875 1 3.11144 1H4.88921C5.0119 1 5.13169 1.04267 5.24859 1.128C5.36549 1.21334 5.44593 1.3149 5.48991 1.43269L5.66699 1.92308H6.44477ZM4.00033 6.07692C4.42857 6.07692 4.79489 5.91887 5.09928 5.60276C5.40368 5.28666 5.55588 4.90625 5.55588 4.46154C5.55588 4.01683 5.40368 3.63642 5.09928 3.32031C4.79489 3.00421 4.42857 2.84615 4.00033 2.84615C3.57208 2.84615 3.20577 3.00421 2.90137 3.32031C2.59697 3.63642 2.44477 4.01683 2.44477 4.46154C2.44477 4.90625 2.59697 5.28666 2.90137 5.60276C3.20577 5.91887 3.57208 6.07692 4.00033 6.07692Z" fill="white"/>
</svg>
