<svg width="24" height="24" viewBox="0 0 24 24" fill="none" xmlns="http://www.w3.org/2000/svg">
<g clip-path="url(#clip0_56_1582)">
<path d="M12.0195 8.8125V13.3125" stroke="white" stroke-width="1.5" stroke-linecap="round" stroke-linejoin="round"/>
<path d="M16.4999 13.2961L12 13.3289" stroke="white" stroke-width="1.5" stroke-linecap="round" stroke-linejoin="round"/>
<path d="M7.5 9.34839H3.75V5.59839" stroke="white" stroke-width="1.5" stroke-linecap="round" stroke-linejoin="round"/>
<path d="M6.93199 17.8336C8.08578 18.9874 9.55579 19.7732 11.1561 20.0915C12.7565 20.4098 14.4153 20.2464 15.9228 19.622C17.4303 18.9976 18.7187 17.9402 19.6252 16.5835C20.5318 15.2268 21.0156 13.6317 21.0156 12C21.0156 10.3683 20.5318 8.77325 19.6252 7.41655C18.7187 6.05984 17.4303 5.00242 15.9228 4.378C14.4153 3.75357 12.7565 3.5902 11.1561 3.90853C9.55579 4.22685 8.08578 5.01259 6.93199 6.16637L3.75002 9.34835" stroke="white" stroke-width="1.5" stroke-linecap="round" stroke-linejoin="round"/>
</g>
<defs>
<clipPath id="clip0_56_1582">
<rect width="24" height="24" fill="white"/>
</clipPath>
</defs>
</svg>
