<svg width="34" height="21" viewBox="0 0 34 21" fill="none" xmlns="http://www.w3.org/2000/svg">
<g clip-path="url(#clip0_56_1656)">
<path d="M22.2329 13.376L17.0179 5.93899C16.9383 5.82632 16.8328 5.7344 16.7103 5.67096C16.5878 5.60752 16.4518 5.57441 16.3139 5.57441C16.1759 5.57441 16.04 5.60752 15.9175 5.67096C15.795 5.7344 15.6895 5.82632 15.6099 5.93899L10.3999 13.376C10.2763 13.5506 10.0922 13.673 9.8834 13.7196C9.67461 13.7662 9.45596 13.7335 9.26987 13.628L3.99987 10.649C3.84813 10.5608 3.67284 10.5216 3.49797 10.5367C3.32311 10.5519 3.15719 10.6207 3.02292 10.7338C2.88864 10.8468 2.79256 10.9986 2.7478 11.1683C2.70304 11.338 2.7118 11.5174 2.77287 11.682L5.96087 19.982C6.08887 20.312 6.40687 20.529 6.76087 20.528H25.8609C26.0338 20.5284 26.2027 20.4765 26.3455 20.379C26.4883 20.2816 26.5983 20.1431 26.6609 19.982L29.8489 11.682C29.9099 11.5174 29.9187 11.338 29.8739 11.1683C29.8292 10.9986 29.7331 10.8468 29.5988 10.7338C29.4646 10.6207 29.2986 10.5519 29.1238 10.5367C28.9489 10.5216 28.7736 10.5608 28.6219 10.649L23.3609 13.628C23.175 13.7329 22.9568 13.7653 22.7485 13.7187C22.5401 13.6722 22.3564 13.5501 22.2329 13.376ZM18.3919 2.05199C18.3972 2.46408 18.2799 2.86847 18.0549 3.21372C17.8298 3.55898 17.5072 3.82952 17.128 3.99095C16.7488 4.15238 16.3301 4.1974 15.9253 4.12029C15.5204 4.04319 15.1476 3.84744 14.8543 3.55793C14.561 3.26842 14.3604 2.89823 14.278 2.49442C14.1956 2.0906 14.2351 1.67141 14.3916 1.29013C14.5481 0.908851 14.8144 0.582705 15.1566 0.353155C15.4989 0.123605 15.9017 0.00102065 16.3139 0.000985856C17.4539 -0.00601414 18.3839 0.911986 18.3919 2.05199ZM33.9539 7.63899C33.9592 8.05108 33.8419 8.45547 33.6169 8.80072C33.3918 9.14598 33.0692 9.41652 32.69 9.57795C32.3108 9.73938 31.8921 9.7844 31.4873 9.70729C31.0824 9.63019 30.7096 9.43444 30.4163 9.14493C30.123 8.85542 29.9224 8.48523 29.84 8.08142C29.7576 7.67761 29.7971 7.25841 29.9536 6.87713C30.1101 6.49585 30.3764 6.1697 30.7186 5.94015C31.0609 5.7106 31.4637 5.58802 31.8759 5.58799C33.0159 5.58099 33.9459 6.49899 33.9539 7.63899ZM4.15387 7.63899C4.15923 8.05108 4.04192 8.45547 3.81687 8.80072C3.59181 9.14598 3.26918 9.41652 2.88998 9.57795C2.51077 9.73938 2.09213 9.7844 1.68728 9.70729C1.28242 9.63019 0.90964 9.43444 0.616319 9.14493C0.322999 8.85542 0.12239 8.48523 0.0399974 8.08142C-0.0423955 7.67761 -0.00285114 7.25841 0.153603 6.87713C0.310057 6.49585 0.576355 6.1697 0.918641 5.94015C1.26093 5.7106 1.66374 5.58802 2.07587 5.58799C2.34705 5.58601 2.61597 5.63747 2.86726 5.73942C3.11856 5.84137 3.34731 5.99183 3.54046 6.18219C3.7336 6.37255 3.88736 6.59909 3.99296 6.84888C4.09855 7.09866 4.15391 7.3668 4.15587 7.63799L4.15387 7.63899Z" fill="#FFCC66"/>
</g>
<defs>
<clipPath id="clip0_56_1656">
<rect width="34" height="21" fill="white"/>
</clipPath>
</defs>
</svg>
