<svg width="16" height="17" viewBox="0 0 16 17" fill="none" xmlns="http://www.w3.org/2000/svg">
<g clip-path="url(#clip0_247_188)">
<path d="M2.82037 12.751C2.83596 12.8168 2.86468 12.8787 2.90481 12.933C2.94494 12.9873 2.99565 13.033 3.05388 13.0672C3.11211 13.1015 3.17667 13.1235 3.24367 13.1322C3.31066 13.1408 3.37871 13.1358 3.44372 13.1174C6.42429 12.2945 9.57211 12.2942 12.5528 13.1166C12.6178 13.1349 12.6858 13.1399 12.7528 13.1313C12.8198 13.1227 12.8843 13.1006 12.9425 13.0664C13.0008 13.0322 13.0514 12.9865 13.0916 12.9322C13.1317 12.8779 13.1604 12.8161 13.176 12.7504L14.7691 5.98056C14.7904 5.88993 14.786 5.79514 14.7564 5.70688C14.7268 5.61862 14.6731 5.54038 14.6014 5.48099C14.5297 5.42159 14.4428 5.38339 14.3506 5.3707C14.2583 5.358 14.1644 5.3713 14.0793 5.40912L10.9178 6.81422C10.8037 6.86496 10.6747 6.87112 10.5562 6.8315C10.4377 6.79188 10.3384 6.70934 10.2777 6.60014L8.43691 3.28674C8.39361 3.2088 8.33025 3.14385 8.25339 3.09863C8.17654 3.05341 8.089 3.02956 7.99983 3.02956C7.91066 3.02956 7.82312 3.05341 7.74627 3.09863C7.66942 3.14385 7.60606 3.2088 7.56275 3.28674L5.72198 6.60014C5.66131 6.70934 5.56196 6.79188 5.44348 6.8315C5.32501 6.87112 5.19599 6.86496 5.08183 6.81422L1.91987 5.40891C1.8348 5.3711 1.74087 5.35779 1.64866 5.37048C1.55644 5.38316 1.46959 5.42134 1.3979 5.48071C1.3262 5.54008 1.2725 5.61828 1.24285 5.70652C1.21319 5.79476 1.20876 5.88952 1.23004 5.98014L2.82037 12.751Z" stroke="#333333" stroke-linecap="round" stroke-linejoin="round"/>
</g>
<defs>
<clipPath id="clip0_247_188">
<rect width="16" height="16" fill="white" transform="translate(0 0.5)"/>
</clipPath>
</defs>
</svg>
