<svg width="15" height="10" viewBox="0 0 15 10" fill="none" xmlns="http://www.w3.org/2000/svg">
<path d="M13.2587 1.18977L7.47671 6.97177L1.69471 1.18977C1.50611 1.00761 1.25351 0.906817 0.991311 0.909095C0.729114 0.911374 0.478301 1.01654 0.292893 1.20195C0.107485 1.38736 0.00231622 1.63817 3.78026e-05 1.90037C-0.00224062 2.16257 0.0985537 2.41517 0.280712 2.60377L6.76671 9.08977C6.85972 9.18317 6.97041 9.2571 7.09232 9.30724C7.21423 9.35737 7.3449 9.38271 7.47671 9.38177C7.60848 9.38243 7.73908 9.35697 7.86094 9.30685C7.98281 9.25673 8.09353 9.18295 8.18671 9.08977L14.6727 2.60377C14.8549 2.41517 14.9557 2.16257 14.9534 1.90037C14.9511 1.63817 14.8459 1.38736 14.6605 1.20195C14.4751 1.01654 14.2243 0.911374 13.9621 0.909095C13.6999 0.906817 13.4473 1.00761 13.2587 1.18977Z" fill="#333333"/>
</svg>
