<svg width="14" height="14" viewBox="0 0 14 14" fill="none" xmlns="http://www.w3.org/2000/svg">
<mask id="path-1-inside-1_468_624" fill="white">
<path d="M9.73819 5.37281L7.20856 7.90244L4.67894 5.37281C4.59642 5.29312 4.48591 5.24902 4.3712 5.25002C4.25649 5.25101 4.14676 5.29702 4.06564 5.37814C3.98452 5.45926 3.93851 5.56899 3.93752 5.6837C3.93652 5.79841 3.98062 5.90892 4.06031 5.99144L6.89794 8.82906C6.93863 8.86993 6.98706 8.90227 7.04039 8.9242C7.09372 8.94614 7.15089 8.95722 7.20856 8.95681C7.26621 8.9571 7.32335 8.94596 7.37666 8.92403C7.42998 8.90211 7.47842 8.86983 7.51919 8.82906L10.3568 5.99144C10.4365 5.90892 10.4806 5.79841 10.4796 5.6837C10.4786 5.56899 10.4326 5.45926 10.3515 5.37814C10.2704 5.29702 10.1606 5.25101 10.0459 5.25002C9.93121 5.24902 9.8207 5.29312 9.73819 5.37281Z"/>
</mask>
<path d="M9.73819 5.37281L7.20856 7.90244L4.67894 5.37281C4.59642 5.29312 4.48591 5.24902 4.3712 5.25002C4.25649 5.25101 4.14676 5.29702 4.06564 5.37814C3.98452 5.45926 3.93851 5.56899 3.93752 5.6837C3.93652 5.79841 3.98062 5.90892 4.06031 5.99144L6.89794 8.82906C6.93863 8.86993 6.98706 8.90227 7.04039 8.9242C7.09372 8.94614 7.15089 8.95722 7.20856 8.95681C7.26621 8.9571 7.32335 8.94596 7.37666 8.92403C7.42998 8.90211 7.47842 8.86983 7.51919 8.82906L10.3568 5.99144C10.4365 5.90892 10.4806 5.79841 10.4796 5.6837C10.4786 5.56899 10.4326 5.45926 10.3515 5.37814C10.2704 5.29702 10.1606 5.25101 10.0459 5.25002C9.93121 5.24902 9.8207 5.29312 9.73819 5.37281Z" fill="#333333"/>
<path d="M9.73819 5.37281L9.04348 4.65352L9.03722 4.65956L9.03108 4.6657L9.73819 5.37281ZM7.20856 7.90244L6.50145 8.60954L7.20856 9.31665L7.91567 8.60954L7.20856 7.90244ZM4.67894 5.37281L5.38604 4.6657L5.3799 4.65956L5.37365 4.65352L4.67894 5.37281ZM4.06031 5.99144L3.34102 6.68615L3.34706 6.6924L3.3532 6.69854L4.06031 5.99144ZM6.89794 8.82906L7.60653 8.12344L7.60504 8.12196L6.89794 8.82906ZM7.20856 8.95681L7.21359 7.95675L7.20143 7.95684L7.20856 8.95681ZM7.51919 8.82906L8.22629 9.53617L8.22629 9.53617L7.51919 8.82906ZM10.3568 5.99144L11.0639 6.69854L11.0701 6.6924L11.0761 6.68615L10.3568 5.99144ZM9.03108 4.6657L6.50145 7.19533L7.91567 8.60954L10.4453 6.07992L9.03108 4.6657ZM7.91567 7.19533L5.38604 4.6657L3.97183 6.07992L6.50145 8.60954L7.91567 7.19533ZM5.37365 4.65352C5.10253 4.39167 4.73942 4.24678 4.36251 4.25005L4.37989 6.24998C4.2324 6.25126 4.09031 6.19456 3.98422 6.0921L5.37365 4.65352ZM4.36251 4.25005C3.9856 4.25333 3.62506 4.40451 3.35853 4.67103L4.77275 6.08525C4.66845 6.18954 4.52737 6.2487 4.37989 6.24998L4.36251 4.25005ZM3.35853 4.67103C3.09201 4.93756 2.94083 5.2981 2.93755 5.67501L4.93748 5.69239C4.9362 5.83987 4.87704 5.98095 4.77275 6.08525L3.35853 4.67103ZM2.93755 5.67501C2.93428 6.05192 3.07917 6.41503 3.34102 6.68615L4.7796 5.29672C4.88206 5.40281 4.93876 5.5449 4.93748 5.69239L2.93755 5.67501ZM3.3532 6.69854L6.19083 9.53617L7.60504 8.12196L4.76742 5.28433L3.3532 6.69854ZM6.18935 9.53468C6.3238 9.6697 6.48381 9.77657 6.66003 9.84904L7.42075 7.99936C7.4903 8.02797 7.55346 8.07015 7.60653 8.12344L6.18935 9.53468ZM6.66003 9.84904C6.83626 9.92152 7.02516 9.95815 7.2157 9.95679L7.20143 7.95684C7.27663 7.9563 7.35119 7.97076 7.42075 7.99936L6.66003 9.84904ZM7.20353 9.9568C7.39335 9.95775 7.58147 9.92107 7.75702 9.84887L6.99631 7.99919C7.06522 7.97085 7.13907 7.95645 7.21359 7.95682L7.20353 9.9568ZM7.75702 9.84887C7.93257 9.77668 8.09207 9.67039 8.22629 9.53617L6.81208 8.12195C6.86478 8.06926 6.92739 8.02754 6.99631 7.99919L7.75702 9.84887ZM8.22629 9.53617L11.0639 6.69854L9.6497 5.28433L6.81208 8.12196L8.22629 9.53617ZM11.0761 6.68615C11.338 6.41503 11.4828 6.05192 11.4796 5.67501L9.47964 5.69239C9.47836 5.5449 9.53506 5.40281 9.63752 5.29672L11.0761 6.68615ZM11.4796 5.67501C11.4763 5.2981 11.3251 4.93756 11.0586 4.67103L9.64438 6.08525C9.54008 5.98095 9.48093 5.83987 9.47964 5.69239L11.4796 5.67501ZM11.0586 4.67103C10.7921 4.40451 10.4315 4.25333 10.0546 4.25005L10.0372 6.24998C9.88975 6.2487 9.74867 6.18954 9.64438 6.08525L11.0586 4.67103ZM10.0546 4.25005C9.67771 4.24678 9.31459 4.39167 9.04348 4.65352L10.4329 6.0921C10.3268 6.19456 10.1847 6.25126 10.0372 6.24998L10.0546 4.25005Z" fill="#999999" mask="url(#path-1-inside-1_468_624)"/>
</svg>
