<svg width="60" height="60" viewBox="0 0 60 60" fill="none" xmlns="http://www.w3.org/2000/svg">
<path d="M29.0487 50.3804L22.6242 44.5326L21.25 45.7717L30 53.75L38.75 45.7717L37.3641 44.5326L30.9279 50.3804V38.75H29.0487V50.3804Z" fill="white"/>
<path d="M45.9933 19.8954C45.9933 19.7571 46.0156 19.6303 46.0156 19.492C46.0156 12.1738 40.1116 6.25 32.9799 6.25C27.8348 6.25 23.404 9.33865 21.3281 13.7872C20.4241 13.3262 19.4196 13.0612 18.3371 13.0612C15.0335 13.0612 12.2991 15.7465 11.7634 18.9734C7.83482 20.3564 5 23.9752 5 28.4699C5 34.1285 9.47545 38.75 15 38.75H29.1183V23.1915H30.904V38.75H45.8594C50.8817 38.75 55 34.4628 55 29.2881C55 24.1135 51.0491 19.9069 45.9933 19.8954Z" fill="white"/>
</svg>
