<svg width="12" height="20" viewBox="0 0 12 20" fill="none" xmlns="http://www.w3.org/2000/svg">
<path d="M11.2055 0.0844786H7.54206C7.53372 0.0844204 7.52537 0.0847907 7.51707 0.0855891C3.81837 0.0972557 3.33532 2.68142 3.33337 4.94003C3.32824 4.96141 3.32563 4.98332 3.3256 5.00531V6.59087H0.79428C0.720652 6.59087 0.650038 6.62013 0.597975 6.67223C0.545911 6.72432 0.516663 6.79497 0.516663 6.86864V10.7789C0.516663 10.8526 0.545911 10.9232 0.597975 10.9753C0.650038 11.0274 0.720652 11.0567 0.79428 11.0567H3.3256V19.6375C3.3256 19.7112 3.35485 19.7819 3.40691 19.834C3.45897 19.886 3.52959 19.9153 3.60322 19.9153H7.29747C7.3711 19.9153 7.44172 19.886 7.49378 19.834C7.54584 19.7819 7.57509 19.7112 7.57509 19.6375V11.057H11.2052C11.2789 11.057 11.3495 11.0277 11.4015 10.9756C11.4536 10.9235 11.4828 10.8529 11.4828 10.7792V6.86892C11.4828 6.79525 11.4536 6.7246 11.4015 6.6725C11.3495 6.62041 11.2789 6.59114 11.2052 6.59114H7.29747V4.4892H11.2052C11.2789 4.4892 11.3495 4.45993 11.4015 4.40784C11.4536 4.35575 11.4828 4.28509 11.4828 4.21142V0.362256C11.4829 0.325791 11.4757 0.289676 11.4618 0.255976C11.4479 0.222276 11.4275 0.191652 11.4017 0.165855C11.376 0.140057 11.3454 0.119591 11.3117 0.105628C11.278 0.0916649 11.2419 0.0844786 11.2055 0.0844786Z" fill="#A2A2A3"/>
</svg>
