<svg width="230" height="129" viewBox="0 0 230 129" fill="none" xmlns="http://www.w3.org/2000/svg">
<path d="M0 10C0 4.47715 4.47715 0 10 0H220C225.523 0 230 4.47715 230 10V129H0V10Z" fill="#CCCCCC"/>
<path d="M28.1378 71V57.9091H36.8054V60.1911H30.9055V63.3104H36.2301V65.5923H30.9055V71H28.1378ZM38.6159 71V61.1818H41.339V71H38.6159ZM39.9838 59.9162C39.579 59.9162 39.2317 59.782 38.9419 59.5135C38.6564 59.2408 38.5137 58.9148 38.5137 58.5355C38.5137 58.1605 38.6564 57.8388 38.9419 57.5703C39.2317 57.2976 39.579 57.1612 39.9838 57.1612C40.3887 57.1612 40.7338 57.2976 41.0194 57.5703C41.3091 57.8388 41.454 58.1605 41.454 58.5355C41.454 58.9148 41.3091 59.2408 41.0194 59.5135C40.7338 59.782 40.3887 59.9162 39.9838 59.9162ZM46.2433 65.3239V71H43.5202V61.1818H46.1154V62.9141H46.2305C46.4478 62.343 46.8121 61.8913 47.3235 61.5589C47.8349 61.2223 48.4549 61.054 49.1836 61.054C49.8654 61.054 50.4599 61.2031 50.967 61.5014C51.4741 61.7997 51.8683 62.2259 52.1495 62.7798C52.4308 63.3295 52.5714 63.9858 52.5714 64.7486V71H49.8484V65.2344C49.8526 64.6335 49.6992 64.1648 49.3881 63.8281C49.0771 63.4872 48.6488 63.3168 48.1033 63.3168C47.7369 63.3168 47.413 63.3956 47.1317 63.5533C46.8548 63.7109 46.6374 63.9411 46.4798 64.2436C46.3263 64.5419 46.2475 64.902 46.2433 65.3239ZM58.3354 71.1598C57.5897 71.1598 56.9142 70.968 56.3091 70.5845C55.7083 70.1967 55.231 69.6278 54.8773 68.8778C54.5279 68.1236 54.3532 67.1989 54.3532 66.1037C54.3532 64.9787 54.5343 64.0433 54.8965 63.2976C55.2587 62.5476 55.7402 61.9872 56.3411 61.6165C56.9462 61.2415 57.6088 61.054 58.329 61.054C58.8787 61.054 59.3368 61.1477 59.7033 61.3352C60.074 61.5185 60.3723 61.7486 60.5982 62.0256C60.8283 62.2983 61.003 62.5668 61.1223 62.831H61.2054V57.9091H63.9221V71H61.2374V69.4276H61.1223C60.9945 69.7003 60.8134 69.9709 60.579 70.2393C60.3489 70.5036 60.0485 70.723 59.6777 70.8977C59.3113 71.0724 58.8638 71.1598 58.3354 71.1598ZM59.1983 68.9929C59.6373 68.9929 60.008 68.8736 60.3105 68.6349C60.6174 68.392 60.8517 68.0533 61.0137 67.6186C61.1799 67.1839 61.263 66.6747 61.263 66.0909C61.263 65.5071 61.182 65 61.0201 64.5696C60.8581 64.1392 60.6238 63.8068 60.3169 63.5724C60.0101 63.3381 59.6373 63.2209 59.1983 63.2209C58.7509 63.2209 58.3738 63.3423 58.0669 63.5852C57.7601 63.8281 57.5279 64.1648 57.3702 64.5952C57.2125 65.0256 57.1337 65.5241 57.1337 66.0909C57.1337 66.6619 57.2125 67.1669 57.3702 67.6058C57.5321 68.0405 57.7644 68.3814 58.0669 68.6286C58.3738 68.8714 58.7509 68.9929 59.1983 68.9929ZM72.6344 71H69.6685L74.1877 57.9091H77.7544L82.2672 71H79.3013L76.0222 60.9006H75.9199L72.6344 71ZM72.449 65.8544H79.4547V68.0149H72.449V65.8544ZM86.5147 57.9091V71H83.7917V57.9091H86.5147ZM91.419 57.9091V71H88.696V57.9091H91.419ZM97.8175 71V57.9091H100.585V68.718H106.197V71H97.8175ZM112.454 71.1918C111.444 71.1918 110.574 70.9872 109.846 70.5781C109.121 70.1648 108.563 69.581 108.171 68.8267C107.779 68.0682 107.583 67.1712 107.583 66.1357C107.583 65.1257 107.779 64.2393 108.171 63.4766C108.563 62.7138 109.115 62.1193 109.827 61.6932C110.542 61.267 111.382 61.054 112.345 61.054C112.993 61.054 113.596 61.1584 114.154 61.3672C114.716 61.5717 115.206 61.8807 115.624 62.294C116.046 62.7074 116.374 63.2273 116.608 63.8537C116.843 64.4759 116.96 65.2045 116.96 66.0398V66.7876H108.67V65.1001H114.397C114.397 64.7081 114.312 64.3608 114.141 64.0582C113.971 63.7557 113.734 63.5192 113.432 63.3487C113.133 63.174 112.786 63.0866 112.39 63.0866C111.976 63.0866 111.61 63.1825 111.29 63.3743C110.975 63.5618 110.728 63.8153 110.549 64.1349C110.37 64.4503 110.278 64.8018 110.274 65.1896V66.794C110.274 67.2798 110.363 67.6996 110.542 68.0533C110.726 68.407 110.983 68.6797 111.316 68.8714C111.648 69.0632 112.042 69.1591 112.498 69.1591C112.801 69.1591 113.078 69.1165 113.329 69.0312C113.581 68.946 113.796 68.8182 113.975 68.6477C114.154 68.4773 114.29 68.2685 114.384 68.0213L116.903 68.1875C116.775 68.7926 116.513 69.321 116.116 69.7727C115.724 70.2202 115.217 70.5696 114.595 70.821C113.977 71.0682 113.263 71.1918 112.454 71.1918ZM126.906 63.9815L124.413 64.1349C124.371 63.9219 124.279 63.7301 124.138 63.5597C123.998 63.3849 123.812 63.2464 123.582 63.1442C123.356 63.0376 123.086 62.9844 122.77 62.9844C122.349 62.9844 121.993 63.0739 121.703 63.2528C121.413 63.4276 121.268 63.6619 121.268 63.956C121.268 64.1903 121.362 64.3885 121.55 64.5504C121.737 64.7124 122.059 64.8423 122.515 64.9403L124.292 65.2983C125.246 65.4943 125.958 65.8097 126.427 66.2443C126.895 66.679 127.13 67.25 127.13 67.9574C127.13 68.6009 126.94 69.1655 126.561 69.6513C126.186 70.1371 125.67 70.5163 125.014 70.7891C124.362 71.0575 123.61 71.1918 122.758 71.1918C121.458 71.1918 120.422 70.9212 119.651 70.38C118.884 69.8345 118.434 69.093 118.302 68.1555L120.981 68.0149C121.062 68.4112 121.258 68.7138 121.569 68.9226C121.88 69.1271 122.278 69.2294 122.764 69.2294C123.241 69.2294 123.625 69.1378 123.915 68.9545C124.209 68.767 124.358 68.5263 124.362 68.2322C124.358 67.9851 124.253 67.7827 124.049 67.625C123.844 67.4631 123.529 67.3395 123.103 67.2543L121.403 66.9155C120.444 66.7237 119.73 66.3913 119.261 65.9183C118.797 65.4453 118.564 64.8423 118.564 64.1094C118.564 63.4787 118.735 62.9354 119.076 62.4794C119.421 62.0234 119.905 61.6719 120.527 61.4247C121.153 61.1776 121.886 61.054 122.726 61.054C123.966 61.054 124.942 61.3161 125.653 61.8402C126.369 62.3643 126.787 63.0781 126.906 63.9815ZM137.013 63.9815L134.521 64.1349C134.478 63.9219 134.386 63.7301 134.246 63.5597C134.105 63.3849 133.92 63.2464 133.69 63.1442C133.464 63.0376 133.193 62.9844 132.878 62.9844C132.456 62.9844 132.1 63.0739 131.81 63.2528C131.521 63.4276 131.376 63.6619 131.376 63.956C131.376 64.1903 131.469 64.3885 131.657 64.5504C131.844 64.7124 132.166 64.8423 132.622 64.9403L134.399 65.2983C135.354 65.4943 136.065 65.8097 136.534 66.2443C137.003 66.679 137.237 67.25 137.237 67.9574C137.237 68.6009 137.048 69.1655 136.668 69.6513C136.293 70.1371 135.778 70.5163 135.121 70.7891C134.469 71.0575 133.717 71.1918 132.865 71.1918C131.565 71.1918 130.53 70.9212 129.759 70.38C128.991 69.8345 128.542 69.093 128.41 68.1555L131.088 68.0149C131.169 68.4112 131.365 68.7138 131.676 68.9226C131.987 69.1271 132.386 69.2294 132.871 69.2294C133.349 69.2294 133.732 69.1378 134.022 68.9545C134.316 68.767 134.465 68.5263 134.469 68.2322C134.465 67.9851 134.361 67.7827 134.156 67.625C133.952 67.4631 133.636 67.3395 133.21 67.2543L131.51 66.9155C130.551 66.7237 129.837 66.3913 129.369 65.9183C128.904 65.4453 128.672 64.8423 128.672 64.1094C128.672 63.4787 128.842 62.9354 129.183 62.4794C129.528 62.0234 130.012 61.6719 130.634 61.4247C131.261 61.1776 131.994 61.054 132.833 61.054C134.073 61.054 135.049 61.3161 135.761 61.8402C136.477 62.3643 136.894 63.0781 137.013 63.9815ZM143.388 71.1918C142.395 71.1918 141.536 70.9808 140.812 70.5589C140.092 70.1328 139.536 69.5405 139.144 68.782C138.752 68.0192 138.556 67.1349 138.556 66.1293C138.556 65.1151 138.752 64.2287 139.144 63.4702C139.536 62.7074 140.092 62.1151 140.812 61.6932C141.536 61.267 142.395 61.054 143.388 61.054C144.381 61.054 145.237 61.267 145.958 61.6932C146.682 62.1151 147.24 62.7074 147.632 63.4702C148.024 64.2287 148.22 65.1151 148.22 66.1293C148.22 67.1349 148.024 68.0192 147.632 68.782C147.24 69.5405 146.682 70.1328 145.958 70.5589C145.237 70.9808 144.381 71.1918 143.388 71.1918ZM143.401 69.0824C143.852 69.0824 144.23 68.9545 144.532 68.6989C144.835 68.4389 145.063 68.0852 145.216 67.6378C145.374 67.1903 145.453 66.6811 145.453 66.1101C145.453 65.5391 145.374 65.0298 145.216 64.5824C145.063 64.1349 144.835 63.7812 144.532 63.5213C144.23 63.2614 143.852 63.1314 143.401 63.1314C142.945 63.1314 142.561 63.2614 142.25 63.5213C141.943 63.7812 141.711 64.1349 141.553 64.5824C141.4 65.0298 141.323 65.5391 141.323 66.1101C141.323 66.6811 141.4 67.1903 141.553 67.6378C141.711 68.0852 141.943 68.4389 142.25 68.6989C142.561 68.9545 142.945 69.0824 143.401 69.0824ZM152.714 65.3239V71H149.991V61.1818H152.586V62.9141H152.701C152.919 62.343 153.283 61.8913 153.794 61.5589C154.306 61.2223 154.926 61.054 155.654 61.054C156.336 61.054 156.931 61.2031 157.438 61.5014C157.945 61.7997 158.339 62.2259 158.62 62.7798C158.901 63.3295 159.042 63.9858 159.042 64.7486V71H156.319V65.2344C156.323 64.6335 156.17 64.1648 155.859 63.8281C155.548 63.4872 155.119 63.3168 154.574 63.3168C154.208 63.3168 153.884 63.3956 153.602 63.5533C153.325 63.7109 153.108 63.9411 152.95 64.2436C152.797 64.5419 152.718 64.902 152.714 65.3239ZM169.357 63.9815L166.864 64.1349C166.822 63.9219 166.73 63.7301 166.589 63.5597C166.449 63.3849 166.263 63.2464 166.033 63.1442C165.808 63.0376 165.537 62.9844 165.222 62.9844C164.8 62.9844 164.444 63.0739 164.154 63.2528C163.864 63.4276 163.719 63.6619 163.719 63.956C163.719 64.1903 163.813 64.3885 164.001 64.5504C164.188 64.7124 164.51 64.8423 164.966 64.9403L166.743 65.2983C167.697 65.4943 168.409 65.8097 168.878 66.2443C169.347 66.679 169.581 67.25 169.581 67.9574C169.581 68.6009 169.391 69.1655 169.012 69.6513C168.637 70.1371 168.121 70.5163 167.465 70.7891C166.813 71.0575 166.061 71.1918 165.209 71.1918C163.909 71.1918 162.874 70.9212 162.102 70.38C161.335 69.8345 160.886 69.093 160.754 68.1555L163.432 68.0149C163.513 68.4112 163.709 68.7138 164.02 68.9226C164.331 69.1271 164.729 69.2294 165.215 69.2294C165.692 69.2294 166.076 69.1378 166.366 68.9545C166.66 68.767 166.809 68.5263 166.813 68.2322C166.809 67.9851 166.705 67.7827 166.5 67.625C166.295 67.4631 165.98 67.3395 165.554 67.2543L163.854 66.9155C162.895 66.7237 162.181 66.3913 161.712 65.9183C161.248 65.4453 161.016 64.8423 161.016 64.1094C161.016 63.4787 161.186 62.9354 161.527 62.4794C161.872 62.0234 162.356 61.6719 162.978 61.4247C163.604 61.1776 164.337 61.054 165.177 61.054C166.417 61.054 167.393 61.3161 168.104 61.8402C168.82 62.3643 169.238 63.0781 169.357 63.9815Z" fill="white"/>
<path d="M183.281 58.6947L189.063 64.4767L183.281 70.2587C183.099 70.4473 182.998 70.6999 183 70.9621C183.002 71.2243 183.107 71.4751 183.293 71.6605C183.478 71.8459 183.729 71.9511 183.991 71.9533C184.254 71.9556 184.506 71.8548 184.695 71.6727L191.181 65.1867C191.274 65.0936 191.348 64.983 191.398 64.861C191.448 64.7391 191.474 64.6085 191.473 64.4767C191.473 64.3449 191.448 64.2143 191.398 64.0924C191.348 63.9706 191.274 63.8598 191.181 63.7667L184.695 57.2807C184.506 57.0985 184.254 56.9977 183.991 57C183.729 57.0023 183.478 57.1074 183.293 57.2928C183.107 57.4782 183.002 57.7291 183 57.9913C182.998 58.2535 183.099 58.5061 183.281 58.6947Z" fill="white"/>
</svg>
