<svg width="14" height="14" viewBox="0 0 14 14" fill="none" xmlns="http://www.w3.org/2000/svg">
<mask id="path-1-inside-1_445_2967" fill="white">
<path d="M11.8124 9.25761V5.42511L12.0137 5.33323C12.09 5.29843 12.1548 5.24239 12.2002 5.1718C12.2456 5.10121 12.2698 5.01904 12.2698 4.93511C12.2698 4.85117 12.2456 4.769 12.2002 4.69841C12.1548 4.62782 12.09 4.57178 12.0137 4.53698L6.97367 2.22698C6.91608 2.20033 6.85338 2.18652 6.78992 2.18652C6.72646 2.18652 6.66376 2.20033 6.60617 2.22698L1.56617 4.53698C1.48979 4.57178 1.42503 4.62782 1.37962 4.69841C1.3342 4.769 1.31006 4.85117 1.31006 4.93511C1.31006 5.01904 1.3342 5.10121 1.37962 5.1718C1.42503 5.24239 1.48979 5.29843 1.56617 5.33323L3.39929 6.17323L3.06242 8.87261C3.0521 8.95986 3.06829 9.04821 3.10889 9.12613C3.14949 9.20406 3.21261 9.26795 3.29003 9.30949C3.36746 9.35104 3.4556 9.36831 3.54297 9.35905C3.63035 9.3498 3.71292 9.31445 3.77992 9.25761C3.82658 9.21094 3.87908 9.16282 3.93742 9.11323C4.04672 8.97688 4.18521 8.8668 4.34271 8.79108C4.5002 8.71536 4.67267 8.67595 4.84742 8.67573C5.45173 8.6518 6.04315 8.85467 6.50554 9.24448C6.58479 9.31226 6.68564 9.34951 6.78992 9.34951C6.8942 9.34951 6.99505 9.31226 7.07429 9.24448C7.46091 8.90943 7.94633 8.70973 8.45679 8.67573C8.68257 8.64878 8.91152 8.67689 9.12408 8.75765C9.33664 8.8384 9.52649 8.96941 9.67742 9.13948L9.78679 9.24448C9.86604 9.31225 9.96689 9.34949 10.0712 9.34948C10.143 9.34912 10.2136 9.33109 10.2768 9.29698C10.3543 9.25538 10.4175 9.19138 10.4581 9.11334C10.4986 9.03529 10.5148 8.94682 10.5043 8.85948L10.1718 6.16886L10.9374 5.82761V9.25761C10.6831 9.34132 10.4617 9.50307 10.3046 9.71984C10.1475 9.93662 10.0628 10.1974 10.0624 10.4651V11.8126C10.0624 11.9286 10.1085 12.0399 10.1906 12.122C10.2726 12.204 10.3839 12.2501 10.4999 12.2501H12.2499C12.3659 12.2501 12.4772 12.204 12.5593 12.122C12.6413 12.0399 12.6874 11.9286 12.6874 11.8126V10.4651C12.687 10.1974 12.6023 9.93662 12.4452 9.71984C12.2881 9.50307 12.0667 9.34132 11.8124 9.25761ZM9.50679 7.98448C9.15443 7.8431 8.77386 7.78617 8.39554 7.81823C7.81601 7.85214 7.25721 8.04598 6.78117 8.37823C6.19617 7.97655 5.49474 7.77966 4.78617 7.81823C4.53791 7.83049 4.293 7.88065 4.05992 7.96698L4.23492 6.56261L6.60617 7.65198C6.66376 7.67863 6.72646 7.69244 6.78992 7.69244C6.85338 7.69244 6.91608 7.67863 6.97367 7.65198L9.32742 6.56261L9.50679 7.98448ZM6.78992 6.76386L2.79992 4.93511L6.78992 3.10636L10.7799 4.93511L6.78992 6.76386ZM11.8124 11.3751H10.9374V10.4651C10.9374 10.4122 10.9478 10.3599 10.9681 10.3111C10.9883 10.2622 11.0179 10.2179 11.0553 10.1805C11.0927 10.1431 11.1371 10.1135 11.1859 10.0932C11.2347 10.073 11.2871 10.0626 11.3399 10.0626H11.4099C11.5167 10.0626 11.619 10.105 11.6945 10.1805C11.77 10.256 11.8124 10.3584 11.8124 10.4651V11.3751Z"/>
</mask>
<path d="M11.8124 9.25761V5.42511L12.0137 5.33323C12.09 5.29843 12.1548 5.24239 12.2002 5.1718C12.2456 5.10121 12.2698 5.01904 12.2698 4.93511C12.2698 4.85117 12.2456 4.769 12.2002 4.69841C12.1548 4.62782 12.09 4.57178 12.0137 4.53698L6.97367 2.22698C6.91608 2.20033 6.85338 2.18652 6.78992 2.18652C6.72646 2.18652 6.66376 2.20033 6.60617 2.22698L1.56617 4.53698C1.48979 4.57178 1.42503 4.62782 1.37962 4.69841C1.3342 4.769 1.31006 4.85117 1.31006 4.93511C1.31006 5.01904 1.3342 5.10121 1.37962 5.1718C1.42503 5.24239 1.48979 5.29843 1.56617 5.33323L3.39929 6.17323L3.06242 8.87261C3.0521 8.95986 3.06829 9.04821 3.10889 9.12613C3.14949 9.20406 3.21261 9.26795 3.29003 9.30949C3.36746 9.35104 3.4556 9.36831 3.54297 9.35905C3.63035 9.3498 3.71292 9.31445 3.77992 9.25761C3.82658 9.21094 3.87908 9.16282 3.93742 9.11323C4.04672 8.97688 4.18521 8.8668 4.34271 8.79108C4.5002 8.71536 4.67267 8.67595 4.84742 8.67573C5.45173 8.6518 6.04315 8.85467 6.50554 9.24448C6.58479 9.31226 6.68564 9.34951 6.78992 9.34951C6.8942 9.34951 6.99505 9.31226 7.07429 9.24448C7.46091 8.90943 7.94633 8.70973 8.45679 8.67573C8.68257 8.64878 8.91152 8.67689 9.12408 8.75765C9.33664 8.8384 9.52649 8.96941 9.67742 9.13948L9.78679 9.24448C9.86604 9.31225 9.96689 9.34949 10.0712 9.34948C10.143 9.34912 10.2136 9.33109 10.2768 9.29698C10.3543 9.25538 10.4175 9.19138 10.4581 9.11334C10.4986 9.03529 10.5148 8.94682 10.5043 8.85948L10.1718 6.16886L10.9374 5.82761V9.25761C10.6831 9.34132 10.4617 9.50307 10.3046 9.71984C10.1475 9.93662 10.0628 10.1974 10.0624 10.4651V11.8126C10.0624 11.9286 10.1085 12.0399 10.1906 12.122C10.2726 12.204 10.3839 12.2501 10.4999 12.2501H12.2499C12.3659 12.2501 12.4772 12.204 12.5593 12.122C12.6413 12.0399 12.6874 11.9286 12.6874 11.8126V10.4651C12.687 10.1974 12.6023 9.93662 12.4452 9.71984C12.2881 9.50307 12.0667 9.34132 11.8124 9.25761ZM9.50679 7.98448C9.15443 7.8431 8.77386 7.78617 8.39554 7.81823C7.81601 7.85214 7.25721 8.04598 6.78117 8.37823C6.19617 7.97655 5.49474 7.77966 4.78617 7.81823C4.53791 7.83049 4.293 7.88065 4.05992 7.96698L4.23492 6.56261L6.60617 7.65198C6.66376 7.67863 6.72646 7.69244 6.78992 7.69244C6.85338 7.69244 6.91608 7.67863 6.97367 7.65198L9.32742 6.56261L9.50679 7.98448ZM6.78992 6.76386L2.79992 4.93511L6.78992 3.10636L10.7799 4.93511L6.78992 6.76386ZM11.8124 11.3751H10.9374V10.4651C10.9374 10.4122 10.9478 10.3599 10.9681 10.3111C10.9883 10.2622 11.0179 10.2179 11.0553 10.1805C11.0927 10.1431 11.1371 10.1135 11.1859 10.0932C11.2347 10.073 11.2871 10.0626 11.3399 10.0626H11.4099C11.5167 10.0626 11.619 10.105 11.6945 10.1805C11.77 10.256 11.8124 10.3584 11.8124 10.4651V11.3751Z" fill="black"/>
<path d="M11.8124 9.25761H10.8124V9.98118L11.4997 10.2075L11.8124 9.25761ZM11.8124 5.42511L11.3971 4.51542L10.8124 4.78235V5.42511H11.8124ZM12.0137 5.33323L11.5991 4.42323L11.5984 4.42354L12.0137 5.33323ZM12.0137 4.53698L11.597 5.44605L11.5991 5.44698L12.0137 4.53698ZM6.97367 2.22698L6.55366 3.13451L6.55701 3.13605L6.97367 2.22698ZM6.78992 2.18652V1.18652V2.18652ZM6.60617 2.22698L7.02283 3.13605L7.02617 3.13451L6.60617 2.22698ZM1.56617 4.53698L1.98078 5.44698L1.98282 5.44605L1.56617 4.53698ZM1.31006 4.93511H2.31006H1.31006ZM1.56617 5.33323L1.98275 4.42413L1.98078 4.42323L1.56617 5.33323ZM3.39929 6.17323L4.3916 6.29707L4.48239 5.56955L3.81587 5.26413L3.39929 6.17323ZM3.06242 8.87261L2.07009 8.74877L2.06934 8.75516L3.06242 8.87261ZM3.77992 9.25761L4.42684 10.0202L4.45807 9.99367L4.48702 9.96471L3.77992 9.25761ZM3.93742 9.11323L4.58507 9.87517L4.65789 9.81327L4.71767 9.7387L3.93742 9.11323ZM4.84742 8.67573L4.84864 9.67573L4.86782 9.67571L4.88698 9.67495L4.84742 8.67573ZM6.50554 9.24448L7.15556 8.48453L7.15009 8.47992L6.50554 9.24448ZM7.07429 9.24448L7.72431 10.0044L7.72921 10.0002L7.07429 9.24448ZM8.45679 8.67573L8.52325 9.67352L8.54934 9.67178L8.57531 9.66868L8.45679 8.67573ZM9.67742 9.13948L8.92947 9.80324L8.95603 9.83316L8.98489 9.86087L9.67742 9.13948ZM9.78679 9.24448L9.09426 9.96587L9.11501 9.98579L9.13687 10.0045L9.78679 9.24448ZM10.0712 9.34948L10.0712 10.3495L10.0762 10.3495L10.0712 9.34948ZM10.2768 9.29698L9.80388 8.41587L9.8018 8.41699L10.2768 9.29698ZM10.5043 8.85948L11.4972 8.74059L11.4967 8.73684L10.5043 8.85948ZM10.1718 6.16886L9.76469 5.25548L9.08855 5.55684L9.17934 6.2915L10.1718 6.16886ZM10.9374 5.82761H11.9374V4.28706L10.5303 4.91423L10.9374 5.82761ZM10.9374 9.25761L11.2501 10.2075L11.9374 9.98118V9.25761H10.9374ZM10.0624 10.4651L9.06242 10.4637V10.4651H10.0624ZM12.6874 10.4651H13.6874L13.6874 10.4637L12.6874 10.4651ZM9.50679 7.98448L9.13442 8.91256L10.7116 9.54539L10.4989 7.85932L9.50679 7.98448ZM8.39554 7.81823L8.45395 8.81652L8.46699 8.81576L8.48 8.81466L8.39554 7.81823ZM6.78117 8.37823L6.21512 9.2026L6.78582 9.59447L7.3535 9.19825L6.78117 8.37823ZM4.78617 7.81823L4.83547 8.81703L4.84053 8.81675L4.78617 7.81823ZM4.05992 7.96698L3.06759 7.84333L2.86411 9.47629L4.40725 8.90472L4.05992 7.96698ZM4.23492 6.56261L4.65238 5.65391L3.41146 5.08382L3.24259 6.43895L4.23492 6.56261ZM6.60617 7.65198L7.02617 6.74445L7.02363 6.74329L6.60617 7.65198ZM6.97367 7.65198L7.39367 8.55951L7.39369 8.5595L6.97367 7.65198ZM9.32742 6.56261L10.3196 6.43744L10.1484 5.08073L8.9074 5.65509L9.32742 6.56261ZM6.78992 6.76386L6.37326 7.67292L6.78992 7.86389L7.20657 7.67292L6.78992 6.76386ZM2.79992 4.93511L2.38326 4.02604L0.399849 4.93511L2.38326 5.84417L2.79992 4.93511ZM6.78992 3.10636L7.20657 2.19729L6.78992 2.00632L6.37326 2.19729L6.78992 3.10636ZM10.7799 4.93511L11.1966 5.84417L13.18 4.93511L11.1966 4.02604L10.7799 4.93511ZM11.8124 11.3751V12.3751H12.8124V11.3751H11.8124ZM10.9374 11.3751H9.93742V12.3751H10.9374V11.3751ZM10.9374 10.4651H11.9374H10.9374ZM11.3399 10.0626V11.0626V10.0626ZM12.8124 9.25761V5.42511H10.8124V9.25761H12.8124ZM12.2277 6.33479L12.429 6.24292L11.5984 4.42354L11.3971 4.51542L12.2277 6.33479ZM12.4283 6.24323C12.6792 6.12889 12.892 5.94476 13.0412 5.71281L11.3592 4.63079C11.4176 4.54002 11.5009 4.46797 11.5991 4.42323L12.4283 6.24323ZM13.0412 5.71281C13.1904 5.48087 13.2698 5.21089 13.2698 4.93511H11.2698C11.2698 4.82719 11.3008 4.72155 11.3592 4.63079L13.0412 5.71281ZM13.2698 4.93511C13.2698 4.65932 13.1904 4.38935 13.0412 4.1574L11.3592 5.23943C11.3008 5.14866 11.2698 5.04302 11.2698 4.93511H13.2698ZM13.0412 4.1574C12.892 3.92545 12.6792 3.74133 12.4283 3.62698L11.5991 5.44698C11.5009 5.40224 11.4176 5.33019 11.3592 5.23943L13.0412 4.1574ZM12.4303 3.62792L7.39032 1.31792L6.55701 3.13605L11.597 5.44605L12.4303 3.62792ZM7.39367 1.31946C7.20444 1.23188 6.99843 1.18652 6.78992 1.18652V3.18652C6.70833 3.18652 6.62771 3.16877 6.55367 3.13451L7.39367 1.31946ZM6.78992 1.18652C6.58141 1.18652 6.3754 1.23188 6.18617 1.31946L7.02617 3.13451C6.95212 3.16877 6.87151 3.18652 6.78992 3.18652V1.18652ZM6.18951 1.31792L1.14951 3.62792L1.98282 5.44605L7.02282 3.13605L6.18951 1.31792ZM1.15156 3.62698C0.900589 3.74133 0.687809 3.92545 0.538601 4.1574L2.22063 5.23943C2.16224 5.33019 2.07898 5.40224 1.98078 5.44698L1.15156 3.62698ZM0.538601 4.1574C0.389394 4.38934 0.310059 4.65931 0.310059 4.93511H2.31006C2.31006 5.04303 2.27901 5.14867 2.22063 5.23943L0.538601 4.1574ZM0.310059 4.93511C0.310059 5.2109 0.389394 5.48087 0.538601 5.71281L2.22063 4.63079C2.27901 4.72155 2.31006 4.82719 2.31006 4.93511H0.310059ZM0.538601 5.71281C0.687809 5.94476 0.900589 6.12889 1.15156 6.24323L1.98078 4.42323C2.07898 4.46798 2.16224 4.54002 2.22063 4.63079L0.538601 5.71281ZM1.14959 6.24233L2.98271 7.08233L3.81587 5.26413L1.98275 4.42413L1.14959 6.24233ZM2.40699 6.04939L2.07012 8.74877L4.05472 8.99644L4.3916 6.29707L2.40699 6.04939ZM2.06934 8.75516C2.03543 9.04187 2.08864 9.33214 2.22203 9.58818L3.99575 8.66409C4.04794 8.76428 4.06876 8.87786 4.0555 8.99005L2.06934 8.75516ZM2.22203 9.58818C2.35543 9.84421 2.56282 10.0542 2.81721 10.1907L3.76285 8.42833C3.8624 8.48175 3.94355 8.5639 3.99575 8.66409L2.22203 9.58818ZM2.81721 10.1907C3.07161 10.3272 3.36121 10.3839 3.6483 10.3535L3.43764 8.36462C3.54998 8.35272 3.66331 8.37492 3.76285 8.42833L2.81721 10.1907ZM3.6483 10.3535C3.9354 10.3231 4.20669 10.2069 4.42684 10.0202L3.133 8.49505C3.21914 8.42197 3.3253 8.37652 3.43764 8.36462L3.6483 10.3535ZM4.48702 9.96471C4.51189 9.93984 4.54412 9.90997 4.58507 9.87517L3.28977 8.35129C3.21405 8.41566 3.14127 8.48204 3.07281 8.5505L4.48702 9.96471ZM4.71767 9.7387C4.7334 9.71908 4.75333 9.70323 4.776 9.69233L3.90941 7.88983C3.6171 8.03036 3.36003 8.23469 3.15717 8.48776L4.71767 9.7387ZM4.776 9.69233C4.79867 9.68143 4.82349 9.67576 4.84864 9.67573L4.84619 7.67573C4.52185 7.67613 4.20173 7.74929 3.90941 7.88983L4.776 9.69233ZM4.88698 9.67495C5.24196 9.66089 5.58937 9.78006 5.86099 10.009L7.15009 8.47992C6.49693 7.92928 5.66149 7.64272 4.80785 7.67651L4.88698 9.67495ZM5.85554 10.0044C6.11592 10.2271 6.44728 10.3495 6.78992 10.3495V8.34951C6.92399 8.34951 7.05366 8.3974 7.15554 8.48455L5.85554 10.0044ZM6.78992 10.3495C7.13255 10.3495 7.46392 10.2271 7.72429 10.0044L6.42429 8.48455C6.52618 8.3974 6.65584 8.34951 6.78992 8.34951V10.3495ZM7.72921 10.0002C7.95126 9.80775 8.23006 9.69305 8.52325 9.67352L8.39033 7.67794C7.66259 7.72642 6.97056 8.01111 6.41938 8.48878L7.72921 10.0002ZM8.57531 9.66868C8.64082 9.66087 8.70724 9.66902 8.76892 9.69245L9.47924 7.82284C9.1158 7.68476 8.72433 7.6367 8.33828 7.68278L8.57531 9.66868ZM8.76892 9.69245C8.8306 9.71588 8.88568 9.7539 8.92947 9.80324L10.4254 8.47572C10.1673 8.18493 9.84268 7.96092 9.47924 7.82284L8.76892 9.69245ZM8.98489 9.86087L9.09426 9.96587L10.4793 8.52309L10.3699 8.41809L8.98489 9.86087ZM9.13687 10.0045C9.39726 10.2272 9.72862 10.3495 10.0712 10.3495L10.0711 8.34948C10.2052 8.34947 10.3348 8.39735 10.4367 8.48448L9.13687 10.0045ZM10.0762 10.3495C10.3121 10.3483 10.5442 10.289 10.7518 10.177L9.8018 8.41699C9.88304 8.37314 9.97384 8.34996 10.0662 8.34949L10.0762 10.3495ZM10.7497 10.1781C11.0044 10.0414 11.2119 9.83112 11.3453 9.57469L9.57084 8.65198C9.62301 8.55164 9.70423 8.46936 9.80388 8.41587L10.7497 10.1781ZM11.3453 9.57469C11.4786 9.31826 11.5316 9.02758 11.4972 8.74059L9.51138 8.97837C9.49794 8.86607 9.51866 8.75232 9.57084 8.65198L11.3453 9.57469ZM11.4967 8.73684L11.1642 6.04621L9.17934 6.2915L9.51184 8.98213L11.4967 8.73684ZM10.5789 7.08224L11.3445 6.74099L10.5303 4.91423L9.76469 5.25548L10.5789 7.08224ZM9.93742 5.82761V9.25761H11.9374V5.82761H9.93742ZM10.6247 8.30776C10.1707 8.45723 9.77535 8.74602 9.49488 9.13307L11.1144 10.3066C11.1481 10.2601 11.1956 10.2254 11.2501 10.2075L10.6247 8.30776ZM9.49488 9.13307C9.21441 9.52012 9.06308 9.98573 9.06242 10.4637L11.0624 10.4665C11.0625 10.4091 11.0807 10.3531 11.1144 10.3066L9.49488 9.13307ZM9.06242 10.4651V11.8126H11.0624V10.4651H9.06242ZM9.06242 11.8126C9.06242 12.1939 9.21387 12.5595 9.48345 12.8291L10.8977 11.4149C11.0032 11.5204 11.0624 11.6634 11.0624 11.8126H9.06242ZM9.48345 12.8291C9.75304 13.0987 10.1187 13.2501 10.4999 13.2501V11.2501C10.6491 11.2501 10.7922 11.3094 10.8977 11.4149L9.48345 12.8291ZM10.4999 13.2501H12.2499V11.2501H10.4999V13.2501ZM12.2499 13.2501C12.6312 13.2501 12.9968 13.0987 13.2664 12.8291L11.8522 11.4149C11.9577 11.3094 12.1007 11.2501 12.2499 11.2501V13.2501ZM13.2664 12.8291C13.536 12.5595 13.6874 12.1939 13.6874 11.8126H11.6874C11.6874 11.6634 11.7467 11.5204 11.8522 11.4149L13.2664 12.8291ZM13.6874 11.8126V10.4651H11.6874V11.8126H13.6874ZM13.6874 10.4637C13.6868 9.98573 13.5354 9.52012 13.255 9.13307L11.6355 10.3066C11.6692 10.3531 11.6873 10.4091 11.6874 10.4665L13.6874 10.4637ZM13.255 9.13307C12.9745 8.74602 12.5791 8.45723 12.1251 8.30776L11.4997 10.2075C11.5543 10.2254 11.6018 10.2601 11.6355 10.3066L13.255 9.13307ZM9.87917 7.0564C9.38194 6.8569 8.84492 6.77656 8.31108 6.82181L8.48 8.81466C8.70279 8.79577 8.92691 8.8293 9.13442 8.91256L9.87917 7.0564ZM8.33714 6.81994C7.57311 6.86464 6.83642 7.12019 6.20883 7.55821L7.3535 9.19825C7.678 8.97177 8.05891 8.83964 8.45395 8.81652L8.33714 6.81994ZM7.34722 7.55386C6.5803 7.02726 5.66073 6.76914 4.73181 6.81971L4.84053 8.81675C5.32875 8.79017 5.81205 8.92584 6.21512 9.2026L7.34722 7.55386ZM4.73686 6.81945C4.38674 6.83673 4.04132 6.90748 3.71259 7.02924L4.40725 8.90472C4.54468 8.85382 4.68909 8.82424 4.83547 8.81702L4.73686 6.81945ZM5.05224 8.09064L5.22724 6.68626L3.24259 6.43895L3.06759 7.84333L5.05224 8.09064ZM3.81746 7.4713L6.1887 8.56068L7.02363 6.74329L4.65238 5.65391L3.81746 7.4713ZM6.18617 8.55951C6.3754 8.64708 6.58141 8.69244 6.78992 8.69244V6.69244C6.87151 6.69244 6.95212 6.71019 7.02617 6.74446L6.18617 8.55951ZM6.78992 8.69244C6.99843 8.69244 7.20444 8.64708 7.39367 8.55951L6.55367 6.74446C6.62771 6.71019 6.70833 6.69244 6.78992 6.69244V8.69244ZM7.39369 8.5595L9.74744 7.47012L8.9074 5.65509L6.55365 6.74447L7.39369 8.5595ZM8.33528 6.68777L8.51466 8.10964L10.4989 7.85932L10.3196 6.43744L8.33528 6.68777ZM7.20657 5.85479L3.21657 4.02604L2.38326 5.84417L6.37326 7.67292L7.20657 5.85479ZM3.21657 5.84417L7.20657 4.01542L6.37326 2.19729L2.38326 4.02604L3.21657 5.84417ZM6.37326 4.01542L10.3633 5.84417L11.1966 4.02604L7.20657 2.19729L6.37326 4.01542ZM10.3633 4.02604L6.37326 5.85479L7.20657 7.67292L11.1966 5.84417L10.3633 4.02604ZM11.8124 10.3751H10.9374V12.3751H11.8124V10.3751ZM11.9374 11.3751V10.4651H9.93742V11.3751H11.9374ZM11.9374 10.4651C11.9374 10.5436 11.922 10.6213 11.8919 10.6938L10.0442 9.92839C9.97369 10.0986 9.93742 10.2809 9.93742 10.4651H11.9374ZM11.8919 10.6938C11.8619 10.7663 11.8179 10.8321 11.7624 10.8876L10.3482 9.47339C10.218 9.60362 10.1147 9.75823 10.0442 9.92839L11.8919 10.6938ZM11.7624 10.8876C11.7069 10.9431 11.6411 10.9871 11.5686 11.0171L10.8032 9.16937C10.633 9.23985 10.4784 9.34316 10.3482 9.47339L11.7624 10.8876ZM11.5686 11.0171C11.4961 11.0472 11.4184 11.0626 11.3399 11.0626L11.3399 9.06261C11.1557 9.06261 10.9734 9.09888 10.8032 9.16937L11.5686 11.0171ZM11.3399 11.0626H11.4099V9.06261H11.3399V11.0626ZM11.4099 11.0626C11.2514 11.0626 11.0995 10.9997 10.9874 10.8876L12.4016 9.47339C12.1386 9.21037 11.7819 9.06261 11.4099 9.06261V11.0626ZM10.9874 10.8876C10.8754 10.7756 10.8124 10.6236 10.8124 10.4651H12.8124C12.8124 10.0931 12.6647 9.73641 12.4016 9.47339L10.9874 10.8876ZM10.8124 10.4651V11.3751H12.8124V10.4651H10.8124Z" fill="white" mask="url(#path-1-inside-1_445_2967)"/>
</svg>
