<svg width="42" height="40" viewBox="0 0 42 40" fill="none" xmlns="http://www.w3.org/2000/svg">
<path opacity="0.9" d="M6.38001 0.623047H31.048C31.7977 0.628542 32.539 0.781658 33.2296 1.07365C33.9201 1.36564 34.5464 1.79079 35.0726 2.32483C35.5989 2.85886 36.0148 3.49132 36.2966 4.18608C36.5784 4.88085 36.7206 5.62432 36.715 6.37405V33.444C36.7257 34.9579 36.1347 36.4141 35.072 37.4923C34.0093 38.5706 32.5619 39.1827 31.048 39.194H6.38001C4.86623 39.1827 3.41893 38.5706 2.3564 37.4923C1.29387 36.414 0.703101 34.9578 0.714016 33.444V6.37405C0.703366 4.86051 1.29408 3.40466 2.35634 2.32647C3.4186 1.24827 4.86549 0.635937 6.37901 0.624046L6.38001 0.623047Z" fill="#57D6F8"/>
<path d="M32.265 25.802H23.918C23.7225 25.802 23.564 25.9605 23.564 26.156V26.734C23.564 26.9295 23.7225 27.088 23.918 27.088H32.265C32.4605 27.088 32.619 26.9295 32.619 26.734V26.156C32.619 25.9605 32.4605 25.802 32.265 25.802Z" fill="white"/>
<path opacity="0.98" d="M31.141 3.19403H6.284C4.62714 3.19403 3.284 4.53718 3.284 6.19403V33.623C3.284 35.2799 4.62714 36.623 6.284 36.623H31.141C32.7979 36.623 34.141 35.2799 34.141 33.623V6.19403C34.141 4.53718 32.7979 3.19403 31.141 3.19403Z" fill="white"/>
<path d="M30.848 6.48706H25.829C25.2767 6.48706 24.829 6.93478 24.829 7.48706V13.6991C24.829 14.2513 25.2767 14.6991 25.829 14.6991H30.848C31.4003 14.6991 31.848 14.2513 31.848 13.6991V7.48706C31.848 6.93478 31.4003 6.48706 30.848 6.48706Z" fill="#65D2F0"/>
<path opacity="0.95" d="M21.051 6.48706H6.97198C6.4197 6.48706 5.97198 6.93478 5.97198 7.48706V8.79006C5.97198 9.34235 6.4197 9.79006 6.97198 9.79006H21.051C21.6033 9.79006 22.051 9.34235 22.051 8.79006V7.48706C22.051 6.93478 21.6033 6.48706 21.051 6.48706Z" fill="#67D2F0"/>
<path opacity="0.95" d="M17.717 12.156H6.91098C6.39239 12.156 5.97198 12.5764 5.97198 13.095V13.632C5.97198 14.1506 6.39239 14.571 6.91098 14.571H17.717C18.2356 14.571 18.656 14.1506 18.656 13.632V13.095C18.656 12.5764 18.2356 12.156 17.717 12.156Z" fill="#B3E8F7"/>
<path opacity="0.95" d="M20.133 22.8521H6.91001C6.39141 22.8521 5.97101 23.2725 5.97101 23.791V24.3281C5.97101 24.8466 6.39141 25.267 6.91001 25.267H20.133C20.6516 25.267 21.072 24.8466 21.072 24.3281V23.791C21.072 23.2725 20.6516 22.8521 20.133 22.8521Z" fill="#F5F6F7"/>
<path opacity="0.95" d="M16.511 28.101H6.91001C6.39141 28.101 5.97101 28.5214 5.97101 29.04V29.577C5.97101 30.0956 6.39141 30.516 6.91001 30.516H16.511C17.0296 30.516 17.45 30.0956 17.45 29.577V29.04C17.45 28.5214 17.0296 28.101 16.511 28.101Z" fill="#F5F6F7"/>
<path opacity="0.95" d="M22.704 17.709H6.91001C6.39141 17.709 5.97101 18.1295 5.97101 18.648V19.185C5.97101 19.7036 6.39141 20.124 6.91001 20.124H22.704C23.2226 20.124 23.643 19.7036 23.643 19.185V18.648C23.643 18.1295 23.2226 17.709 22.704 17.709Z" fill="#F5F6F7"/>
<path d="M27.457 20.8791C27.6875 20.5067 28.0093 20.1994 28.3919 19.9863C28.7744 19.7732 29.2051 19.6614 29.643 19.6614C30.0809 19.6614 30.5116 19.7732 30.8941 19.9863C31.2767 20.1994 31.5985 20.5067 31.829 20.8791L40.718 35.2721C40.9587 35.6615 41.0911 36.1081 41.1015 36.5658C41.1119 37.0235 40.9999 37.4756 40.7771 37.8755C40.5542 38.2754 40.2286 38.6086 39.834 38.8406C39.4393 39.0725 38.9898 39.1949 38.532 39.1951H20.753C20.2953 39.1947 19.8459 39.0722 19.4514 38.8402C19.0569 38.6081 18.7314 38.275 18.5087 37.8751C18.286 37.4752 18.1741 37.0231 18.1845 36.5655C18.1949 36.1079 18.3273 35.6614 18.568 35.2721L27.458 20.8801L27.457 20.8791Z" fill="#FFCA27"/>
<path d="M29.054 25.0132L28.9546 32.3314H27.8012L27.7017 25.0132H29.054ZM28.3779 35.2746C28.1326 35.2746 27.9222 35.1868 27.7465 35.0111C27.5708 34.8355 27.483 34.625 27.483 34.3797C27.483 34.1345 27.5708 33.924 27.7465 33.7483C27.9222 33.5727 28.1326 33.4848 28.3779 33.4848C28.6231 33.4848 28.8336 33.5727 29.0093 33.7483C29.1849 33.924 29.2728 34.1345 29.2728 34.3797C29.2728 34.5421 29.2313 34.6913 29.1485 34.8272C29.0689 34.9631 28.9612 35.0724 28.8253 35.1553C28.6927 35.2348 28.5436 35.2746 28.3779 35.2746Z" fill="white"/>
</svg>
