<svg width="44" height="40" viewBox="0 0 44 40" fill="none" xmlns="http://www.w3.org/2000/svg">
<path opacity="0.5" d="M6.612 0.623047H31.279C32.0287 0.628542 32.77 0.781658 33.4606 1.07365C34.1511 1.36564 34.7774 1.79079 35.3036 2.32483C35.8299 2.85886 36.2457 3.49132 36.5275 4.18608C36.8093 4.88085 36.9515 5.62432 36.946 6.37405V33.444C36.9566 34.9579 36.3657 36.4141 35.303 37.4923C34.2403 38.5706 32.7929 39.1827 31.279 39.194H6.612C5.09804 39.1829 3.65049 38.5709 2.58774 37.4926C1.52499 36.4143 0.93409 34.958 0.945003 33.444V6.37405C0.934354 4.86051 1.52507 3.40466 2.58733 2.32647C3.64959 1.24827 5.09648 0.635937 6.61 0.624046L6.612 0.623047Z" fill="#4EDAD6"/>
<path opacity="0.95" d="M31.374 3.19604H6.517C4.86014 3.19604 3.517 4.53919 3.517 6.19604V33.625C3.517 35.2819 4.86014 36.625 6.517 36.625H31.374C33.0309 36.625 34.374 35.2819 34.374 33.625V6.19604C34.374 4.53919 33.0309 3.19604 31.374 3.19604Z" fill="white"/>
<path opacity="0.7" d="M8.13 20.9291H8.28301C9.22701 20.8641 10.068 20.0591 10.783 18.5311C11.4312 17.0268 11.9114 15.4556 12.215 13.8461C12.5015 12.3793 12.8612 10.9278 13.293 9.49707C13.89 7.66107 14.409 7.07407 14.741 6.90407C14.891 6.82707 15.133 6.76007 15.523 7.05107C16.028 7.42707 16.816 8.46507 17.701 11.2711C18.1595 12.7724 18.5413 14.296 18.845 15.8361C18.872 15.9981 18.909 16.1591 18.955 16.3161C18.9695 16.396 19.0017 16.4717 19.0494 16.5375C19.097 16.6033 19.1588 16.6576 19.2302 16.6964C19.3016 16.7351 19.3808 16.7574 19.4619 16.7615C19.543 16.7656 19.6241 16.7514 19.699 16.7201C19.8505 16.6241 19.9647 16.4794 20.0231 16.3098C20.0814 16.1403 20.0803 15.9559 20.02 15.7871L19.956 15.4781C19.6392 13.8794 19.242 12.2978 18.766 10.7391C17.961 8.18707 17.066 6.52907 16.108 5.81507C15.8669 5.59877 15.5663 5.46002 15.2453 5.41686C14.9243 5.3737 14.5977 5.42813 14.308 5.57307C12.597 6.44907 11.736 10.5121 11.109 13.4751C10.021 18.6101 8.835 19.4451 8.223 19.4861C7.96442 19.4954 7.70745 19.4417 7.4742 19.3297C7.24095 19.2177 7.03841 19.0507 6.88401 18.8431C6.17535 17.8101 5.83057 16.5706 5.904 15.3201C5.92298 15.1486 5.87388 14.9766 5.76727 14.841C5.66067 14.7054 5.50508 14.6171 5.334 14.5951C5.16202 14.6159 5.00519 14.7037 4.89754 14.8394C4.78989 14.9752 4.74011 15.1479 4.75901 15.3201C4.67008 16.9499 5.14231 18.5611 6.097 19.8851C6.33758 20.1986 6.64471 20.4549 6.99625 20.6354C7.3478 20.8159 7.73502 20.9162 8.13 20.9291Z" fill="#CFD7E1"/>
<path d="M30.708 30.819C28.9003 30.8172 27.1672 30.0982 25.889 28.82C24.6108 27.5418 23.8918 25.8087 23.89 24.001V13.872C23.8918 12.0643 24.6108 10.3312 25.889 9.05301C27.1672 7.77479 28.9003 7.05587 30.708 7.05402C32.5155 7.05613 34.2483 7.77517 35.5263 9.05336C36.8043 10.3316 37.5231 12.0645 37.525 13.872V24.002C37.5229 25.8093 36.804 27.542 35.526 28.82C34.248 30.098 32.5153 30.8169 30.708 30.819Z" fill="#4CDAD6"/>
<path d="M30.708 29.533C32.1745 29.5312 33.5804 28.9477 34.6173 27.9106C35.6542 26.8736 36.2374 25.4675 36.239 24.001V13.872C36.2374 12.4055 35.6542 10.9995 34.6173 9.96242C33.5804 8.92534 32.1745 8.34188 30.708 8.34003C29.2413 8.34162 27.8351 8.92496 26.798 9.96207C25.7609 10.9992 25.1776 12.4053 25.176 13.872V24.002C25.1778 25.4685 25.7613 26.8745 26.7984 27.9113C27.8355 28.9482 29.2415 29.5314 30.708 29.533ZM30.708 32.104C28.5589 32.104 26.4979 31.2503 24.9783 29.7307C23.4587 28.2111 22.605 26.1501 22.605 24.001V13.872C22.5931 12.8004 22.7939 11.7371 23.1957 10.7436C23.5976 9.75013 24.1925 8.84623 24.9461 8.08424C25.6996 7.32226 26.5969 6.71732 27.5858 6.30446C28.5748 5.8916 29.6358 5.67902 30.7075 5.67902C31.7792 5.67902 32.8402 5.8916 33.8292 6.30446C34.8181 6.71732 35.7153 7.32226 36.4689 8.08424C37.2225 8.84623 37.8174 9.75013 38.2193 10.7436C38.6211 11.7371 38.8219 12.8004 38.81 13.872V24.002C38.8097 26.1507 37.956 28.2114 36.4367 29.7307C34.9173 31.2501 32.8567 32.1038 30.708 32.104Z" fill="#4ADAD6"/>
<path d="M38.954 14.645H29.551M38.954 18.823H29.551M38.954 23.002H29.551" stroke="#2CC3BE" stroke-width="2" stroke-linecap="round"/>
<path d="M37.392 37.168H24.788C24.3528 37.168 24 37.5208 24 37.956V38.406C24 38.8412 24.3528 39.194 24.788 39.194H37.392C37.8272 39.194 38.18 38.8412 38.18 38.406V37.956C38.18 37.5208 37.8272 37.168 37.392 37.168Z" fill="#CDD6E0"/>
<path d="M37.249 37.811H24.931C24.772 37.811 24.643 37.94 24.643 38.099V38.809C24.643 38.9681 24.772 39.097 24.931 39.097H37.249C37.4081 39.097 37.537 38.9681 37.537 38.809V38.099C37.537 37.94 37.4081 37.811 37.249 37.811Z" stroke="#CFD7E1"/>
<path d="M28.178 34.13H34.256V37.168H28.178V34.13Z" fill="#CFD6E0"/>
<path d="M30.583 36.155C23.875 36.147 18.438 30.711 18.43 24.001C18.43 23.493 18.461 22.986 18.524 22.481H20.452V23.366H20.472C20.3851 24.7472 20.5821 26.1315 21.0508 27.4336C21.5196 28.7356 22.2502 29.9278 23.1975 30.9367C24.1448 31.9455 25.2888 32.7495 26.5589 33.2991C27.8289 33.8487 29.1981 34.1323 30.582 34.1323C31.9659 34.1323 33.3351 33.8487 34.6052 33.2991C35.8752 32.7495 37.0192 31.9455 37.9665 30.9367C38.9138 29.9278 39.6444 28.7356 40.1132 27.4336C40.5819 26.1315 40.7789 24.7472 40.692 23.366H40.712V22.481H42.64C42.702 22.986 42.734 23.493 42.734 24.001C42.725 30.708 37.292 36.144 30.584 36.155H30.583Z" fill="#CFD7E1"/>
<path d="M42.739 24.001H40.713V19.95H42.738V24L42.739 24.001ZM20.456 24.001H18.429V19.95H20.455V24L20.456 24.001Z" fill="#CFD7E1"/>
<path d="M19.438 21.295C20.1482 21.295 20.724 20.7193 20.724 20.009C20.724 19.2988 20.1482 18.723 19.438 18.723C18.7278 18.723 18.152 19.2988 18.152 20.009C18.152 20.7193 18.7278 21.295 19.438 21.295Z" fill="#CFD7E1"/>
<path d="M41.722 21.295C42.4322 21.295 43.008 20.7193 43.008 20.009C43.008 19.2988 42.4322 18.723 41.722 18.723C41.0118 18.723 40.436 19.2988 40.436 20.009C40.436 20.7193 41.0118 21.295 41.722 21.295Z" fill="#CFD7E1"/>
</svg>
