<svg width="32" height="34" viewBox="0 0 32 34" fill="none" xmlns="http://www.w3.org/2000/svg">
<rect width="32" height="34" fill="#DADADA"/>
<g clip-path="url(#clip0_0_1)">
<rect width="1440" height="4337" transform="translate(-770 -1303)" fill="white"/>
<g filter="url(#filter0_d_0_1)">
<rect x="-34" y="-44.0909" width="251" height="122" rx="10" fill="white"/>
</g>
<g clip-path="url(#clip1_0_1)">
<path d="M17 52.9091C36.8823 52.9091 53 36.7913 53 16.9091C53 -2.97319 36.8823 -19.0909 17 -19.0909C-2.88225 -19.0909 -19 -2.97319 -19 16.9091C-19 36.7913 -2.88225 52.9091 17 52.9091Z" fill="#F0FAFD"/>
<path opacity="0.9" d="M3.38001 -2.37695H28.048C28.7977 -2.37146 29.539 -2.21834 30.2296 -1.92635C30.9201 -1.63436 31.5464 -1.20921 32.0726 -0.675173C32.5989 -0.141139 33.0148 0.491317 33.2966 1.18608C33.5784 1.88085 33.7206 2.62432 33.715 3.37405V30.444C33.7257 31.9579 33.1347 33.4141 32.072 34.4923C31.0093 35.5706 29.5619 36.1827 28.048 36.194H3.38001C1.86623 36.1827 0.418934 35.5706 -0.643599 34.4923C-1.70613 33.414 -2.2969 31.9578 -2.28598 30.444V3.37405C-2.29663 1.86051 -1.70592 0.404664 -0.643658 -0.673534C0.418602 -1.75173 1.86549 -2.36406 3.37901 -2.37595L3.38001 -2.37695Z" fill="#57D6F8"/>
<path d="M29.265 22.802H20.918C20.7225 22.802 20.564 22.9605 20.564 23.156V23.734C20.564 23.9295 20.7225 24.088 20.918 24.088H29.265C29.4605 24.088 29.619 23.9295 29.619 23.734V23.156C29.619 22.9605 29.4605 22.802 29.265 22.802Z" fill="white"/>
<path opacity="0.98" d="M28.141 0.194031H3.284C1.62714 0.194031 0.283997 1.53718 0.283997 3.19403V30.623C0.283997 32.2799 1.62714 33.623 3.284 33.623H28.141C29.7979 33.623 31.141 32.2799 31.141 30.623V3.19403C31.141 1.53718 29.7979 0.194031 28.141 0.194031Z" fill="white"/>
<path d="M27.848 3.48706H22.829C22.2767 3.48706 21.829 3.93478 21.829 4.48706V10.6991C21.829 11.2513 22.2767 11.6991 22.829 11.6991H27.848C28.4003 11.6991 28.848 11.2513 28.848 10.6991V4.48706C28.848 3.93478 28.4003 3.48706 27.848 3.48706Z" fill="#65D2F0"/>
<path opacity="0.95" d="M18.051 3.48706H3.97198C3.4197 3.48706 2.97198 3.93478 2.97198 4.48706V5.79006C2.97198 6.34235 3.4197 6.79006 3.97198 6.79006H18.051C18.6033 6.79006 19.051 6.34235 19.051 5.79006V4.48706C19.051 3.93478 18.6033 3.48706 18.051 3.48706Z" fill="#67D2F0"/>
<path opacity="0.95" d="M14.717 9.15601H3.91098C3.39239 9.15601 2.97198 9.57641 2.97198 10.095V10.632C2.97198 11.1506 3.39239 11.571 3.91098 11.571H14.717C15.2356 11.571 15.656 11.1506 15.656 10.632V10.095C15.656 9.57641 15.2356 9.15601 14.717 9.15601Z" fill="#B3E8F7"/>
<path opacity="0.95" d="M17.133 19.8521H3.91001C3.39141 19.8521 2.97101 20.2725 2.97101 20.791V21.3281C2.97101 21.8466 3.39141 22.267 3.91001 22.267H17.133C17.6516 22.267 18.072 21.8466 18.072 21.3281V20.791C18.072 20.2725 17.6516 19.8521 17.133 19.8521Z" fill="#F5F6F7"/>
<path opacity="0.95" d="M13.511 25.101H3.91001C3.39141 25.101 2.97101 25.5214 2.97101 26.04V26.577C2.97101 27.0956 3.39141 27.516 3.91001 27.516H13.511C14.0296 27.516 14.45 27.0956 14.45 26.577V26.04C14.45 25.5214 14.0296 25.101 13.511 25.101Z" fill="#F5F6F7"/>
<path opacity="0.95" d="M19.704 14.709H3.91001C3.39141 14.709 2.97101 15.1295 2.97101 15.648V16.185C2.97101 16.7036 3.39141 17.124 3.91001 17.124H19.704C20.2226 17.124 20.643 16.7036 20.643 16.185V15.648C20.643 15.1295 20.2226 14.709 19.704 14.709Z" fill="#F5F6F7"/>
<path d="M24.457 17.8791C24.6875 17.5067 25.0093 17.1994 25.3919 16.9863C25.7744 16.7732 26.2051 16.6614 26.643 16.6614C27.0809 16.6614 27.5116 16.7732 27.8941 16.9863C28.2767 17.1994 28.5985 17.5067 28.829 17.8791L37.718 32.2721C37.9587 32.6615 38.0911 33.1081 38.1015 33.5658C38.1119 34.0235 37.9999 34.4756 37.7771 34.8755C37.5542 35.2754 37.2286 35.6086 36.834 35.8406C36.4393 36.0725 35.9898 36.1949 35.532 36.1951H17.753C17.2953 36.1947 16.8459 36.0722 16.4514 35.8402C16.0569 35.6081 15.7314 35.275 15.5087 34.8751C15.286 34.4752 15.1741 34.0231 15.1845 33.5655C15.1949 33.1079 15.3273 32.6614 15.568 32.2721L24.458 17.8801L24.457 17.8791Z" fill="#FFCA27"/>
<path d="M26.054 22.0132L25.9546 29.3314H24.8012L24.7017 22.0132H26.054ZM25.3779 32.2746C25.1326 32.2746 24.9221 32.1868 24.7465 32.0111C24.5708 31.8355 24.483 31.625 24.483 31.3797C24.483 31.1345 24.5708 30.924 24.7465 30.7483C24.9221 30.5727 25.1326 30.4848 25.3779 30.4848C25.6231 30.4848 25.8336 30.5727 26.0093 30.7483C26.1849 30.924 26.2728 31.1345 26.2728 31.3797C26.2728 31.5421 26.2313 31.6913 26.1485 31.8272C26.0689 31.9631 25.9612 32.0724 25.8253 32.1553C25.6927 32.2348 25.5436 32.2746 25.3779 32.2746Z" fill="white"/>
</g>
</g>
<defs>
<filter id="filter0_d_0_1" x="-44" y="-53.0909" width="271" height="142" filterUnits="userSpaceOnUse" color-interpolation-filters="sRGB">
<feFlood flood-opacity="0" result="BackgroundImageFix"/>
<feColorMatrix in="SourceAlpha" type="matrix" values="0 0 0 0 0 0 0 0 0 0 0 0 0 0 0 0 0 0 127 0" result="hardAlpha"/>
<feOffset dy="1"/>
<feGaussianBlur stdDeviation="5"/>
<feComposite in2="hardAlpha" operator="out"/>
<feColorMatrix type="matrix" values="0 0 0 0 0 0 0 0 0 0 0 0 0 0 0 0 0 0 0.1 0"/>
<feBlend mode="normal" in2="BackgroundImageFix" result="effect1_dropShadow_0_1"/>
<feBlend mode="normal" in="SourceGraphic" in2="effect1_dropShadow_0_1" result="shape"/>
</filter>
<clipPath id="clip0_0_1">
<rect width="1440" height="4337" fill="white" transform="translate(-770 -1303)"/>
</clipPath>
<clipPath id="clip1_0_1">
<rect width="72" height="72" fill="white" transform="translate(-19 -19.0909)"/>
</clipPath>
</defs>
</svg>
