<svg width="37" height="41" viewBox="0 0 37 41" fill="none" xmlns="http://www.w3.org/2000/svg">
<g opacity="0.9">
<path d="M5.88701 0.883057H30.554C32.0567 0.883057 33.4979 1.48001 34.5605 2.54259C35.6231 3.60517 36.22 5.04634 36.22 6.54906V33.2151C36.22 34.7178 35.6231 36.1589 34.5605 37.2215C33.4979 38.2841 32.0567 38.8811 30.554 38.8811H5.88701C4.38429 38.8811 2.94312 38.2841 1.88054 37.2215C0.81796 36.1589 0.221008 34.7178 0.221008 33.2151V6.54906C0.221008 5.04651 0.817823 3.6055 1.88019 2.54294C2.94255 1.48039 4.38446 0.883322 5.88701 0.883057Z" fill="#F98F93"/>
<path d="M5.01803 38.879C3.74486 38.879 2.52383 38.3733 1.62356 37.473C0.723293 36.5727 0.217529 35.3517 0.217529 34.0785C0.217529 32.8054 0.723293 31.5843 1.62356 30.6841C2.52383 29.7838 3.74486 29.278 5.01803 29.278H31.415C31.5295 29.2758 31.644 29.2802 31.758 29.291H31.967C33.0923 29.2889 34.1711 28.8414 34.9674 28.0464C35.7638 27.2513 36.2131 26.1733 36.217 25.048V26.882C36.2172 27.5634 36.072 28.237 35.791 28.8578C35.5101 29.4786 35.1 30.0324 34.588 30.482C35.3186 31.1271 35.8356 31.9791 36.0702 32.925C36.3049 33.8709 36.2461 34.8659 35.9017 35.7776C35.5574 36.6893 34.9437 37.4746 34.1422 38.0291C33.3408 38.5836 32.3896 38.8811 31.415 38.882L5.01803 38.879Z" fill="#E16364"/>
<path d="M33.62 36.8791H5.53603C4.84681 36.8786 4.18595 36.6046 3.69849 36.1173C3.21104 35.6301 2.93683 34.9693 2.93604 34.2801C2.93656 33.5907 3.21066 32.9297 3.69814 32.4422C4.18562 31.9547 4.84663 31.6806 5.53603 31.6801H31.42C32.6671 31.685 33.8666 31.2024 34.7627 30.3351C35.6587 29.4678 36.1803 28.2846 36.216 27.0381V34.0801H36.208C36.215 34.1471 36.215 34.2241 36.215 34.2801C36.2137 34.9683 35.94 35.628 35.4538 36.115C34.9675 36.602 34.3082 36.8767 33.62 36.8791Z" fill="#C64243"/>
<path d="M32.219 35.6821H5.14002C4.60931 35.6821 4.1003 35.4715 3.72475 35.0965C3.3492 34.7215 3.13782 34.2128 3.13702 33.6821C3.13782 33.1515 3.34923 32.6429 3.72481 32.268C4.10039 31.8932 4.60941 31.6828 5.14002 31.6831H31.42C32.425 31.6864 33.4052 31.3713 34.22 30.7831V33.6831C34.2199 33.9457 34.168 34.2058 34.0674 34.4484C33.9668 34.691 33.8193 34.9114 33.6335 35.097C33.4477 35.2826 33.2272 35.4298 32.9845 35.5302C32.7418 35.6306 32.4817 35.6822 32.219 35.6821Z" fill="white"/>
<path d="M5.62103 0.883057H7.22203V29.3231H5.62103V0.883057Z" fill="#E77071"/>
<path d="M7.41603 40.3791C7.31631 40.2105 7.26445 40.0179 7.26603 39.8221V31.6771H15.867V39.8261C15.8669 40.0191 15.816 40.2087 15.7194 40.3758C15.6228 40.543 15.484 40.6817 15.3168 40.7782C15.1495 40.8747 14.9599 40.9255 14.7669 40.9254C14.5738 40.9254 14.3842 40.8746 14.217 40.7781L11.569 39.2501L8.91802 40.7801C8.66544 40.9246 8.36603 40.9637 8.08481 40.8888C7.80359 40.8139 7.56326 40.6301 7.41603 40.3791Z" fill="#FFC411"/>
<path d="M9.07002 32.48C9.28219 32.48 9.48567 32.5643 9.6357 32.7144C9.78573 32.8644 9.87002 33.0679 9.87002 33.28V36.278C9.87002 36.4902 9.78573 36.6937 9.6357 36.8437C9.48567 36.9938 9.28219 37.078 9.07002 37.078C8.85785 37.078 8.65436 36.9938 8.50433 36.8437C8.3543 36.6937 8.27002 36.4902 8.27002 36.278V33.28C8.27002 33.0679 8.3543 32.8644 8.50433 32.7144C8.65436 32.5643 8.85785 32.48 9.07002 32.48Z" fill="white"/>
<path d="M10.569 19.4301L13.847 19.0181C13.887 19.3801 14.041 19.7201 14.286 19.9901C14.49 20.1781 14.76 20.2801 15.038 20.2731C15.2995 20.2719 15.5552 20.196 15.7749 20.0543C15.9947 19.9125 16.1692 19.7108 16.278 19.4731C16.579 18.6731 16.743 17.8271 16.762 16.9731C16.416 17.3431 16.005 17.6451 15.548 17.8641C15.0937 18.0602 14.6027 18.1567 14.108 18.1471C13.6055 18.1566 13.1065 18.0608 12.6432 17.8659C12.1799 17.6709 11.7625 17.3811 11.418 17.0151C11.0537 16.6343 10.769 16.1847 10.5805 15.6926C10.392 15.2005 10.3034 14.6758 10.32 14.1491C10.3113 13.3939 10.5039 12.6501 10.878 11.9941C11.2353 11.3617 11.7723 10.8497 12.421 10.5231C13.1912 10.1659 14.0346 9.99499 14.883 10.0241C15.8728 9.97904 16.8574 10.1898 17.742 10.6361C18.5034 11.0907 19.105 11.7702 19.464 12.5811C19.9358 13.6918 20.1554 14.8933 20.107 16.0991C20.2504 17.7811 19.7695 19.457 18.756 20.8071C18.2769 21.3124 17.6936 21.7075 17.0466 21.9651C16.3996 22.2227 15.7044 22.3367 15.009 22.2991C14.2507 22.3276 13.4937 22.2157 12.776 21.9691C12.2513 21.7655 11.7841 21.437 11.415 21.0121C11.028 20.548 10.7401 20.0096 10.569 19.4301ZM16.642 14.1331C16.6734 13.5868 16.5002 13.0484 16.156 12.6231C16.0117 12.4505 15.8309 12.3121 15.6267 12.2177C15.4225 12.1233 15.2 12.0753 14.975 12.0771C14.7681 12.0737 14.5631 12.1163 14.3746 12.2017C14.1861 12.2871 14.0189 12.4133 13.885 12.5711C13.5688 12.9978 13.4178 13.5246 13.46 14.0541C13.423 14.5961 13.582 15.1341 13.908 15.5681C14.181 15.9071 14.595 16.1011 15.03 16.0941C15.473 16.1021 15.897 15.9141 16.187 15.5801C16.518 15.1711 16.681 14.6511 16.642 14.1271V14.1331ZM21.486 16.1061C21.319 14.433 21.7506 12.7549 22.704 11.3701C23.1907 10.8912 23.7747 10.5227 24.4164 10.2895C25.0581 10.0564 25.7425 9.96417 26.423 10.0191C27.0912 9.998 27.7576 10.0983 28.39 10.3151C28.857 10.4831 29.284 10.7451 29.646 11.0861C29.951 11.3781 30.208 11.7161 30.41 12.0861C30.61 12.4721 30.761 12.8821 30.86 13.3061C31.083 14.2111 31.194 15.1421 31.191 16.0751C31.3184 17.7255 30.9366 19.3754 30.097 20.8021C29.6377 21.3374 29.0553 21.7534 28.3999 22.0143C27.7445 22.2752 27.0356 22.3732 26.334 22.3001C25.5003 22.335 24.6702 22.1715 23.912 21.8231C23.2912 21.5003 22.7681 21.0173 22.397 20.4241C22.065 19.8702 21.8376 19.2601 21.726 18.6241C21.5596 17.7972 21.4782 16.9555 21.483 16.1121L21.486 16.1061ZM24.756 16.1061C24.687 17.155 24.8236 18.2074 25.158 19.2041C25.334 19.6941 25.794 20.0241 26.315 20.0341C26.64 20.0391 26.955 19.9121 27.186 19.6841C27.471 19.3731 27.659 18.9861 27.729 18.5701C27.8679 17.7881 27.9266 16.994 27.904 16.2001C27.9773 15.1246 27.8404 14.0452 27.501 13.0221C27.4077 12.7803 27.2428 12.5727 27.0283 12.4271C26.8139 12.2815 26.5602 12.2047 26.301 12.2071C26.0418 12.2027 25.7879 12.2808 25.5759 12.4299C25.3638 12.5791 25.2046 12.7916 25.121 13.0371C24.8167 14.0338 24.6928 15.0768 24.755 16.1171L24.756 16.1061Z" fill="#E06364"/>
<path d="M10.569 17.3591L13.847 16.946C13.887 17.308 14.041 17.648 14.286 17.918C14.49 18.107 14.76 18.208 15.038 18.201C15.2992 18.1998 15.5546 18.1238 15.774 17.982C15.9934 17.8403 16.1676 17.6387 16.276 17.4011C16.578 16.6011 16.742 15.7561 16.761 14.9011C16.415 15.2711 16.003 15.5741 15.547 15.7931C15.0928 15.9892 14.6017 16.0857 14.107 16.076C13.6042 16.0856 13.105 15.9898 12.6415 15.7946C12.178 15.5995 11.7606 15.3094 11.416 14.9431C11.0519 14.5622 10.7674 14.1126 10.579 13.6205C10.3907 13.1284 10.3023 12.6037 10.319 12.077C10.3104 11.3222 10.503 10.5788 10.877 9.92305C11.2343 9.29069 11.7713 8.77871 12.42 8.45205C13.1901 8.09458 14.0335 7.92329 14.882 7.95205C15.8715 7.9076 16.8558 8.11871 17.74 8.56505C18.5016 9.01926 19.1036 9.69845 19.463 10.5091C19.9348 11.6198 20.1544 12.8213 20.106 14.0271C20.2494 15.7091 19.7685 17.385 18.755 18.7351C18.2759 19.2409 17.6926 19.6364 17.0454 19.8944C16.3982 20.1524 15.7027 20.2666 15.007 20.229C14.2487 20.2575 13.4917 20.1457 12.774 19.8991C12.2489 19.6956 11.7814 19.3671 11.412 18.9421C11.0258 18.4775 10.7389 17.9388 10.569 17.3591ZM16.642 12.062C16.6734 11.5158 16.5002 10.9774 16.156 10.552C16.0117 10.3795 15.8309 10.2411 15.6267 10.1467C15.4225 10.0523 15.2 10.0043 14.975 10.0061C14.7681 10.0027 14.563 10.0452 14.3745 10.1306C14.186 10.216 14.0189 10.3422 13.885 10.5C13.569 10.9265 13.418 11.4529 13.46 11.982C13.4231 12.5244 13.5821 13.062 13.908 13.497C14.181 13.835 14.595 14.0291 15.03 14.0231C15.473 14.0311 15.897 13.8431 16.187 13.5081C16.518 13.1001 16.681 12.58 16.642 12.056V12.062ZM21.486 14.0361C21.319 12.363 21.7506 10.6849 22.704 9.30005C23.1907 8.82117 23.7747 8.45265 24.4164 8.21953C25.0581 7.98641 25.7425 7.89417 26.423 7.94905C27.0912 7.92799 27.7576 8.02828 28.39 8.24505C28.857 8.41305 29.284 8.67505 29.646 9.01605C29.951 9.30805 30.208 9.64605 30.41 10.0161C30.61 10.4021 30.761 10.812 30.86 11.236C31.083 12.141 31.194 13.0721 31.191 14.0051C31.3189 15.6562 30.937 17.3068 30.097 18.7341C29.6376 19.2692 29.0552 19.685 28.3998 19.9457C27.7444 20.2065 27.0355 20.3044 26.334 20.231C25.5003 20.266 24.6702 20.1025 23.912 19.7541C23.2913 19.4316 22.7682 18.9489 22.397 18.356C22.065 17.8022 21.8375 17.1921 21.726 16.556C21.5595 15.7295 21.4781 14.8882 21.483 14.045L21.486 14.035V14.0361ZM24.756 14.0361C24.687 15.085 24.8236 16.1374 25.158 17.134C25.334 17.624 25.794 17.9541 26.315 17.9641C26.64 17.9691 26.955 17.8421 27.186 17.6141C27.471 17.3031 27.659 16.916 27.729 16.5C27.8679 15.7181 27.9266 14.9239 27.904 14.1301C27.9773 13.0546 27.8404 11.9752 27.501 10.952C27.4076 10.7103 27.2428 10.5027 27.0283 10.3571C26.8139 10.2115 26.5602 10.1347 26.301 10.1371C26.0418 10.1327 25.7879 10.2108 25.5759 10.3599C25.3638 10.5091 25.2046 10.7216 25.121 10.9671C24.8167 11.9638 24.6928 13.0068 24.755 14.0471L24.756 14.0361Z" fill="white"/>
</g>
</svg>
