<svg width="16" height="17" viewBox="0 0 16 17" fill="none" xmlns="http://www.w3.org/2000/svg">
<g clip-path="url(#clip0_247_551)">
<path d="M8.00016 1.83333C11.6821 1.83333 14.6668 4.8181 14.6668 8.5C14.6668 12.1819 11.6821 15.1667 8.00016 15.1667C4.31826 15.1667 1.3335 12.1819 1.3335 8.5C1.3335 4.8181 4.31826 1.83333 8.00016 1.83333ZM8.00016 2.94444C4.93191 2.94444 2.44461 5.43175 2.44461 8.5C2.44461 11.5682 4.93191 14.0556 8.00016 14.0556C11.0684 14.0556 13.5557 11.5682 13.5557 8.5C13.5557 5.43175 11.0684 2.94444 8.00016 2.94444ZM8.00016 11.2778C8.4604 11.2778 8.8335 11.6509 8.8335 12.1111C8.8335 12.5713 8.4604 12.9444 8.00016 12.9444C7.53993 12.9444 7.16683 12.5713 7.16683 12.1111C7.16683 11.6509 7.53993 11.2778 8.00016 11.2778ZM8.00016 4.61111C9.22746 4.61111 10.2224 5.60603 10.2224 6.83333C10.2224 7.64504 9.98708 8.09966 9.38466 8.73101L9.09123 9.0305C8.67184 9.4678 8.55572 9.70344 8.55572 10.1667C8.55572 10.4735 8.30699 10.7222 8.00016 10.7222C7.69334 10.7222 7.44461 10.4735 7.44461 10.1667C7.44461 9.35496 7.67992 8.90034 8.28233 8.26899L8.57576 7.9695C8.99515 7.5322 9.11127 7.29656 9.11127 6.83333C9.11127 6.21968 8.61381 5.72222 8.00016 5.72222C7.38651 5.72222 6.88905 6.21968 6.88905 6.83333C6.88905 7.14016 6.64032 7.38889 6.3335 7.38889C6.02667 7.38889 5.77794 7.14016 5.77794 6.83333C5.77794 5.60603 6.77286 4.61111 8.00016 4.61111Z" fill="#212121"/>
</g>
<defs>
<clipPath id="clip0_247_551">
<rect width="16" height="16" fill="white" transform="translate(0 0.5)"/>
</clipPath>
</defs>
</svg>
