<svg width="16" height="17" viewBox="0 0 16 17" fill="none" xmlns="http://www.w3.org/2000/svg">
<path d="M6.10465 14.3476V12.3031C6.10464 11.7831 6.52858 11.3606 7.05385 11.3571H8.9779C9.50567 11.3571 9.93351 11.7806 9.93351 12.3031V14.354C9.93339 14.7955 10.2893 15.1563 10.7352 15.1667H12.0179C13.2966 15.1667 14.3332 14.1405 14.3332 12.8746V7.05857C14.3263 6.56056 14.0902 6.09291 13.6918 5.7887L9.30499 2.29021C8.53646 1.68105 7.44397 1.68105 6.67545 2.29021L2.30785 5.79505C1.90801 6.09803 1.67143 6.56645 1.6665 7.06492V12.8746C1.6665 14.1405 2.70309 15.1667 3.98178 15.1667H5.26448C5.72141 15.1667 6.09182 14.8 6.09182 14.3476" stroke="#12D3BF" stroke-linecap="round" stroke-linejoin="round"/>
</svg>
