<svg width="462" height="412" viewBox="0 0 462 412" fill="none" xmlns="http://www.w3.org/2000/svg">
<g clip-path="url(#clip0_2_43)">
<path d="M124.876 161.66L144.516 172.973L191.292 146.045L171.798 134.667L124.876 161.66Z" fill="url(#paint0_linear_2_43)"/>
<path d="M173.393 54.394L129.693 79.567L144.518 88.097L175.855 62.569V55.815C175.856 55.5267 175.78 55.2433 175.636 54.9935C175.492 54.7437 175.285 54.5362 175.035 54.392C174.786 54.2478 174.502 54.1719 174.214 54.1721C173.926 54.1723 173.642 54.2495 173.393 54.394Z" fill="#12D3BF"/>
<path d="M129.682 81.91L173.145 56.878L188.789 65.905L145.343 90.93L129.682 81.91Z" fill="#B8FFF7"/>
<path d="M189.973 63.19C189.706 62.985 189.387 62.8594 189.053 62.8273C188.718 62.7953 188.381 62.8583 188.08 63.009L144.516 88.097L129.691 79.567L173.391 54.394C173.604 54.2703 173.844 54.1977 174.09 54.1817C174.336 54.1657 174.582 54.2069 174.81 54.302V54.292L172.686 53.192C172.146 52.81 171.441 52.759 170.853 53.06L124.875 79.54V156.793L142.099 146.871V166.743L189.117 139.66C189.549 139.411 189.908 139.053 190.158 138.621C190.407 138.189 190.539 137.7 190.539 137.201L192.007 64.329L189.973 63.19Z" fill="#2DEAD6"/>
<path d="M144.516 90.876L124.876 79.563V156.816L144.516 168.129V90.876Z" fill="#12D3BF"/>
<path d="M141.845 95.047L126.7 86.327V92.227L141.842 100.949L141.845 95.047ZM141.845 102.85L126.7 94.127V96.173L141.842 104.893L141.845 102.85ZM141.845 106.654L126.7 97.934V99.98L141.842 108.7L141.845 106.654ZM141.845 158.08L126.7 149.36V151.405L141.842 160.127L141.845 158.08Z" fill="white"/>
<path d="M190.497 64.39L144.517 90.875V168.128L191.535 141.045C191.967 140.796 192.326 140.437 192.576 140.006C192.825 139.574 192.957 139.084 192.957 138.585V65.813C192.957 65.5251 192.882 65.2423 192.738 64.9929C192.594 64.7435 192.387 64.5363 192.138 64.3922C191.889 64.2481 191.606 64.1721 191.318 64.1719C191.03 64.1717 190.747 64.2473 190.498 64.391L190.497 64.39Z" fill="#12D3BF"/>
<path d="M160.044 170.5L179.684 181.813L226.46 154.885L206.97 143.512L160.044 170.5Z" fill="url(#paint1_linear_2_43)"/>
<path d="M208.562 60.07L164.862 85.243L179.687 93.773L211.02 68.25V61.496C211.021 61.2079 210.946 60.9246 210.802 60.6748C210.658 60.425 210.452 60.2174 210.202 60.0729C209.953 59.9284 209.67 59.8522 209.382 59.8519C209.094 59.8515 208.811 59.9271 208.561 60.071L208.562 60.07Z" fill="#8DC5C0"/>
<path d="M164.85 87.585L208.308 62.552L223.953 71.579L180.507 96.604L164.85 87.585Z" fill="#CBF4F0"/>
<path d="M225.14 68.867C224.596 68.447 223.86 68.377 223.247 68.687L179.683 93.775L164.858 85.245L208.558 60.072C208.772 59.949 209.011 59.8768 209.257 59.8608C209.503 59.8449 209.749 59.8857 209.977 59.98V59.97L207.853 58.87C207.313 58.488 206.608 58.437 206.02 58.738L160.044 85.22V162.473L177.268 152.553V172.425L224.286 145.342C224.718 145.093 225.077 144.734 225.327 144.303C225.576 143.871 225.708 143.381 225.708 142.882L227.176 70.01L225.141 68.868L225.14 68.867Z" fill="#A4E9E2"/>
<path d="M179.685 96.553L160.045 85.24V162.493L179.685 173.806V96.553Z" fill="#8DC5C0"/>
<path d="M177.014 100.725L161.874 92.003V97.903L177.014 106.625V100.725ZM177.014 108.525L161.874 99.803V101.849L177.014 110.569V108.525ZM177.014 112.331L161.874 103.611V105.656L177.014 114.378V112.331ZM177.014 163.754L161.874 155.032V157.078L177.014 165.8V163.754Z" fill="white"/>
<path d="M225.662 70.067L179.682 96.552V173.805L226.7 146.722C227.132 146.473 227.491 146.114 227.741 145.683C227.99 145.251 228.122 144.761 228.122 144.262V71.488C228.122 71.2002 228.046 70.9175 227.902 70.6682C227.759 70.4189 227.552 70.2119 227.303 70.0679C227.053 69.9239 226.771 69.848 226.483 69.8479C226.195 69.8477 225.911 69.9233 225.662 70.067Z" fill="#A3E0DA"/>
<path d="M270.387 174.61L435.529 269.955L320.136 335.485C317.482 336.992 314.228 336.98 311.586 335.455L157.229 246.337C156.572 245.957 156.027 245.411 155.649 244.753C155.27 244.095 155.073 243.349 155.075 242.59C155.078 241.831 155.281 241.086 155.664 240.431C156.047 239.775 156.596 239.233 157.256 238.858L270.387 174.61Z" fill="url(#paint2_linear_2_43)"/>
<path d="M439.402 120.122V243.552L435.529 245.702L274.259 148.207L272.127 24.652L275.747 22.639C276.753 22.016 278.017 21.991 279.047 22.574L435.1 112.674C436.408 113.429 437.493 114.514 438.248 115.822C439.003 117.129 439.401 118.612 439.401 120.122H439.402Z" fill="#8DC5C0"/>
<path d="M435.528 122.273V245.703L270.386 150.358V27.488C270.386 26.9277 270.533 26.3772 270.813 25.892C271.093 25.4067 271.496 25.0037 271.981 24.7237C272.467 24.4436 273.017 24.2962 273.577 24.2965C274.138 24.2967 274.688 24.4445 275.173 24.725L431.226 114.825C432.534 115.58 433.62 116.665 434.375 117.973C435.13 119.28 435.528 120.763 435.528 122.273Z" fill="#CBF4F0"/>
<path d="M427.502 120.263V233.018L275.17 145.274V32.518L427.502 120.263Z" fill="#12D3BF"/>
<path d="M404.578 114.147V126.003L318.305 76.303V64.453L404.578 114.147Z" fill="#25EAD5"/>
<path d="M320.682 74.306V69.046L402.2 116V121.26L320.682 74.306Z" fill="#12B3A2"/>
<path opacity="0.45" d="M377.68 171.625L407.363 188.845C407.623 189.042 407.933 189.162 408.257 189.192C408.582 189.222 408.909 189.161 409.2 189.015C409.492 188.87 409.737 188.646 409.908 188.368C410.08 188.091 410.17 187.771 410.169 187.445V152.775C410.155 152.342 410.031 151.92 409.807 151.549C409.583 151.178 409.268 150.871 408.892 150.657L379.209 133.437C378.949 133.24 378.639 133.12 378.315 133.09C377.99 133.06 377.663 133.121 377.372 133.267C377.08 133.412 376.835 133.636 376.664 133.914C376.492 134.191 376.402 134.511 376.403 134.837V169.511C376.433 170.389 376.916 171.191 377.68 171.625Z" fill="#1AAA9B"/>
<g opacity="0.25">
<path d="M407.924 156.85L378.649 139.93" stroke="white" stroke-width="0.846" stroke-miterlimit="10" stroke-linecap="round"/>
<path d="M407.924 160.505L378.649 143.585" stroke="white" stroke-width="0.846" stroke-miterlimit="10" stroke-linecap="round"/>
<path d="M407.924 164.16L378.649 147.24" stroke="white" stroke-width="0.846" stroke-miterlimit="10" stroke-linecap="round"/>
<path d="M407.924 167.816L378.649 150.896" stroke="white" stroke-width="0.846" stroke-miterlimit="10" stroke-linecap="round"/>
<path d="M407.924 171.472L378.649 154.552" stroke="white" stroke-width="0.846" stroke-miterlimit="10" stroke-linecap="round"/>
<path d="M407.924 175.128L378.649 158.208" stroke="white" stroke-width="0.846" stroke-miterlimit="10" stroke-linecap="round"/>
<path d="M407.924 178.784L378.649 161.864" stroke="white" stroke-width="0.846" stroke-miterlimit="10" stroke-linecap="round"/>
<path d="M407.924 182.44L386.149 169.854" stroke="white" stroke-width="0.846" stroke-miterlimit="10" stroke-linecap="round"/>
</g>
<path d="M270.387 155.09L435.53 245.7V250.433L320.14 315.966C318.836 316.707 317.361 317.094 315.861 317.089C314.36 317.084 312.888 316.686 311.589 315.936L157.227 226.816C156.573 226.443 156.029 225.903 155.651 225.252C155.272 224.6 155.073 223.86 155.073 223.107V218.335L270.387 155.09Z" fill="#B4DAE1"/>
<path d="M270.387 150.357L435.529 245.705L320.136 311.232C318.832 311.973 317.357 312.36 315.857 312.355C314.356 312.35 312.884 311.952 311.585 311.202L157.228 222.082C156.571 221.702 156.025 221.156 155.647 220.498C155.269 219.84 155.071 219.093 155.074 218.334C155.076 217.575 155.279 216.83 155.663 216.175C156.046 215.519 156.595 214.977 157.255 214.602L270.387 150.357Z" fill="url(#paint3_linear_2_43)"/>
<path opacity="0.45" d="M211.373 200.317L273.74 164.9L410.17 243.668L347.803 279.085L211.373 200.317Z" fill="#B4DAE1"/>
<path d="M355.043 222.834L349.373 219.56L356.196 215.686L361.866 218.96L355.043 222.834ZM382.493 241.847L263.513 173.153L256.69 177.027L375.67 245.721L382.493 241.847ZM354.543 214.732L348.873 211.458L342.05 215.332L347.72 218.606L354.543 214.732ZM347.22 210.504L341.548 207.229L334.726 211.103L340.396 214.377L347.22 210.504ZM281.312 172.452L273.082 167.702L266.262 171.577L274.49 176.327L281.312 172.452ZM376.512 227.416L370.842 224.142L364.02 228.017L369.69 231.291L376.512 227.416ZM383.835 231.644L378.165 228.37L371.343 232.244L377.013 235.518L383.835 231.644ZM369.189 223.188L363.519 219.914L356.696 223.788L362.368 227.063L369.189 223.188ZM295.959 180.908L290.289 177.634L283.467 181.508L289.139 184.783L295.959 180.908ZM303.282 185.136L297.612 181.862L290.79 185.737L296.46 189.011L303.282 185.136ZM339.897 206.276L334.227 203.002L327.405 206.876L333.075 210.15L339.897 206.276ZM282.965 173.406L276.143 177.28L281.813 180.554L288.635 176.676L282.965 173.406ZM310.605 189.364L304.935 186.09L298.113 189.965L303.783 193.239L310.605 189.364ZM317.928 193.592L312.258 190.318L305.436 194.192L311.106 197.466L317.928 193.592ZM332.574 202.048L326.904 198.774L320.081 202.649L325.751 205.923L332.574 202.048ZM325.251 197.82L319.581 194.546L312.759 198.421L318.429 201.695L325.251 197.82ZM392.081 236.404L385.489 232.598L378.666 236.476L385.256 240.281L392.081 236.404ZM344.049 263.732L337.375 267.532L348.458 273.932L355.281 270.058L343.905 263.49L344.049 263.732ZM342.491 259.498L358.031 268.47L364.854 264.596L349.314 255.626L342.491 259.498ZM230.541 198.028L225.229 194.961L218.406 198.835L223.719 201.902L230.541 198.028ZM347.618 251.475L367.602 263.012L374.424 259.138L354.44 247.6L347.618 251.475ZM342.545 262.689L336.121 258.979L329.299 262.854L335.723 266.564L342.545 262.689ZM393.733 237.352L386.911 241.226L396.311 246.656L403.134 242.781L393.733 237.352ZM377.325 246.675L386.745 252.113L393.567 248.239L384.147 242.801L377.325 246.675ZM362.369 249.018L377.169 257.565L383.992 253.691L369.192 245.144L362.369 249.018ZM246.197 214.875L253.02 211.001L232.193 198.977L225.371 202.851L246.197 214.875ZM261.007 215.613L254.672 211.955L247.849 215.829L254.186 219.489L261.007 215.613ZM367.537 244.185L253.937 178.601L247.115 182.475L360.715 248.06L367.537 244.185ZM347.664 254.669L234.798 189.509L227.976 193.383L340.836 258.543L347.664 254.669ZM352.791 246.651L244.37 184.057L237.548 187.931L345.965 250.526L352.791 246.651ZM326.301 253.313L278.636 225.795L271.814 229.669L319.474 257.186L326.301 253.313ZM269 220.23L262.664 216.572L255.842 220.447L262.177 224.104L269 220.23ZM334.474 258.03L327.954 254.266L321.132 258.14L327.652 261.904L334.474 258.03ZM276.989 224.84L270.652 221.182L263.83 225.056L270.167 228.716L276.989 224.84Z" fill="url(#paint4_linear_2_43)"/>
<path d="M242.753 223.18L278.053 243.562C278.35 243.734 278.533 244.052 278.531 244.394C278.529 244.736 278.345 245.054 278.047 245.224L258.474 256.339C257.584 256.844 256.494 256.841 255.608 256.329L220.308 235.947C220.011 235.775 219.828 235.457 219.83 235.115C219.832 234.773 220.016 234.455 220.314 234.285L239.884 223.17C240.784 222.664 241.866 222.668 242.752 223.18H242.753Z" fill="#F7F5FA"/>
<path d="M278.056 244.243L242.756 223.861C241.87 223.349 240.779 223.346 239.89 223.851L220.317 234.966C220.125 235.066 219.979 235.249 219.903 235.456C219.819 235.243 219.815 235.008 219.891 234.792C219.967 234.577 220.118 234.396 220.317 234.283L239.9 223.17C240.8 222.665 241.88 222.67 242.766 223.18L278.066 243.562C278.263 243.676 278.412 243.857 278.487 244.071C278.562 244.286 278.557 244.52 278.474 244.732C278.399 244.526 278.254 244.352 278.066 244.242L278.056 244.243Z" fill="#B4BBE1"/>
<path d="M351.336 71.988L361.451 77.828" stroke="#B4BBE1" stroke-miterlimit="10" stroke-linecap="round"/>
<path d="M366.25 80.035C366.486 80.567 366.25 80.998 365.716 80.998C365.42 80.974 365.135 80.8724 364.891 80.7033C364.646 80.5343 364.451 80.3037 364.324 80.035C364.087 79.503 364.324 79.072 364.859 79.072C365.155 79.0961 365.439 79.1978 365.684 79.3669C365.928 79.536 366.123 79.7664 366.25 80.035Z" fill="#B4BBE1"/>
<path style="mix-blend-mode:multiply" d="M371.963 105.18L399.863 117.264V225.35L311.498 277.43L286.758 247.388L371.963 105.18Z" fill="url(#paint5_linear_2_43)"/>
<path d="M333.345 222.79L364.233 240.89L364.279 240.496C363.391 239.855 362.671 239.01 362.178 238.033C361.686 237.055 361.436 235.973 361.45 234.878V230.361C361.44 227.138 359.897 221.661 357.63 220.091C357.24 219.818 356.826 219.577 356.396 219.371L356.362 219.356C353.396 217.936 349.902 218.189 347.172 220.021C345.18 221.317 334.987 221.113 333.346 222.781L333.345 222.79Z" fill="#B4D5E1"/>
<path style="mix-blend-mode:multiply" opacity="0.35" d="M401.984 123.176L324.251 78.356L309.366 86.879H309.372C307.929 87.6636 306.725 88.8224 305.885 90.2335C305.045 91.6446 304.601 93.2559 304.599 94.898V185.428C304.593 188.129 303.908 190.785 302.607 193.152L282.439 181.426C282.02 181.128 281.573 180.871 281.104 180.659L281.07 180.635C279.75 180.015 278.3 179.717 276.84 179.767C275.098 179.834 273.408 180.377 271.954 181.339C262.869 187.204 257.352 197.253 257.281 208.067V208.31C257.253 213.179 256.066 217.971 253.817 222.289C251.569 226.608 248.325 230.329 244.353 233.145L226.146 246.121L303.492 291.113L321.699 278.137C329.782 272.373 334.929 262.791 334.634 253.3V253.065C334.643 247.979 335.882 242.97 338.244 238.465C340.826 233.537 344.633 229.357 349.299 226.327C350.641 225.427 352.195 224.892 353.807 224.776C355.419 224.659 357.033 224.965 358.491 225.662L358.525 225.678C358.989 225.906 359.42 226.195 359.808 226.536C363.134 229.516 363.568 233.436 363.578 236.67V241.186C363.58 242.462 363.932 243.714 364.596 244.803C365.261 245.893 366.212 246.78 367.345 247.366C368.479 247.953 369.752 248.217 371.025 248.129C372.298 248.042 373.523 247.607 374.566 246.871H374.574C380.894 242.928 381.944 235.841 381.944 230.426V139.886C381.951 136.388 383.952 133.201 387.1 131.686V131.708L401.984 123.176Z" fill="url(#paint6_linear_2_43)"/>
<path d="M399.86 116.808L322.127 71.988L307.242 80.511H307.248C305.805 81.2956 304.601 82.4544 303.761 83.8655C302.921 85.2766 302.477 86.8879 302.475 88.53V179.06C302.469 181.761 301.784 184.417 300.483 186.784L280.315 175.058C279.896 174.76 279.449 174.503 278.98 174.291L278.946 174.267C277.626 173.647 276.176 173.349 274.716 173.399C272.974 173.466 271.284 174.009 269.83 174.971C260.745 180.836 255.228 190.885 255.157 201.699V201.942C255.129 206.811 253.942 211.603 251.693 215.921C249.445 220.24 246.201 223.961 242.229 226.777L224.022 239.753L301.368 284.745L319.575 271.769C327.658 266.005 332.805 256.423 332.51 246.932V246.697C332.519 241.611 333.758 236.602 336.12 232.097C338.702 227.169 342.509 222.989 347.175 219.959C348.517 219.059 350.071 218.524 351.683 218.408C353.295 218.291 354.909 218.597 356.367 219.294L356.401 219.31C356.865 219.538 357.296 219.827 357.684 220.168C361.01 223.148 361.444 227.068 361.454 230.302V234.818C361.456 236.094 361.808 237.346 362.472 238.435C363.137 239.525 364.088 240.412 365.221 240.998C366.355 241.585 367.628 241.849 368.901 241.761C370.174 241.674 371.399 241.239 372.442 240.503H372.45C378.77 236.56 379.82 229.473 379.82 224.058V133.518C379.827 130.02 381.828 126.833 384.976 125.318V125.34L399.86 116.808Z" fill="white"/>
<path d="M306.143 203.534L302.599 201.477C303.546 202.504 304.781 203.221 306.143 203.534Z" fill="white"/>
<path d="M224.023 239.753V240.509L301.369 285.455V284.742L224.023 239.753Z" fill="#C5DEE8"/>
<path d="M304.608 114.768L349.721 140.978C349.797 141.018 349.889 141.018 349.963 140.973C350.037 140.928 350.083 140.849 350.083 140.773V139.155C350.084 139.005 350.005 138.867 349.876 138.792L304.74 112.569C304.662 112.526 304.567 112.529 304.49 112.573C304.413 112.617 304.366 112.701 304.366 112.79V114.357C304.365 114.531 304.466 114.692 304.606 114.779L304.608 114.768Z" fill="url(#paint7_linear_2_43)"/>
<path d="M304.608 110.037L349.721 136.247C349.797 136.289 349.889 136.287 349.964 136.243C350.039 136.199 350.084 136.119 350.084 136.033V134.415C350.085 134.265 350.006 134.127 349.877 134.052L304.742 107.829C304.664 107.786 304.569 107.789 304.492 107.833C304.415 107.877 304.368 107.961 304.368 108.05V109.618C304.367 109.791 304.468 109.95 304.608 110.037Z" fill="url(#paint8_linear_2_43)"/>
<path d="M304.608 119.502L349.721 145.712C349.797 145.754 349.889 145.752 349.964 145.708C350.039 145.664 350.084 145.584 350.084 145.498V143.88C350.085 143.73 350.006 143.592 349.877 143.517L304.741 117.294C304.663 117.251 304.568 117.254 304.491 117.298C304.414 117.342 304.367 117.426 304.367 117.515V119.082C304.366 119.255 304.467 119.416 304.607 119.504L304.608 119.502Z" fill="url(#paint9_linear_2_43)"/>
<path d="M304.608 124.235L349.721 150.445C349.797 150.485 349.889 150.485 349.963 150.44C350.037 150.395 350.083 150.316 350.083 150.24V148.622C350.083 148.549 350.064 148.477 350.028 148.413C349.992 148.349 349.939 148.296 349.876 148.259L304.74 122.036C304.662 121.993 304.567 121.996 304.49 122.04C304.413 122.084 304.366 122.168 304.366 122.257V123.824C304.365 123.997 304.466 124.158 304.606 124.246L304.608 124.235Z" fill="url(#paint10_linear_2_43)"/>
<path d="M304.608 128.968L349.721 155.178C349.797 155.22 349.891 155.218 349.964 155.174C350.037 155.13 350.084 155.049 350.084 154.962V153.344C350.085 153.194 350.006 153.056 349.877 152.981L304.741 126.758C304.663 126.715 304.568 126.718 304.491 126.762C304.414 126.806 304.367 126.89 304.367 126.979V128.546C304.366 128.72 304.467 128.881 304.607 128.969L304.608 128.968Z" fill="url(#paint11_linear_2_43)"/>
<path d="M349.88 184.818L336.228 176.913C336.197 176.895 336.162 176.886 336.127 176.886C336.091 176.886 336.056 176.896 336.025 176.914C335.995 176.933 335.97 176.959 335.953 176.99C335.935 177.021 335.927 177.056 335.928 177.092V178.719C335.927 178.812 335.951 178.904 335.998 178.985C336.044 179.066 336.111 179.133 336.191 179.18L349.718 187.02C349.795 187.06 349.888 187.058 349.962 187.013C350.036 186.968 350.082 186.886 350.08 186.799V185.181C350.079 185.034 350.004 184.898 349.88 184.818Z" fill="url(#paint12_linear_2_43)"/>
<path d="M304.368 158.823V160.387C304.368 160.472 304.389 160.556 304.431 160.63C304.473 160.704 304.534 160.766 304.607 160.81L333.667 177.72C333.747 177.763 333.841 177.76 333.919 177.715C333.997 177.67 334.043 177.585 334.043 177.495V175.94C334.044 175.756 333.947 175.586 333.788 175.494L304.745 158.6C304.707 158.577 304.663 158.565 304.618 158.565C304.573 158.565 304.53 158.577 304.491 158.6C304.453 158.623 304.421 158.655 304.399 158.694C304.378 158.733 304.367 158.778 304.368 158.823Z" fill="url(#paint13_linear_2_43)"/>
<path d="M304.608 156.076L352.774 184.076C352.85 184.118 352.942 184.116 353.017 184.072C353.092 184.028 353.137 183.948 353.137 183.862V182.244C353.137 182.171 353.118 182.099 353.082 182.035C353.046 181.971 352.994 181.918 352.931 181.881L304.741 153.868C304.663 153.825 304.568 153.828 304.491 153.872C304.414 153.916 304.367 154 304.367 154.089V155.656C304.366 155.829 304.457 155.989 304.605 156.076H304.608Z" fill="url(#paint14_linear_2_43)"/>
<path d="M304.608 151.343L349.721 177.553C349.797 177.595 349.889 177.593 349.964 177.549C350.039 177.505 350.084 177.425 350.084 177.339V175.721C350.085 175.571 350.006 175.433 349.877 175.358L304.741 149.135C304.663 149.092 304.568 149.095 304.491 149.139C304.414 149.183 304.367 149.267 304.367 149.356V150.928C304.368 151.1 304.459 151.258 304.607 151.345L304.608 151.343Z" fill="url(#paint15_linear_2_43)"/>
<path d="M304.608 146.61L349.721 172.82C349.797 172.862 349.889 172.86 349.964 172.816C350.039 172.772 350.084 172.692 350.084 172.606V170.988C350.084 170.915 350.065 170.843 350.029 170.779C349.993 170.715 349.94 170.662 349.877 170.625L304.74 144.4C304.662 144.357 304.567 144.36 304.49 144.404C304.413 144.448 304.366 144.532 304.366 144.621V146.188C304.365 146.362 304.466 146.523 304.606 146.61H304.608Z" fill="url(#paint16_linear_2_43)"/>
<path d="M304.608 179.04L349.721 205.25C349.797 205.29 349.889 205.29 349.963 205.245C350.037 205.2 350.083 205.121 350.083 205.045V203.427C350.084 203.277 350.005 203.139 349.876 203.064L304.74 176.83C304.662 176.787 304.567 176.79 304.49 176.834C304.413 176.878 304.366 176.962 304.366 177.051V178.618C304.365 178.791 304.466 178.952 304.606 179.04H304.608Z" fill="url(#paint17_linear_2_43)"/>
<path d="M304.317 183.327L356.935 213.784C357.128 213.901 357.19 213.784 357.213 213.697V213.689L357.253 212.589V211.973C357.261 211.83 357.203 211.691 357.099 211.593C357.088 211.587 357.078 211.579 357.068 211.571L304.495 181.136C304.423 181.096 304.335 181.098 304.265 181.139C304.195 181.18 304.15 181.254 304.147 181.336L303.985 182.606C303.962 182.746 303.981 182.889 304.041 183.018C304.1 183.146 304.196 183.255 304.317 183.328V183.327Z" fill="url(#paint18_linear_2_43)"/>
<path d="M303.17 186.91L355.977 217.482C356.029 217.511 356.086 217.527 356.146 217.531C356.205 217.535 356.264 217.525 356.319 217.503C356.374 217.481 356.423 217.447 356.464 217.404C356.504 217.36 356.534 217.309 356.552 217.252C356.67 216.869 356.77 216.481 356.852 216.088C356.899 215.885 356.808 215.674 356.628 215.568L303.752 184.968C303.679 184.926 303.592 184.92 303.512 184.952C303.432 184.984 303.375 185.049 303.352 185.129C303.231 185.5 303.097 185.867 302.952 186.229C302.899 186.349 302.892 186.485 302.933 186.61C302.973 186.735 303.057 186.842 303.17 186.909V186.91Z" fill="url(#paint19_linear_2_43)"/>
<path d="M304.608 174.307L349.721 200.517C349.797 200.559 349.889 200.557 349.964 200.513C350.039 200.469 350.084 200.389 350.084 200.303V198.685C350.084 198.612 350.065 198.54 350.029 198.476C349.993 198.412 349.94 198.359 349.877 198.322L304.742 172.102C304.664 172.059 304.569 172.062 304.492 172.106C304.415 172.15 304.368 172.234 304.368 172.323V173.89C304.368 174.062 304.458 174.222 304.608 174.31V174.307Z" fill="url(#paint20_linear_2_43)"/>
<path d="M304.608 169.574L349.721 195.784C349.797 195.826 349.889 195.824 349.964 195.78C350.039 195.736 350.084 195.656 350.084 195.57V193.952C350.084 193.879 350.065 193.807 350.029 193.743C349.993 193.679 349.94 193.626 349.877 193.589L304.741 167.366C304.663 167.323 304.568 167.326 304.491 167.37C304.414 167.414 304.367 167.498 304.367 167.587V169.154C304.366 169.328 304.467 169.489 304.607 169.576L304.608 169.574Z" fill="url(#paint21_linear_2_43)"/>
<path d="M349.88 188.855L331.273 178.075C331.223 178.047 331.16 178.048 331.109 178.078C331.058 178.108 331.029 178.162 331.029 178.22V180.02C331.028 180.137 331.089 180.245 331.191 180.304L349.719 191.044C349.794 191.087 349.887 191.086 349.962 191.042C350.037 190.998 350.082 190.917 350.082 190.832V189.214C350.083 189.068 350.007 188.932 349.882 188.856L349.88 188.855Z" fill="url(#paint22_linear_2_43)"/>
<path d="M304.368 162.853V164.423C304.369 164.593 304.46 164.751 304.608 164.838L328.828 178.938C328.86 178.955 328.895 178.963 328.931 178.962C328.967 178.961 329.002 178.951 329.033 178.933C329.064 178.914 329.09 178.888 329.108 178.857C329.126 178.826 329.136 178.791 329.136 178.755V177.03C329.136 176.907 329.071 176.792 328.964 176.73L304.747 162.63C304.667 162.586 304.572 162.587 304.494 162.633C304.416 162.679 304.368 162.763 304.368 162.853Z" fill="url(#paint23_linear_2_43)"/>
<path d="M354.808 189.9L376.624 202.58C376.7 202.622 376.792 202.62 376.867 202.576C376.942 202.532 376.987 202.452 376.987 202.366V200.749C376.987 200.676 376.968 200.604 376.932 200.54C376.896 200.476 376.844 200.423 376.781 200.386L354.941 187.693C354.863 187.65 354.768 187.653 354.691 187.697C354.614 187.741 354.567 187.825 354.567 187.914V189.481C354.566 189.654 354.667 189.814 354.807 189.901L354.808 189.9Z" fill="url(#paint24_linear_2_43)"/>
<path d="M354.808 185.168L376.624 197.848C376.7 197.89 376.792 197.888 376.867 197.844C376.942 197.8 376.987 197.72 376.987 197.634V196.016C376.988 195.866 376.91 195.728 376.781 195.653L354.941 182.96C354.863 182.917 354.768 182.92 354.691 182.964C354.614 183.008 354.567 183.092 354.567 183.181V184.748C354.566 184.921 354.667 185.082 354.807 185.17L354.808 185.168Z" fill="url(#paint25_linear_2_43)"/>
<path d="M354.808 180.995L376.624 193.675C376.7 193.717 376.792 193.715 376.867 193.671C376.942 193.627 376.987 193.547 376.987 193.461V185.825C376.988 185.675 376.909 185.538 376.781 185.463L354.941 172.77C354.863 172.727 354.768 172.73 354.691 172.774C354.614 172.818 354.567 172.902 354.567 172.991V180.581C354.567 180.751 354.657 180.911 354.807 180.998L354.808 180.995Z" fill="url(#paint26_linear_2_43)"/>
<path d="M354.808 208.132L373.636 219.089C373.712 219.131 373.804 219.129 373.879 219.085C373.954 219.041 373.999 218.961 373.999 218.875V217.257C373.999 217.184 373.98 217.112 373.944 217.048C373.908 216.984 373.856 216.931 373.793 216.894L354.941 205.924C354.863 205.881 354.768 205.884 354.691 205.928C354.614 205.972 354.567 206.056 354.567 206.145V207.712C354.566 207.885 354.667 208.046 354.807 208.134L354.808 208.132Z" fill="url(#paint27_linear_2_43)"/>
<path d="M354.808 203.4L376.624 216.08C376.7 216.122 376.792 216.12 376.867 216.076C376.942 216.032 376.987 215.952 376.987 215.866V214.248C376.987 214.175 376.968 214.103 376.932 214.039C376.896 213.975 376.844 213.922 376.781 213.885L354.941 201.193C354.863 201.15 354.768 201.153 354.691 201.197C354.614 201.241 354.567 201.325 354.567 201.414V202.981C354.566 203.154 354.667 203.314 354.807 203.401L354.808 203.4Z" fill="url(#paint28_linear_2_43)"/>
<path d="M354.808 198.667L376.624 211.347C376.7 211.389 376.792 211.387 376.867 211.343C376.942 211.299 376.987 211.219 376.987 211.133V209.515C376.987 209.442 376.968 209.37 376.932 209.306C376.896 209.242 376.844 209.189 376.781 209.152L354.941 196.459C354.863 196.416 354.768 196.419 354.691 196.463C354.614 196.507 354.567 196.591 354.567 196.68V198.247C354.566 198.42 354.667 198.581 354.807 198.669L354.808 198.667Z" fill="url(#paint29_linear_2_43)"/>
<path d="M354.808 193.934L376.624 206.614C376.7 206.656 376.792 206.654 376.867 206.61C376.942 206.566 376.987 206.486 376.987 206.4V204.78C376.987 204.707 376.968 204.635 376.932 204.571C376.896 204.507 376.844 204.454 376.781 204.417L354.941 191.724C354.863 191.681 354.768 191.684 354.691 191.728C354.614 191.772 354.567 191.856 354.567 191.945V193.512C354.565 193.686 354.657 193.848 354.807 193.936L354.808 193.934Z" fill="url(#paint30_linear_2_43)"/>
<path d="M304.368 134.616V136.188C304.369 136.358 304.46 136.518 304.608 136.604L344.831 160.036C344.931 160.092 345.055 160.09 345.154 160.031C345.253 159.972 345.314 159.865 345.314 159.751V158.369C345.314 158.268 345.287 158.169 345.237 158.081C345.187 157.993 345.114 157.92 345.027 157.869L304.747 134.403C304.67 134.36 304.575 134.36 304.497 134.404C304.419 134.448 304.371 134.529 304.367 134.617L304.368 134.616Z" fill="url(#paint31_linear_2_43)"/>
<path d="M304.608 141.774L377.103 183.974C377.179 184.014 377.271 184.014 377.346 183.969C377.421 183.924 377.466 183.845 377.466 183.759V182.141C377.467 181.991 377.388 181.853 377.259 181.778L304.742 139.565C304.664 139.522 304.569 139.525 304.492 139.569C304.415 139.613 304.368 139.697 304.368 139.786V141.353C304.367 141.526 304.468 141.686 304.608 141.774Z" fill="url(#paint32_linear_2_43)"/>
<path d="M357.838 220.3C359.958 221.9 361.438 227.2 361.458 230.295V232.975C361.456 233.03 361.47 233.085 361.497 233.133C361.524 233.181 361.564 233.22 361.612 233.247L370.34 238.287C370.453 238.347 370.59 238.339 370.695 238.267C371.999 237.36 373.165 236.267 374.155 235.027C374.525 234.574 374.867 234.099 375.179 233.605C375.187 233.597 375.187 233.589 375.194 233.581C377.136 230.281 377.204 222.933 376.766 222.681L360.566 213.281C360.429 213.189 360.269 213.135 360.104 213.126C359.912 213.146 359.711 213.203 359.664 213.726C359.664 213.756 359.656 213.78 359.656 213.804V213.812C359.503 216.073 358.884 218.278 357.839 220.289L357.838 220.3Z" fill="url(#paint33_linear_2_43)"/>
<path d="M361.458 234.418V234.811C361.456 235.171 361.482 235.531 361.535 235.887L367.18 239.08C367.481 239.246 367.816 239.339 368.159 239.353C368.503 239.367 368.844 239.301 369.158 239.161L369.51 238.998L361.458 234.418Z" fill="url(#paint34_linear_2_43)"/>
<path d="M300.482 218.862L330.122 236.15C330.397 236.304 330.727 236.325 331.019 236.206C331.311 236.087 331.533 235.842 331.622 235.54C333.792 228.144 338.548 221.773 345.022 217.59C345.789 217.088 346.622 216.697 347.499 216.427C347.599 216.397 347.688 216.339 347.756 216.259C347.824 216.18 347.867 216.082 347.88 215.978C347.894 215.875 347.877 215.77 347.831 215.675C347.786 215.581 347.714 215.502 347.625 215.448L342.919 212.695L318.44 198.4C317.81 198.023 317.06 197.9 316.34 198.05C315.212 198.305 314.14 198.761 313.175 199.398C308.509 202.43 304.702 206.612 302.119 211.541C301.175 213.344 300.407 215.234 299.826 217.185C299.631 217.829 299.902 218.522 300.482 218.863V218.862Z" fill="url(#paint35_linear_2_43)"/>
<path d="M272.82 176.865L309.898 198.471C309.983 198.516 310.079 198.537 310.175 198.532C310.271 198.527 310.365 198.497 310.445 198.444L310.969 198.094C311.269 197.9 311.563 197.727 311.879 197.577C311.891 197.565 311.904 197.554 311.919 197.545C312.042 197.471 311.957 197.39 311.911 197.36C311.903 197.356 311.895 197.35 311.888 197.345L300.694 190.835L274.934 175.815C274.218 176.064 273.535 176.4 272.9 176.815C272.877 176.835 272.846 176.851 272.823 176.865H272.82Z" fill="url(#paint36_linear_2_43)"/>
<path d="M269.563 179.307C269.493 179.367 269.457 179.454 269.463 179.544C269.469 179.634 269.519 179.716 269.597 179.764L306.369 201.188C306.471 201.246 306.588 201.27 306.704 201.257C306.82 201.243 306.929 201.193 307.015 201.114C307.232 200.914 307.452 200.723 307.675 200.54C307.744 200.485 307.8 200.415 307.836 200.334C307.873 200.253 307.889 200.165 307.884 200.077C307.879 199.988 307.853 199.903 307.807 199.827C307.762 199.751 307.699 199.687 307.624 199.64L300.801 195.67L271.217 178.42C271.019 178.307 270.772 178.325 270.592 178.465C270.242 178.734 269.899 179.014 269.562 179.305L269.563 179.307Z" fill="url(#paint37_linear_2_43)"/>
<path d="M266.833 182.93L303.341 204.195C303.469 204.266 303.618 204.291 303.762 204.264C303.906 204.238 304.037 204.161 304.131 204.049C304.331 203.816 304.538 203.584 304.751 203.354C304.797 203.307 304.832 203.25 304.853 203.187C304.874 203.124 304.881 203.057 304.873 202.992C304.864 202.926 304.841 202.863 304.805 202.808C304.769 202.752 304.721 202.705 304.665 202.671L302.6 201.471L268.068 181.351C267.939 181.277 267.788 181.248 267.641 181.269C267.494 181.29 267.357 181.36 267.254 181.467C267.071 181.654 266.891 181.844 266.712 182.037C266.59 182.164 266.532 182.339 266.557 182.513C266.582 182.687 266.682 182.841 266.833 182.93Z" fill="url(#paint38_linear_2_43)"/>
<path d="M264.092 186.097L300.812 207.497C300.955 207.577 301.123 207.599 301.281 207.559C301.44 207.519 301.577 207.419 301.665 207.281C301.816 207.054 301.971 206.83 302.128 206.609C302.169 206.553 302.198 206.489 302.214 206.422C302.229 206.354 302.23 206.284 302.217 206.216C302.204 206.148 302.176 206.083 302.137 206.026C302.097 205.969 302.046 205.921 301.987 205.885L265.333 184.532C265.197 184.455 265.037 184.431 264.884 184.464C264.731 184.496 264.596 184.584 264.503 184.71C264.316 184.961 264.135 185.215 263.96 185.472C263.89 185.572 263.864 185.695 263.89 185.814C263.916 185.933 263.99 186.036 264.094 186.097H264.092Z" fill="url(#paint39_linear_2_43)"/>
<path d="M261.847 189.56C261.847 189.568 261.855 189.568 261.863 189.575L298.809 211.093C298.878 211.129 298.954 211.151 299.032 211.158C299.11 211.164 299.189 211.155 299.263 211.131C299.338 211.107 299.407 211.068 299.466 211.017C299.525 210.966 299.574 210.904 299.609 210.834L299.909 210.234L300.049 209.974C300.156 209.808 300.115 209.586 299.956 209.469C299.945 209.463 299.935 209.455 299.925 209.447L262.771 187.812C262.651 187.742 262.495 187.782 262.424 187.902L261.746 189.135C261.74 189.145 261.736 189.155 261.738 189.165C261.678 189.305 261.723 189.47 261.838 189.559L261.847 189.56Z" fill="url(#paint40_linear_2_43)"/>
<path d="M260.15 193.343L297.586 215.153C297.641 215.183 297.706 215.188 297.766 215.163C297.826 215.138 297.869 215.091 297.886 215.031C298.043 214.546 298.214 214.064 298.398 213.586C298.421 213.531 298.423 213.47 298.405 213.413C298.387 213.356 298.349 213.308 298.298 213.277L260.942 191.507C260.882 191.473 260.808 191.467 260.742 191.491C260.676 191.515 260.624 191.565 260.597 191.629L260.047 193.056C260.007 193.163 260.049 193.286 260.147 193.343H260.15Z" fill="url(#paint41_linear_2_43)"/>
<path d="M258.433 200.03C258.418 200.156 258.44 200.284 258.497 200.397C258.554 200.511 258.642 200.605 258.752 200.669L330.018 242.112C330.093 242.154 330.185 242.152 330.26 242.109C330.335 242.066 330.38 241.986 330.38 241.909V240.291C330.383 240.141 330.303 240.001 330.172 239.929L259.072 198.575C258.972 198.525 258.874 198.523 258.782 198.568C258.69 198.613 258.625 198.7 258.61 198.802L258.444 200.04L258.433 200.03Z" fill="url(#paint42_linear_2_43)"/>
<path d="M258.166 205.73C258.15 205.926 258.248 206.114 258.416 206.214L330.016 247.854C330.054 247.881 330.101 247.894 330.146 247.888C330.208 247.883 330.267 247.855 330.31 247.809C330.352 247.764 330.376 247.704 330.377 247.641V246.023C330.377 245.947 330.356 245.873 330.315 245.809C330.281 245.747 330.23 245.695 330.169 245.659L258.655 204.069C258.611 204.045 258.561 204.033 258.511 204.034C258.461 204.034 258.412 204.048 258.369 204.074C258.325 204.099 258.29 204.135 258.265 204.179C258.24 204.223 258.226 204.272 258.226 204.322C258.218 204.793 258.197 205.262 258.164 205.729L258.166 205.73Z" fill="url(#paint43_linear_2_43)"/>
<path d="M257.368 210.88C257.337 210.996 257.344 211.12 257.39 211.231C257.435 211.342 257.516 211.436 257.62 211.497L328.72 252.841C328.804 252.889 328.906 252.896 328.996 252.861C329.086 252.826 329.156 252.749 329.182 252.656L329.522 251.366C329.565 251.188 329.487 251.003 329.33 250.91L258.114 209.495C258.02 209.443 257.908 209.44 257.811 209.485C257.714 209.53 257.646 209.621 257.627 209.725C257.551 210.115 257.464 210.5 257.368 210.88Z" fill="url(#paint44_linear_2_43)"/>
<path d="M255.8 215.577C255.742 215.706 255.733 215.853 255.775 215.988C255.818 216.124 255.908 216.239 256.03 216.312L326.936 257.552C326.973 257.573 327.014 257.586 327.057 257.59C327.099 257.594 327.142 257.59 327.182 257.577C327.223 257.563 327.26 257.542 327.292 257.514C327.324 257.486 327.35 257.452 327.368 257.413L327.898 256.263C327.939 256.167 327.944 256.059 327.912 255.959C327.879 255.859 327.811 255.775 327.721 255.722L256.721 214.422C256.625 214.369 256.511 214.36 256.407 214.399C256.303 214.438 256.223 214.519 256.184 214.622C256.061 214.94 255.933 215.255 255.799 215.568L255.8 215.577Z" fill="url(#paint45_linear_2_43)"/>
<path d="M253.42 220.076C253.392 220.118 253.372 220.165 253.363 220.214C253.353 220.263 253.354 220.314 253.365 220.363C253.376 220.413 253.397 220.459 253.426 220.5C253.455 220.541 253.493 220.575 253.536 220.601L324.436 261.831C324.586 261.911 324.772 261.865 324.868 261.724L325.6 260.644C325.65 260.566 325.668 260.471 325.648 260.38C325.628 260.289 325.571 260.21 325.492 260.162L254.602 218.932C254.505 218.879 254.391 218.866 254.285 218.896C254.179 218.926 254.088 218.997 254.034 219.093L253.429 220.077L253.42 220.076Z" fill="url(#paint46_linear_2_43)"/>
<path d="M250.415 224.045C250.343 224.121 250.309 224.225 250.323 224.33C250.337 224.435 250.398 224.526 250.488 224.58L321.198 265.71C321.338 265.784 321.508 265.76 321.622 265.65L322.539 264.67C322.609 264.593 322.639 264.49 322.625 264.387C322.611 264.284 322.55 264.194 322.462 264.141L251.802 223.041C251.699 222.983 251.578 222.964 251.462 222.986C251.345 223.009 251.241 223.072 251.167 223.165C250.92 223.464 250.67 223.757 250.417 224.045H250.415Z" fill="url(#paint47_linear_2_43)"/>
<path d="M284.243 249.35C284.194 249.387 284.154 249.436 284.128 249.492C284.101 249.548 284.089 249.609 284.092 249.671C284.095 249.733 284.113 249.793 284.144 249.846C284.175 249.9 284.219 249.945 284.272 249.977L317.222 269.13C317.349 269.2 317.504 269.19 317.622 269.108L318.786 268.218C318.822 268.188 318.851 268.149 318.87 268.106C318.888 268.063 318.897 268.015 318.894 267.968C318.891 267.921 318.876 267.875 318.852 267.834C318.828 267.794 318.795 267.759 318.755 267.734L285.755 248.554C285.548 248.438 285.291 248.466 285.115 248.624C284.832 248.871 284.542 249.113 284.245 249.35H284.243Z" fill="url(#paint48_linear_2_43)"/>
<path d="M384.977 125.33C383.437 126.073 382.136 127.235 381.225 128.682C380.313 130.129 379.827 131.804 379.821 133.514V224.054C379.821 232.514 377.034 237.46 372.443 240.5C371.4 241.236 370.175 241.671 368.902 241.758C367.629 241.846 366.356 241.582 365.222 240.995C364.089 240.409 363.138 239.522 362.473 238.432C361.809 237.343 361.457 236.091 361.455 234.815V230.3C361.455 227.252 361.07 224 358.995 221.612C358.106 220.562 356.983 219.735 355.716 219.199C354.45 218.663 353.075 218.431 351.702 218.524C349.322 218.88 347.079 219.87 345.202 221.39C339.255 225.803 335.099 232.213 333.497 239.444C332.22 245.314 332.683 251.534 330.733 257.214C328.501 263.714 323.349 268.79 317.868 272.941C314.493 275.497 301.368 284.741 301.368 284.741L301.418 285.334L317.43 274.004C322.707 270.139 328.097 265.114 330.68 259.104C333.92 251.562 332.618 243.194 335.255 235.421C337.378 229.528 341.398 224.507 346.685 221.147C349.021 219.631 351.597 218.357 354.285 219.08C355.405 219.449 356.432 220.055 357.298 220.856C358.163 221.657 358.846 222.634 359.301 223.722C360.771 226.86 360.901 230.172 360.954 233.552C360.998 236.162 361.314 238.805 363.554 240.482C367.624 243.525 370.524 242.182 372.554 241.117C373.204 240.777 375.28 239.717 377.74 235.8C380.656 231.16 380.277 223.063 380.277 223.063L380.417 133.433C380.44 130.269 382.187 127.369 384.972 125.869L399.856 117.269V116.799L384.977 125.33Z" fill="#B4D5E1"/>
<path d="M307.842 98.165C308.433 98.4092 309.006 98.6952 309.557 99.021C310.324 99.435 310.987 100.016 311.497 100.721C311.881 101.244 312.092 101.873 312.103 102.521C312.103 103.148 311.918 103.534 311.569 103.691C311.204 103.777 310.825 103.78 310.459 103.7C310.092 103.62 309.749 103.459 309.453 103.229C309.201 103.09 308.96 102.93 308.733 102.753V105.526L307.839 105.01L307.842 98.165ZM308.736 102.019C308.968 102.207 309.215 102.374 309.476 102.519C310.554 103.141 311.211 102.997 311.211 102.041C311.118 101.037 310.495 100.161 309.578 99.741C309.31 99.5774 309.028 99.4388 308.735 99.327L308.736 102.019ZM312.423 101.559C313.214 101.67 313.969 101.959 314.631 102.405C315.583 102.969 316.383 103.755 316.964 104.696C317.377 105.279 317.609 105.972 317.629 106.696C317.663 106.908 317.643 107.125 317.569 107.327C317.495 107.528 317.37 107.707 317.207 107.847C317.044 107.986 316.848 108.081 316.637 108.123C316.427 108.164 316.209 108.151 316.005 108.084C315.471 108.008 314.962 107.81 314.518 107.504L313.518 106.964L312.431 106.316L312.423 101.559ZM313.523 106.042L314.64 106.687C315.807 107.361 316.547 107.147 316.547 106.182C316.424 105 315.684 103.982 314.602 103.482C314.262 103.282 313.899 103.096 313.522 102.959L313.523 106.042ZM318.348 103.572L322.076 105.724V106.474L319.241 104.837V107.137L321.861 108.649V109.389L319.241 107.877V111.01L318.348 110.494V103.572Z" fill="#A3E0DA"/>
<path d="M355.25 160.603L356.108 162.838L358.028 164.225L356.628 164.777L356.956 166.877L355.239 164.984L353.522 164.884L353.85 163.162L352.45 161.006L354.37 161.836L355.25 160.603ZM362.704 164.928L363.562 167.163L365.482 168.55L364.082 169.102L364.41 171.202L362.694 169.309L360.977 169.209L361.305 167.487L359.905 165.332L361.825 166.162L362.704 164.928ZM370.158 169.253L371.018 171.487L372.938 172.874L371.538 173.426L371.866 175.526L370.149 173.633L368.433 173.533L368.761 171.811L367.373 169.655L369.293 170.485L370.158 169.253Z" fill="#FCC106"/>
<g style="mix-blend-mode:multiply">
<path opacity="0.48" d="M250.74 46.642C250.607 46.618 250.48 46.572 250.363 46.502L227.863 33.559C227.327 33.259 226.988 32.699 226.97 32.083V11.94C226.958 11.613 227.136 11.31 227.427 11.16C227.581 11.0908 227.75 11.0606 227.919 11.0722C228.087 11.0837 228.251 11.1365 228.394 11.226L250.854 24.149C251.39 24.449 251.73 25.009 251.748 25.625V45.807C251.758 46.125 251.585 46.422 251.302 46.567C251.127 46.651 250.93 46.677 250.739 46.643L250.74 46.642Z" fill="#A7E5DE"/>
</g>
<g opacity="0.75">
<g style="mix-blend-mode:multiply" opacity="0.65">
<path d="M293.79 72.223C293.596 72.189 293.41 72.121 293.24 72.023L260.44 53.151C259.66 52.711 259.166 51.895 259.14 50.999V21.622C259.124 21.146 259.384 20.702 259.807 20.484C260.032 20.3835 260.279 20.34 260.525 20.3575C260.77 20.3749 261.008 20.4527 261.217 20.584L293.967 39.427C294.747 39.867 295.241 40.683 295.267 41.579V71.007C295.275 71.2345 295.219 71.4597 295.104 71.6562C294.989 71.8528 294.82 72.0126 294.618 72.117C294.361 72.2403 294.07 72.2774 293.79 72.223Z" fill="#A7E5DE"/>
</g>
</g>
<path d="M269.16 42.438L273.04 50.126L284.225 41.939" stroke="white" stroke-width="2.757" stroke-linecap="round" stroke-linejoin="round"/>
<path d="M419.05 82.51C419.894 84.41 419.042 85.942 417.15 85.942C415.002 85.768 413.11 84.459 412.19 82.51C411.346 80.61 412.198 79.077 414.09 79.077C416.238 79.252 418.13 80.561 419.05 82.51Z" stroke="#DAE3F2" stroke-miterlimit="10"/>
<path opacity="0.3" d="M415.114 215.726C415.958 217.626 415.106 219.158 413.214 219.158C411.064 218.984 409.174 217.675 408.254 215.726C407.41 213.826 408.264 212.293 410.154 212.293C412.304 212.467 414.194 213.776 415.114 215.726Z" stroke="#DAE3F2" stroke-miterlimit="10"/>
<path d="M259.268 27.805C260.112 29.705 259.258 31.238 257.368 31.238C255.218 31.064 253.328 29.755 252.408 27.805C251.564 25.905 252.418 24.372 254.308 24.372C256.458 24.546 258.348 25.855 259.268 27.805Z" stroke="#DAE3F2" stroke-miterlimit="10"/>
<path d="M372.264 65.102V71.375" stroke="#DAE3F2" stroke-linecap="round" stroke-linejoin="round"/>
<path d="M375.206 69.74L369.322 66.355M343.308 41.705V47.978" stroke="#DAE3F2" stroke-linecap="round" stroke-linejoin="round"/>
<path d="M346.25 46.34L340.366 42.955M278.528 0.5V6.773" stroke="#DAE3F2" stroke-linecap="round" stroke-linejoin="round"/>
<path d="M281.47 5.13701L275.586 1.75201M292.4 77.98V84.253" stroke="#DAE3F2" stroke-linecap="round" stroke-linejoin="round"/>
<path d="M295.342 82.618L289.458 79.233M458 163.53V169.803" stroke="#DAE3F2" stroke-linecap="round" stroke-linejoin="round"/>
<path d="M460.942 168.168L455.058 164.783" stroke="#DAE3F2" stroke-linecap="round" stroke-linejoin="round"/>
<path d="M449.148 108.35V146.164L446.59 147.564L411.358 121.072L405.858 86.289L408.418 84.889L449.148 108.35Z" fill="#2DE9D5"/>
<path d="M449.147 108.35V146.164L446.589 147.564L411.357 121.067L446.589 109.747L449.147 108.35Z" fill="#2DE9D5"/>
<path d="M446.59 109.74V147.554L405.858 124.092V86.28L446.59 109.74Z" fill="#12D3BF"/>
<path d="M101.334 248.8L151.527 277.94C152.065 278.25 152.511 278.695 152.821 279.232C153.132 279.769 153.295 280.379 153.295 280.999C153.295 281.619 153.132 282.229 152.821 282.766C152.511 283.303 152.065 283.748 151.527 284.058L62.973 335.188C59.743 337.053 55.767 337.068 52.523 335.225L1.793 306.347C1.25162 306.04 0.801008 305.595 0.486831 305.058C0.172655 304.521 0.00608423 303.91 0.00400174 303.288C0.00157554 302.666 0.163739 302.054 0.474054 301.514C0.784369 300.975 1.2318 300.527 1.771 300.216L90.818 248.806C94.07 246.926 98.078 246.924 101.333 248.801L101.334 248.8Z" fill="url(#paint49_linear_2_43)"/>
<path d="M101.34 232.77L153.298 262.55V264.967C153.302 265.588 153.14 266.198 152.829 266.736C152.519 267.274 152.071 267.719 151.532 268.027L62.98 319.153C59.75 321.018 55.774 321.033 52.53 319.191L1.8 290.313C1.26818 290.015 0.82353 289.583 0.510088 289.06C0.196647 288.537 0.0252929 287.941 0.0130015 287.331C-0.0169985 286.111 0.0130015 284.847 0.0130015 284.847L90.826 232.771C94.079 230.893 98.086 230.893 101.339 232.771L101.34 232.77Z" fill="#8DC5C0"/>
<path d="M101.334 230.352L151.527 259.492C152.065 259.802 152.511 260.247 152.821 260.784C153.132 261.321 153.295 261.931 153.295 262.551C153.295 263.171 153.132 263.781 152.821 264.318C152.511 264.855 152.065 265.3 151.527 265.61L62.974 316.736C59.744 318.601 55.768 318.616 52.524 316.773L1.794 287.895C1.25262 287.588 0.802007 287.143 0.487831 286.606C0.173654 286.069 0.00708368 285.458 0.0050012 284.836C0.00257499 284.214 0.164738 283.602 0.475053 283.062C0.785368 282.523 1.2328 282.075 1.772 281.764L90.819 230.354C94.072 228.476 98.079 228.476 101.333 230.354L101.334 230.352Z" fill="#CBF4F0"/>
<path d="M99.125 232.288L147.195 260.202L56.06 312.965L7.512 285.325L99.125 232.288Z" fill="#12D3BF"/>
<path opacity="0.1" d="M98.6218 282.131C99.9531 272.719 87.5461 263.182 70.9101 260.829C54.2741 258.476 39.7088 264.198 38.3775 273.61C37.0462 283.021 49.4531 292.559 66.0892 294.912C82.7252 297.265 97.2905 291.543 98.6218 282.131Z" fill="#178A7E"/>
<path opacity="0.15" d="M57.625 266.997C67.098 264.459 79.645 267.27 85.65 273.275C91.655 279.28 88.845 286.205 79.372 288.745C69.899 291.285 57.352 288.472 51.347 282.467C45.342 276.462 48.153 269.537 57.625 266.997Z" fill="#178A7E"/>
<path opacity="0.25" d="M61.685 271.057C67.62 269.467 75.485 271.227 79.245 274.99C83.005 278.753 81.245 283.09 75.311 284.683C69.377 286.276 61.511 284.513 57.751 280.749C53.991 276.985 55.748 272.649 61.685 271.057Z" fill="#178A7E"/>
<path d="M62.124 271.537L68.182 274.363L73.789 272.963L73.152 277.303L78.209 281.05L71.757 280.906L69.275 284.623L65.925 280.193L59.335 278.743L63.715 276.15L62.124 271.537Z" fill="#FCC106"/>
<path d="M72.03 252.307L90.966 263.2C96.988 258.6 95.972 254.978 91.89 252.177C85.456 247.762 78.065 248.807 72.03 252.307Z" fill="white"/>
<path opacity="0.35" d="M113.922 274.23C113.82 274.23 113.719 274.203 113.631 274.152L95.038 263.3C94.947 263.25 94.8709 263.177 94.8177 263.089C94.7644 263 94.736 262.898 94.7353 262.795C94.7346 262.691 94.7616 262.589 94.8136 262.499C94.8656 262.41 94.9407 262.336 95.031 262.285C95.1209 262.234 95.2228 262.208 95.3262 262.209C95.4296 262.211 95.5307 262.24 95.619 262.294L114.212 273.136C114.324 273.199 114.411 273.298 114.46 273.417C114.51 273.535 114.518 273.666 114.485 273.79C114.452 273.914 114.378 274.024 114.276 274.101C114.174 274.179 114.049 274.221 113.921 274.22L113.922 274.23ZM111.792 275.45C111.69 275.45 111.589 275.423 111.501 275.371L92.9 264.533C92.809 264.483 92.7329 264.41 92.6797 264.322C92.6264 264.233 92.598 264.131 92.5973 264.028C92.5966 263.924 92.6236 263.822 92.6756 263.732C92.7276 263.643 92.8027 263.569 92.893 263.518C92.9829 263.467 93.0848 263.441 93.1882 263.442C93.2916 263.444 93.3927 263.473 93.481 263.527L112.074 274.369C112.186 274.432 112.274 274.531 112.324 274.65C112.373 274.768 112.382 274.9 112.349 275.024C112.316 275.149 112.242 275.258 112.14 275.336C112.037 275.414 111.912 275.455 111.783 275.454L111.792 275.45ZM116.049 273.01C115.947 273.01 115.846 272.983 115.758 272.932L97.167 262.1C97.0336 262.023 96.9363 261.896 96.8966 261.747C96.8568 261.598 96.8778 261.439 96.955 261.306C97.0322 261.173 97.1592 261.075 97.3081 261.036C97.457 260.996 97.6156 261.017 97.749 261.094L116.342 271.936C116.454 272 116.541 272.098 116.59 272.217C116.64 272.335 116.648 272.466 116.615 272.59C116.582 272.714 116.508 272.824 116.406 272.901C116.304 272.979 116.179 273.021 116.051 273.02L116.049 273.01ZM118.179 271.788C118.077 271.788 117.976 271.761 117.879 271.71L99.286 260.868C99.156 260.789 99.0619 260.663 99.0242 260.516C98.9864 260.369 99.0079 260.212 99.084 260.081C99.1597 259.949 99.2843 259.852 99.4307 259.811C99.5772 259.77 99.7338 259.789 99.867 259.862L118.463 270.704C118.575 270.768 118.662 270.866 118.711 270.985C118.761 271.103 118.769 271.234 118.736 271.358C118.703 271.482 118.629 271.592 118.527 271.669C118.425 271.747 118.3 271.789 118.172 271.788H118.179ZM120.307 270.57C120.205 270.571 120.104 270.544 120.016 270.492L101.423 259.65C101.293 259.571 101.199 259.445 101.161 259.298C101.123 259.151 101.145 258.995 101.221 258.863C101.297 258.731 101.421 258.634 101.568 258.593C101.714 258.552 101.871 258.571 102.004 258.644L120.597 269.486C120.709 269.549 120.797 269.648 120.846 269.766C120.896 269.885 120.905 270.017 120.872 270.141C120.839 270.265 120.765 270.375 120.663 270.453C120.561 270.53 120.436 270.572 120.307 270.571V270.57Z" fill="#13B5A4"/>
<path d="M98.982 244.422C96.465 243.302 93.524 243.772 91.482 245.622C89.71 247.427 90.196 249.822 92.568 250.965C95.084 252.087 98.025 251.618 100.068 249.77C101.838 247.96 101.353 245.568 98.982 244.422Z" fill="white"/>
<path d="M125.655 254.055L105.097 242.355C103.847 241.64 104.402 240.221 106.337 239.185L109.665 237.405L134.751 251.691L131.424 253.471C129.487 254.513 126.904 254.774 125.654 254.056L125.655 254.055Z" fill="#DAE3F2"/>
<path d="M189.69 320.838L273.646 369.35C274.237 369.692 274.728 370.183 275.069 370.774C275.41 371.365 275.59 372.035 275.59 372.718C275.59 373.401 275.41 374.071 275.069 374.662C274.728 375.253 274.237 375.744 273.646 376.086L218.012 410.326C214.457 412.378 210.082 412.393 206.512 410.366L121.964 362.141C121.369 361.803 120.873 361.313 120.527 360.721C120.182 360.13 119.999 359.458 119.996 358.773C119.994 358.088 120.172 357.415 120.514 356.821C120.855 356.227 121.347 355.734 121.94 355.391L178.12 320.838C181.7 318.772 186.11 318.772 189.69 320.838Z" fill="url(#paint50_linear_2_43)"/>
<path d="M189.7 303.2L275.6 352.418V355.08C275.607 356.472 274.864 357.76 273.655 358.448L218.021 392.688C214.466 394.738 210.091 394.755 206.521 392.728L121.973 344.503C121.387 344.175 120.898 343.699 120.553 343.123C120.208 342.547 120.019 341.891 120.006 341.22C119.972 339.878 120.006 338.485 120.006 338.485L178.128 303.2C179.887 302.185 181.883 301.651 183.914 301.651C185.945 301.651 187.941 302.185 189.7 303.2Z" fill="#B4BBE1"/>
<path d="M189.69 300.527L273.646 349.039C274.237 349.381 274.728 349.872 275.069 350.463C275.41 351.054 275.59 351.724 275.59 352.407C275.59 353.09 275.41 353.76 275.069 354.351C274.728 354.942 274.237 355.433 273.646 355.775L218.012 390.015C214.457 392.067 210.082 392.082 206.512 390.055L121.964 341.83C121.369 341.492 120.873 341.002 120.527 340.41C120.182 339.819 119.999 339.147 119.996 338.462C119.994 337.777 120.172 337.104 120.514 336.51C120.855 335.916 121.347 335.423 121.94 335.08L178.12 300.527C181.7 298.461 186.11 298.461 189.69 300.527Z" fill="#CBF4F0"/>
<path d="M187.26 302.658L268.88 349.822L210.403 385.862L128.258 339.002L187.26 302.658Z" fill="#12D3BF"/>
<g opacity="0.35">
<path d="M225.388 361.693C225.241 361.693 225.097 361.654 224.97 361.58L198.212 345.98C197.812 345.75 197.675 345.238 197.906 344.838C198.137 344.438 198.648 344.301 199.048 344.532L225.806 360.132C226.133 360.332 226.292 360.708 226.194 361.072C226.096 361.436 225.764 361.692 225.387 361.692L225.388 361.693Z" fill="#B4BBE1"/>
<path d="M228.453 359.938C228.306 359.938 228.162 359.899 228.035 359.825L201.277 344.225C200.877 343.995 200.74 343.483 200.971 343.083C201.202 342.683 201.713 342.546 202.113 342.777L228.871 358.377C229.198 358.577 229.357 358.953 229.259 359.317C229.161 359.681 228.829 359.937 228.452 359.937L228.453 359.938Z" fill="#B4BBE1"/>
<path d="M231.515 358.182C231.368 358.182 231.224 358.143 231.097 358.069L204.339 342.469C203.939 342.239 203.802 341.726 204.034 341.327C204.266 340.928 204.777 340.79 205.176 341.022L231.934 356.622C232.261 356.822 232.42 357.198 232.322 357.562C232.274 357.739 232.169 357.896 232.023 358.008C231.877 358.12 231.699 358.181 231.515 358.182ZM234.58 356.43C234.433 356.43 234.28 356.39 234.162 356.317L207.404 340.717C207.144 340.567 206.986 340.291 206.986 339.993C206.986 339.695 207.146 339.418 207.406 339.269C207.666 339.12 207.984 339.119 208.242 339.269L235 354.87C235.327 355.07 235.486 355.445 235.4 355.81C235.314 356.175 234.972 356.43 234.593 356.43H234.58ZM237.643 354.67C237.496 354.67 237.352 354.631 237.225 354.557L210.467 338.957C210.207 338.807 210.049 338.531 210.049 338.233C210.049 337.935 210.209 337.658 210.469 337.509C210.729 337.36 211.047 337.359 211.305 337.509L238.065 353.114C238.225 353.205 238.35 353.347 238.421 353.517C238.492 353.687 238.504 353.876 238.455 354.054C238.407 354.232 238.301 354.389 238.155 354.501C238.009 354.613 237.829 354.674 237.645 354.674L237.643 354.67Z" fill="#B4BBE1"/>
</g>
<path d="M160.72 329.644L185.603 343.958C193.516 337.908 192.181 333.153 186.818 329.473C178.362 323.671 168.648 325.045 160.72 329.643V329.644ZM196.135 319.282C194.517 318.56 192.723 318.324 190.973 318.602C189.222 318.881 187.591 319.663 186.277 320.852C183.949 323.225 184.577 326.368 187.704 327.872C189.322 328.594 191.116 328.83 192.866 328.552C194.617 328.273 196.248 327.491 197.562 326.302C199.89 323.927 199.248 320.787 196.135 319.282Z" fill="white"/>
</g>
<defs>
<linearGradient id="paint0_linear_2_43" x1="186.377" y1="137.54" x2="158.128" y2="186.52" gradientUnits="userSpaceOnUse">
<stop stop-color="#B4BBE1" stop-opacity="0.102"/>
<stop offset="0.627" stop-color="#B4BBE1" stop-opacity="0.24"/>
<stop offset="1" stop-color="#B4BBE1" stop-opacity="0.302"/>
</linearGradient>
<linearGradient id="paint1_linear_2_43" x1="221.545" y1="146.385" x2="193.301" y2="195.362" gradientUnits="userSpaceOnUse">
<stop stop-color="#B4BBE1" stop-opacity="0.102"/>
<stop offset="0.627" stop-color="#B4BBE1" stop-opacity="0.24"/>
<stop offset="1" stop-color="#B4BBE1" stop-opacity="0.302"/>
</linearGradient>
<linearGradient id="paint2_linear_2_43" x1="690.742" y1="198.1" x2="790.234" y2="370.342" gradientUnits="userSpaceOnUse">
<stop stop-color="#B4BBE1" stop-opacity="0.102"/>
<stop offset="0.627" stop-color="#B4BBE1" stop-opacity="0.24"/>
<stop offset="1" stop-color="#B4BBE1" stop-opacity="0.302"/>
</linearGradient>
<linearGradient id="paint3_linear_2_43" x1="339.894" y1="204.95" x2="280.535" y2="307.714" gradientUnits="userSpaceOnUse">
<stop stop-color="#CEEDEF"/>
<stop offset="0.371" stop-color="#D5EEF0"/>
<stop offset="0.866" stop-color="#DAEEF2"/>
<stop offset="1" stop-color="#DAEDF2"/>
</linearGradient>
<linearGradient id="paint4_linear_2_43" x1="370.437" y1="186.292" x2="311.308" y2="289.751" gradientUnits="userSpaceOnUse">
<stop stop-color="#CEEDEF"/>
<stop offset="0.371" stop-color="#D5EEF0"/>
<stop offset="0.866" stop-color="#DAEEF2"/>
<stop offset="1" stop-color="#DAEDF2"/>
</linearGradient>
<linearGradient id="paint5_linear_2_43" x1="343.311" y1="277.43" x2="343.311" y2="105.18" gradientUnits="userSpaceOnUse">
<stop stop-color="#B4BBE1" stop-opacity="0.102"/>
<stop offset="0.627" stop-color="#B4BBE1" stop-opacity="0.24"/>
<stop offset="1" stop-color="#B4BBE1" stop-opacity="0.302"/>
</linearGradient>
<linearGradient id="paint6_linear_2_43" x1="278.722" y1="276.858" x2="402.315" y2="130.38" gradientUnits="userSpaceOnUse">
<stop stop-color="#CEEDEF"/>
<stop offset="0.371" stop-color="#D5EEF0"/>
<stop offset="0.866" stop-color="#DAEEF2"/>
<stop offset="1" stop-color="#DAEDF2"/>
</linearGradient>
<linearGradient id="paint7_linear_2_43" x1="304.366" y1="126.773" x2="350.083" y2="126.773" gradientUnits="userSpaceOnUse">
<stop stop-color="#CEEDEF"/>
<stop offset="0.371" stop-color="#D5EEF0"/>
<stop offset="0.866" stop-color="#DAEEF2"/>
<stop offset="1" stop-color="#DAEDF2"/>
</linearGradient>
<linearGradient id="paint8_linear_2_43" x1="304.368" y1="122.038" x2="350.084" y2="122.038" gradientUnits="userSpaceOnUse">
<stop stop-color="#CEEDEF"/>
<stop offset="0.371" stop-color="#D5EEF0"/>
<stop offset="0.866" stop-color="#DAEEF2"/>
<stop offset="1" stop-color="#DAEDF2"/>
</linearGradient>
<linearGradient id="paint9_linear_2_43" x1="304.367" y1="131.503" x2="350.084" y2="131.503" gradientUnits="userSpaceOnUse">
<stop stop-color="#CEEDEF"/>
<stop offset="0.371" stop-color="#D5EEF0"/>
<stop offset="0.866" stop-color="#DAEEF2"/>
<stop offset="1" stop-color="#DAEDF2"/>
</linearGradient>
<linearGradient id="paint10_linear_2_43" x1="304.366" y1="136.24" x2="350.083" y2="136.24" gradientUnits="userSpaceOnUse">
<stop stop-color="#CEEDEF"/>
<stop offset="0.371" stop-color="#D5EEF0"/>
<stop offset="0.866" stop-color="#DAEEF2"/>
<stop offset="1" stop-color="#DAEDF2"/>
</linearGradient>
<linearGradient id="paint11_linear_2_43" x1="304.367" y1="140.968" x2="350.084" y2="140.968" gradientUnits="userSpaceOnUse">
<stop stop-color="#CEEDEF"/>
<stop offset="0.371" stop-color="#D5EEF0"/>
<stop offset="0.866" stop-color="#DAEEF2"/>
<stop offset="1" stop-color="#DAEDF2"/>
</linearGradient>
<linearGradient id="paint12_linear_2_43" x1="335.928" y1="181.967" x2="350.08" y2="181.967" gradientUnits="userSpaceOnUse">
<stop stop-color="#CEEDEF"/>
<stop offset="0.371" stop-color="#D5EEF0"/>
<stop offset="0.866" stop-color="#DAEEF2"/>
<stop offset="1" stop-color="#DAEDF2"/>
</linearGradient>
<linearGradient id="paint13_linear_2_43" x1="304.368" y1="168.158" x2="334.043" y2="168.158" gradientUnits="userSpaceOnUse">
<stop stop-color="#CEEDEF"/>
<stop offset="0.371" stop-color="#D5EEF0"/>
<stop offset="0.866" stop-color="#DAEEF2"/>
<stop offset="1" stop-color="#DAEDF2"/>
</linearGradient>
<linearGradient id="paint14_linear_2_43" x1="304.367" y1="168.972" x2="353.137" y2="168.972" gradientUnits="userSpaceOnUse">
<stop stop-color="#CEEDEF"/>
<stop offset="0.371" stop-color="#D5EEF0"/>
<stop offset="0.866" stop-color="#DAEEF2"/>
<stop offset="1" stop-color="#DAEDF2"/>
</linearGradient>
<linearGradient id="paint15_linear_2_43" x1="304.367" y1="163.344" x2="350.084" y2="163.344" gradientUnits="userSpaceOnUse">
<stop stop-color="#CEEDEF"/>
<stop offset="0.371" stop-color="#D5EEF0"/>
<stop offset="0.866" stop-color="#DAEEF2"/>
<stop offset="1" stop-color="#DAEDF2"/>
</linearGradient>
<linearGradient id="paint16_linear_2_43" x1="304.366" y1="158.61" x2="350.084" y2="158.61" gradientUnits="userSpaceOnUse">
<stop stop-color="#CEEDEF"/>
<stop offset="0.371" stop-color="#D5EEF0"/>
<stop offset="0.866" stop-color="#DAEEF2"/>
<stop offset="1" stop-color="#DAEDF2"/>
</linearGradient>
<linearGradient id="paint17_linear_2_43" x1="304.366" y1="191.039" x2="350.083" y2="191.039" gradientUnits="userSpaceOnUse">
<stop stop-color="#CEEDEF"/>
<stop offset="0.371" stop-color="#D5EEF0"/>
<stop offset="0.866" stop-color="#DAEEF2"/>
<stop offset="1" stop-color="#DAEDF2"/>
</linearGradient>
<linearGradient id="paint18_linear_2_43" x1="303.976" y1="197.47" x2="357.254" y2="197.47" gradientUnits="userSpaceOnUse">
<stop stop-color="#CEEDEF"/>
<stop offset="0.371" stop-color="#D5EEF0"/>
<stop offset="0.866" stop-color="#DAEEF2"/>
<stop offset="1" stop-color="#DAEDF2"/>
</linearGradient>
<linearGradient id="paint19_linear_2_43" x1="302.907" y1="201.232" x2="356.864" y2="201.232" gradientUnits="userSpaceOnUse">
<stop stop-color="#CEEDEF"/>
<stop offset="0.371" stop-color="#D5EEF0"/>
<stop offset="0.866" stop-color="#DAEEF2"/>
<stop offset="1" stop-color="#DAEDF2"/>
</linearGradient>
<linearGradient id="paint20_linear_2_43" x1="304.368" y1="186.309" x2="350.084" y2="186.309" gradientUnits="userSpaceOnUse">
<stop stop-color="#CEEDEF"/>
<stop offset="0.371" stop-color="#D5EEF0"/>
<stop offset="0.866" stop-color="#DAEEF2"/>
<stop offset="1" stop-color="#DAEDF2"/>
</linearGradient>
<linearGradient id="paint21_linear_2_43" x1="304.367" y1="181.575" x2="350.084" y2="181.575" gradientUnits="userSpaceOnUse">
<stop stop-color="#CEEDEF"/>
<stop offset="0.371" stop-color="#D5EEF0"/>
<stop offset="0.866" stop-color="#DAEEF2"/>
<stop offset="1" stop-color="#DAEDF2"/>
</linearGradient>
<linearGradient id="paint22_linear_2_43" x1="331.029" y1="184.565" x2="350.082" y2="184.565" gradientUnits="userSpaceOnUse">
<stop stop-color="#CEEDEF"/>
<stop offset="0.371" stop-color="#D5EEF0"/>
<stop offset="0.866" stop-color="#DAEEF2"/>
<stop offset="1" stop-color="#DAEDF2"/>
</linearGradient>
<linearGradient id="paint23_linear_2_43" x1="304.368" y1="170.78" x2="329.136" y2="170.78" gradientUnits="userSpaceOnUse">
<stop stop-color="#CEEDEF"/>
<stop offset="0.371" stop-color="#D5EEF0"/>
<stop offset="0.866" stop-color="#DAEEF2"/>
<stop offset="1" stop-color="#DAEDF2"/>
</linearGradient>
<linearGradient id="paint24_linear_2_43" x1="354.567" y1="195.136" x2="376.987" y2="195.136" gradientUnits="userSpaceOnUse">
<stop stop-color="#CEEDEF"/>
<stop offset="0.371" stop-color="#D5EEF0"/>
<stop offset="0.866" stop-color="#DAEEF2"/>
<stop offset="1" stop-color="#DAEDF2"/>
</linearGradient>
<linearGradient id="paint25_linear_2_43" x1="354.567" y1="190.404" x2="376.987" y2="190.404" gradientUnits="userSpaceOnUse">
<stop stop-color="#CEEDEF"/>
<stop offset="0.371" stop-color="#D5EEF0"/>
<stop offset="0.866" stop-color="#DAEEF2"/>
<stop offset="1" stop-color="#DAEDF2"/>
</linearGradient>
<linearGradient id="paint26_linear_2_43" x1="354.567" y1="183.222" x2="376.987" y2="183.222" gradientUnits="userSpaceOnUse">
<stop stop-color="#CEEDEF"/>
<stop offset="0.371" stop-color="#D5EEF0"/>
<stop offset="0.866" stop-color="#DAEEF2"/>
<stop offset="1" stop-color="#DAEDF2"/>
</linearGradient>
<linearGradient id="paint27_linear_2_43" x1="354.567" y1="212.506" x2="373.999" y2="212.506" gradientUnits="userSpaceOnUse">
<stop stop-color="#CEEDEF"/>
<stop offset="0.371" stop-color="#D5EEF0"/>
<stop offset="0.866" stop-color="#DAEEF2"/>
<stop offset="1" stop-color="#DAEDF2"/>
</linearGradient>
<linearGradient id="paint28_linear_2_43" x1="354.567" y1="208.636" x2="376.987" y2="208.636" gradientUnits="userSpaceOnUse">
<stop stop-color="#CEEDEF"/>
<stop offset="0.371" stop-color="#D5EEF0"/>
<stop offset="0.866" stop-color="#DAEEF2"/>
<stop offset="1" stop-color="#DAEDF2"/>
</linearGradient>
<linearGradient id="paint29_linear_2_43" x1="354.567" y1="203.903" x2="376.987" y2="203.903" gradientUnits="userSpaceOnUse">
<stop stop-color="#CEEDEF"/>
<stop offset="0.371" stop-color="#D5EEF0"/>
<stop offset="0.866" stop-color="#DAEEF2"/>
<stop offset="1" stop-color="#DAEDF2"/>
</linearGradient>
<linearGradient id="paint30_linear_2_43" x1="354.567" y1="199.169" x2="376.987" y2="199.169" gradientUnits="userSpaceOnUse">
<stop stop-color="#CEEDEF"/>
<stop offset="0.371" stop-color="#D5EEF0"/>
<stop offset="0.866" stop-color="#DAEEF2"/>
<stop offset="1" stop-color="#DAEDF2"/>
</linearGradient>
<linearGradient id="paint31_linear_2_43" x1="304.367" y1="147.224" x2="345.314" y2="147.224" gradientUnits="userSpaceOnUse">
<stop stop-color="#CEEDEF"/>
<stop offset="0.371" stop-color="#D5EEF0"/>
<stop offset="0.866" stop-color="#DAEEF2"/>
<stop offset="1" stop-color="#DAEDF2"/>
</linearGradient>
<linearGradient id="paint32_linear_2_43" x1="304.368" y1="161.769" x2="377.466" y2="161.769" gradientUnits="userSpaceOnUse">
<stop stop-color="#CEEDEF"/>
<stop offset="0.371" stop-color="#D5EEF0"/>
<stop offset="0.866" stop-color="#DAEEF2"/>
<stop offset="1" stop-color="#DAEDF2"/>
</linearGradient>
<linearGradient id="paint33_linear_2_43" x1="357.838" y1="225.727" x2="376.987" y2="225.727" gradientUnits="userSpaceOnUse">
<stop stop-color="#CEEDEF"/>
<stop offset="0.371" stop-color="#D5EEF0"/>
<stop offset="0.866" stop-color="#DAEEF2"/>
<stop offset="1" stop-color="#DAEDF2"/>
</linearGradient>
<linearGradient id="paint34_linear_2_43" x1="361.458" y1="236.887" x2="369.51" y2="236.887" gradientUnits="userSpaceOnUse">
<stop stop-color="#CED5EF"/>
<stop offset="0.371" stop-color="#D5DDF0"/>
<stop offset="0.866" stop-color="#DAE3F2"/>
</linearGradient>
<linearGradient id="paint35_linear_2_43" x1="299.763" y1="217.135" x2="347.885" y2="217.135" gradientUnits="userSpaceOnUse">
<stop stop-color="#CEEDEF"/>
<stop offset="0.371" stop-color="#D5EEF0"/>
<stop offset="0.866" stop-color="#DAEEF2"/>
<stop offset="1" stop-color="#DAEDF2"/>
</linearGradient>
<linearGradient id="paint36_linear_2_43" x1="272.82" y1="187.174" x2="311.983" y2="187.174" gradientUnits="userSpaceOnUse">
<stop stop-color="#CEEDEF"/>
<stop offset="0.371" stop-color="#D5EEF0"/>
<stop offset="0.866" stop-color="#DAEEF2"/>
<stop offset="1" stop-color="#DAEDF2"/>
</linearGradient>
<linearGradient id="paint37_linear_2_43" x1="269.462" y1="189.803" x2="307.885" y2="189.803" gradientUnits="userSpaceOnUse">
<stop stop-color="#CEEDEF"/>
<stop offset="0.371" stop-color="#D5EEF0"/>
<stop offset="0.866" stop-color="#DAEEF2"/>
<stop offset="1" stop-color="#DAEDF2"/>
</linearGradient>
<linearGradient id="paint38_linear_2_43" x1="266.551" y1="192.769" x2="304.876" y2="192.769" gradientUnits="userSpaceOnUse">
<stop stop-color="#CEEDEF"/>
<stop offset="0.371" stop-color="#D5EEF0"/>
<stop offset="0.866" stop-color="#DAEEF2"/>
<stop offset="1" stop-color="#DAEDF2"/>
</linearGradient>
<linearGradient id="paint39_linear_2_43" x1="263.88" y1="196.014" x2="302.226" y2="196.014" gradientUnits="userSpaceOnUse">
<stop stop-color="#CEEDEF"/>
<stop offset="0.371" stop-color="#D5EEF0"/>
<stop offset="0.866" stop-color="#DAEEF2"/>
<stop offset="1" stop-color="#DAEDF2"/>
</linearGradient>
<linearGradient id="paint40_linear_2_43" x1="261.711" y1="199.469" x2="300.109" y2="199.469" gradientUnits="userSpaceOnUse">
<stop stop-color="#CEEDEF"/>
<stop offset="0.371" stop-color="#D5EEF0"/>
<stop offset="0.866" stop-color="#DAEEF2"/>
<stop offset="1" stop-color="#DAEDF2"/>
</linearGradient>
<linearGradient id="paint41_linear_2_43" x1="260.032" y1="203.328" x2="298.417" y2="203.328" gradientUnits="userSpaceOnUse">
<stop stop-color="#CEEDEF"/>
<stop offset="0.371" stop-color="#D5EEF0"/>
<stop offset="0.866" stop-color="#DAEEF2"/>
<stop offset="1" stop-color="#DAEDF2"/>
</linearGradient>
<linearGradient id="paint42_linear_2_43" x1="258.428" y1="220.339" x2="330.38" y2="220.339" gradientUnits="userSpaceOnUse">
<stop stop-color="#CEEDEF"/>
<stop offset="0.371" stop-color="#D5EEF0"/>
<stop offset="0.866" stop-color="#DAEEF2"/>
<stop offset="1" stop-color="#DAEDF2"/>
</linearGradient>
<linearGradient id="paint43_linear_2_43" x1="258.164" y1="225.961" x2="330.377" y2="225.961" gradientUnits="userSpaceOnUse">
<stop stop-color="#CEEDEF"/>
<stop offset="0.371" stop-color="#D5EEF0"/>
<stop offset="0.866" stop-color="#DAEEF2"/>
<stop offset="1" stop-color="#DAEDF2"/>
</linearGradient>
<linearGradient id="paint44_linear_2_43" x1="257.349" y1="231.168" x2="329.534" y2="231.168" gradientUnits="userSpaceOnUse">
<stop stop-color="#CEEDEF"/>
<stop offset="0.371" stop-color="#D5EEF0"/>
<stop offset="0.866" stop-color="#DAEEF2"/>
<stop offset="1" stop-color="#DAEDF2"/>
</linearGradient>
<linearGradient id="paint45_linear_2_43" x1="255.749" y1="235.983" x2="327.933" y2="235.983" gradientUnits="userSpaceOnUse">
<stop stop-color="#CEEDEF"/>
<stop offset="0.371" stop-color="#D5EEF0"/>
<stop offset="0.866" stop-color="#DAEEF2"/>
<stop offset="1" stop-color="#DAEDF2"/>
</linearGradient>
<linearGradient id="paint46_linear_2_43" x1="253.356" y1="240.375" x2="325.656" y2="240.375" gradientUnits="userSpaceOnUse">
<stop stop-color="#CEEDEF"/>
<stop offset="0.371" stop-color="#D5EEF0"/>
<stop offset="0.866" stop-color="#DAEEF2"/>
<stop offset="1" stop-color="#DAEDF2"/>
</linearGradient>
<linearGradient id="paint47_linear_2_43" x1="250.32" y1="244.365" x2="322.628" y2="244.365" gradientUnits="userSpaceOnUse">
<stop stop-color="#CEEDEF"/>
<stop offset="0.371" stop-color="#D5EEF0"/>
<stop offset="0.866" stop-color="#DAEEF2"/>
<stop offset="1" stop-color="#DAEDF2"/>
</linearGradient>
<linearGradient id="paint48_linear_2_43" x1="284.092" y1="258.83" x2="318.894" y2="258.83" gradientUnits="userSpaceOnUse">
<stop stop-color="#CEEDEF"/>
<stop offset="0.371" stop-color="#D5EEF0"/>
<stop offset="0.866" stop-color="#DAEEF2"/>
<stop offset="1" stop-color="#DAEDF2"/>
</linearGradient>
<linearGradient id="paint49_linear_2_43" x1="129.535" y1="261.578" x2="80.9481" y2="344.404" gradientUnits="userSpaceOnUse">
<stop stop-color="#B4BBE1" stop-opacity="0.102"/>
<stop offset="0.627" stop-color="#B4BBE1" stop-opacity="0.24"/>
<stop offset="1" stop-color="#B4BBE1" stop-opacity="0.302"/>
</linearGradient>
<linearGradient id="paint50_linear_2_43" x1="244.782" y1="338.547" x2="199.753" y2="412.139" gradientUnits="userSpaceOnUse">
<stop stop-color="#B4BBE1" stop-opacity="0.102"/>
<stop offset="0.627" stop-color="#B4BBE1" stop-opacity="0.24"/>
<stop offset="1" stop-color="#B4BBE1" stop-opacity="0.302"/>
</linearGradient>
<clipPath id="clip0_2_43">
<rect width="461.625" height="411.875" fill="white"/>
</clipPath>
</defs>
</svg>
