<svg width="32" height="32" viewBox="0 0 32 32" fill="none" xmlns="http://www.w3.org/2000/svg">
<g clip-path="url(#clip0_12_3193)">
<path d="M6.55238 29.8941H2.51429C1.84924 29.8883 1.21307 29.6215 0.742793 29.1513C0.272518 28.681 0.00576862 28.0448 0 27.3798L0 20.0655C0.00576862 19.4005 0.272518 18.7643 0.742793 18.294C1.21307 17.8237 1.84924 17.557 2.51429 17.5512H6.55238C7.21743 17.557 7.8536 17.8237 8.32387 18.294C8.79415 18.7643 9.0609 19.4005 9.06667 20.0655V27.3798C9.08313 27.7143 9.02937 28.0486 8.90884 28.3611C8.78831 28.6736 8.60369 28.9574 8.36685 29.1942C8.13001 29.4311 7.8462 29.6157 7.5337 29.7362C7.2212 29.8568 6.88692 29.9105 6.55238 29.8941ZM2.51429 19.3036C2.31222 19.3036 2.11842 19.3839 1.97554 19.5267C1.83265 19.6696 1.75238 19.8634 1.75238 20.0655V27.3798C1.75238 27.5819 1.83265 27.7756 1.97554 27.9185C2.11842 28.0614 2.31222 28.1417 2.51429 28.1417H6.55238C6.75445 28.1417 6.94824 28.0614 7.09113 27.9185C7.23401 27.7756 7.31429 27.5819 7.31429 27.3798V20.0655C7.31429 19.8634 7.23401 19.6696 7.09113 19.5267C6.94824 19.3839 6.75445 19.3036 6.55238 19.3036H2.51429Z" fill="#3EB2E3"/>
<path d="M29.4855 29.8941H25.4474C24.7823 29.8883 24.1462 29.6216 23.6759 29.1513C23.2056 28.681 22.9389 28.0448 22.9331 27.3798V20.0655C22.9389 19.4005 23.2056 18.7643 23.6759 18.294C24.1462 17.8237 24.7823 17.557 25.4474 17.5512H29.4855C30.1505 17.557 30.7867 17.8237 31.257 18.294C31.7273 18.7643 31.994 19.4005 31.9998 20.0655V27.3798C32.0033 27.711 31.9407 28.0395 31.8157 28.3462C31.6906 28.6528 31.5055 28.9314 31.2713 29.1656C31.0371 29.3998 30.7585 29.5849 30.4519 29.71C30.1452 29.835 29.8167 29.8976 29.4855 29.8941ZM25.4474 19.3036C25.2453 19.3036 25.0515 19.3839 24.9086 19.5267C24.7658 19.6696 24.6855 19.8634 24.6855 20.0655V27.3798C24.6855 27.5819 24.7658 27.7756 24.9086 27.9185C25.0515 28.0614 25.2453 28.1417 25.4474 28.1417H29.4855C29.6876 28.1417 29.8814 28.0614 30.0242 27.9185C30.1671 27.7756 30.2474 27.5819 30.2474 27.3798V20.0655C30.2474 19.8634 30.1671 19.6696 30.0242 19.5267C29.8814 19.3839 29.6876 19.3036 29.4855 19.3036H25.4474Z" fill="#3EB2E3"/>
<path d="M32.0001 20.8274H30.2477V17.475C30.2554 14.4495 29.2954 11.5007 27.508 9.05951C25.7206 6.61832 23.1995 4.81262 20.3128 3.90618C17.4262 2.99975 14.3254 3.04008 11.4633 4.02128C8.60126 5.00248 6.12792 6.87314 4.40463 9.36L2.96387 8.27581C5.44338 4.81722 9.1864 2.47557 13.3811 1.75871C17.5759 1.04186 21.8841 2.00759 25.3715 4.44647C27.4462 5.92687 29.1372 7.88162 30.3034 10.1479C31.4697 12.4141 32.0775 14.9263 32.0762 17.475V20.8274H32.0001Z" fill="#3EB2E3"/>
<path d="M0.91413 20.675C0.672201 20.6732 0.44069 20.5763 0.269615 20.4053C0.098541 20.2342 0.00163861 20.0027 -0.000155751 19.7607V17.5512C-0.0218543 14.2159 1.01888 10.9603 2.97127 8.25598L4.41889 9.32265C2.6813 11.714 1.74758 14.5952 1.75223 17.5512V19.7607C1.76757 19.8779 1.75708 19.9971 1.72148 20.1098C1.68589 20.2225 1.62606 20.326 1.5462 20.4132C1.46633 20.5003 1.36837 20.5689 1.25917 20.6141C1.14998 20.6594 1.03221 20.6801 0.91413 20.675Z" fill="#3EB2E3"/>
</g>
<defs>
<clipPath id="clip0_12_3193">
<rect width="32" height="32" fill="white"/>
</clipPath>
</defs>
</svg>
