<svg width="20" height="20" viewBox="0 0 20 20" fill="none" xmlns="http://www.w3.org/2000/svg">
<path d="M14.3306 12.6517L15.2145 13.5355L18.75 9.99999L15.2145 6.46445L14.3305 7.34835L16.3572 9.37499H7.5V10.625H16.3572L14.3306 12.6517Z" fill="#686767"/>
<path d="M15.2926 15.3034C13.8761 16.7199 11.9929 17.5 9.98969 17.5C7.98629 17.5 6.10273 16.7199 4.68609 15.3033C3.26941 13.8868 2.5 12.0033 2.5 10C2.5 7.99684 3.26941 6.11348 4.68613 4.69684C6.10281 3.2802 7.98633 2.5 9.98969 2.5C11.9928 2.5 13.8761 3.2802 15.2926 4.6968C15.3908 4.79524 15.4864 4.89635 15.5791 5H17.1701C15.5891 2.73328 12.9627 1.25 9.98969 1.25C5.15707 1.25 1.25 5.16789 1.25 10C1.25 14.8326 5.15707 18.75 9.98969 18.75C12.9628 18.75 15.5893 17.2668 17.1702 15H15.5792C15.4865 15.1037 15.3909 15.2049 15.2926 15.3034Z" fill="#686767"/>
</svg>
