<svg width="39" height="24" viewBox="0 0 39 24" fill="none" xmlns="http://www.w3.org/2000/svg">
<g clip-path="url(#clip0_56_1647)">
<path d="M2.34 -2.0992e-06C1.75948 -0.0384744 1.18736 0.154567 0.748823 0.536883C0.310284 0.919198 0.0410387 1.45966 0 2.04L0 21.96C0.0410387 22.5403 0.310284 23.0808 0.748823 23.4631C1.18736 23.8454 1.75948 24.0385 2.34 24H35.5C36.1003 24.0527 36.6975 23.8689 37.1645 23.4879C37.6314 23.1069 37.9312 22.5587 38 21.96V2.04C37.9331 1.44045 37.6339 0.891006 37.1665 0.509605C36.6991 0.128204 36.1008 -0.054755 35.5 -2.0992e-06H2.34Z" fill="#333333"/>
<path d="M20.9763 12C20.9763 13.4739 20.5392 14.9146 19.7204 16.1401C18.9015 17.3656 17.7377 18.3207 16.376 18.8848C15.0144 19.4488 13.516 19.5964 12.0705 19.3088C10.6249 19.0213 9.29709 18.3115 8.25491 17.2694C7.21273 16.2272 6.50299 14.8994 6.21546 13.4538C5.92792 12.0083 6.07549 10.5099 6.63952 9.14825C7.20354 7.78657 8.15868 6.62273 9.38416 5.80389C10.6096 4.98506 12.0504 4.548 13.5243 4.548C15.5007 4.548 17.3961 5.33312 18.7936 6.73064C20.1911 8.12817 20.9763 10.0236 20.9763 12Z" fill="#D9222A"/>
<path d="M23.532 4.54801C21.6829 4.54733 19.9001 5.23622 18.532 6.48001C18.262 6.72625 18.0094 6.99088 17.776 7.27201H19.276C19.4814 7.52317 19.6698 7.78775 19.84 8.06401H17.2C17.0418 8.32002 16.8976 8.5844 16.768 8.85601H20.284C20.4075 9.11188 20.5118 9.37661 20.596 9.64801H16.468C16.384 9.91467 16.312 10.1787 16.252 10.44H20.812C20.9218 10.9568 20.9781 11.4836 20.98 12.012C20.9822 12.8157 20.8525 13.6143 20.596 14.376H16.468C16.5562 14.6459 16.6604 14.9104 16.78 15.168H20.28C20.1504 15.4396 20.0062 15.704 19.848 15.96H17.208C17.3781 16.2363 17.5665 16.5009 17.772 16.752H19.272C19.0388 17.0334 18.7862 17.298 18.516 17.544C19.4143 18.3536 20.496 18.9326 21.6679 19.2311C22.8397 19.5296 24.0666 19.5388 25.2428 19.2577C26.419 18.9767 27.5092 18.4139 28.4195 17.6178C29.3298 16.8217 30.0329 15.8163 30.4683 14.6881C30.9036 13.5598 31.0581 12.3427 30.9184 11.1415C30.7787 9.94027 30.3491 8.79104 29.6665 7.7928C28.9839 6.79455 28.0689 5.97724 27.0002 5.41128C25.9315 4.84532 24.7412 4.54768 23.532 4.54401" fill="#EE9F2D"/>
<path d="M10.0329 13.956H9.23288L9.70087 11.056L8.66888 13.956H8.11688L8.04487 11.064L7.55288 13.956H6.79688L7.43288 10.176H8.59687L8.63287 12.516L9.41287 10.176H10.6729L10.0369 13.956M12.0289 12.588C11.9693 12.5788 11.9091 12.5747 11.8489 12.576C11.3929 12.576 11.1489 12.732 11.1489 13.044C11.1439 13.0841 11.1477 13.1248 11.1601 13.1633C11.1725 13.2018 11.1931 13.2371 11.2205 13.2668C11.2479 13.2965 11.2815 13.3199 11.3188 13.3353C11.3562 13.3507 11.3965 13.3578 11.4369 13.356C11.7729 13.356 12.0009 13.044 12.0249 12.588H12.0289ZM12.6169 13.956H11.9449L11.9569 13.632C11.8545 13.7571 11.7239 13.856 11.5757 13.9207C11.4276 13.9854 11.2662 14.0139 11.1049 14.004C10.9993 14.0024 10.8953 13.9788 10.7993 13.9347C10.7034 13.8906 10.6177 13.827 10.5477 13.748C10.4777 13.669 10.425 13.5762 10.3928 13.4757C10.3606 13.3751 10.3497 13.269 10.3609 13.164C10.3609 12.42 10.8889 11.976 11.7769 11.976C11.8769 11.976 11.9769 11.988 12.1009 12C12.1212 11.9351 12.1333 11.8679 12.1369 11.8C12.1369 11.6 11.9929 11.524 11.6209 11.524C11.3321 11.5283 11.0454 11.5727 10.7689 11.656C10.7809 11.608 10.8769 10.956 10.8769 10.956C11.1904 10.8507 11.5182 10.794 11.8489 10.788C12.5489 10.788 12.9169 11.1 12.9169 11.688C12.9097 11.893 12.8897 12.0975 12.8569 12.3C12.7809 12.78 12.6249 13.728 12.6129 13.956H12.6169ZM23.4649 10.284L23.3329 11.1C23.1124 10.9765 22.8654 10.9079 22.6129 10.9C22.0129 10.9 21.5809 11.488 21.5809 12.316C21.5809 12.892 21.8689 13.24 22.3369 13.24C22.5768 13.2308 22.8112 13.165 23.0209 13.048L22.8769 13.912C22.6436 13.9839 22.4009 14.0203 22.1569 14.02C21.2809 14.02 20.7409 13.396 20.7409 12.388C20.7409 11.032 21.4849 10.096 22.5649 10.096C22.8733 10.1105 23.1774 10.1754 23.4649 10.288M24.7729 12.588C24.7133 12.5788 24.6531 12.5747 24.5929 12.576C24.1369 12.576 23.8929 12.732 23.8929 13.044C23.8879 13.0841 23.8917 13.1248 23.9041 13.1633C23.9165 13.2018 23.9371 13.2371 23.9645 13.2668C23.9919 13.2965 24.0255 13.3199 24.0628 13.3353C24.1002 13.3507 24.1405 13.3578 24.1809 13.356C24.5169 13.356 24.7569 13.044 24.7689 12.588H24.7729ZM25.3609 13.956H24.6889L24.7009 13.632C24.5984 13.757 24.4678 13.8559 24.3197 13.9206C24.1716 13.9853 24.0102 14.0138 23.8489 14.004C23.7433 14.0024 23.6393 13.9788 23.5433 13.9347C23.4474 13.8906 23.3617 13.827 23.2917 13.748C23.2217 13.669 23.169 13.5762 23.1368 13.4757C23.1046 13.3751 23.0938 13.269 23.1049 13.164C23.1049 12.42 23.6329 11.976 24.5209 11.976C24.6209 11.976 24.7209 11.988 24.8449 12C24.8652 11.9351 24.8773 11.8679 24.8809 11.8C24.8809 11.6 24.7369 11.524 24.3649 11.524C24.0761 11.5283 23.7894 11.5727 23.5129 11.656C23.5249 11.608 23.6209 10.956 23.6209 10.956C23.9344 10.8507 24.2622 10.794 24.5929 10.788C25.2929 10.788 25.6609 11.1 25.6609 11.688C25.6537 11.893 25.6337 12.0975 25.6009 12.3C25.5122 12.8509 25.4308 13.4029 25.3569 13.956H25.3609ZM16.2049 13.92C16.0198 13.9854 15.8251 14.0192 15.6289 14.02C15.5403 14.0275 15.4512 14.0149 15.3682 13.9832C15.2851 13.9515 15.2103 13.9016 15.1492 13.837C15.0881 13.7725 15.0423 13.695 15.0153 13.6103C14.9882 13.5257 14.9805 13.436 14.9929 13.348C14.9929 13.216 15.0529 12.856 15.1009 12.532L15.4489 10.432H16.2489L16.1489 10.9H16.5569L16.4489 11.644H16.0289C15.9289 12.232 15.8009 12.952 15.8009 13.044C15.8009 13.2 15.8849 13.272 16.0769 13.272C16.1496 13.2728 16.2221 13.2647 16.2929 13.248L16.1929 13.92M18.6649 13.896C18.3966 13.9778 18.1174 14.0182 17.8369 14.016C17.6514 14.0405 17.4629 14.0219 17.2857 13.9618C17.1086 13.9017 16.9477 13.8017 16.8154 13.6694C16.6832 13.5372 16.5831 13.3763 16.523 13.1991C16.4629 13.022 16.4444 12.8334 16.4689 12.648C16.4689 11.592 17.0689 10.824 17.8689 10.824C18.0167 10.815 18.1647 10.838 18.3029 10.8912C18.441 10.9445 18.5661 11.0268 18.6697 11.1326C18.7733 11.2385 18.8529 11.3654 18.9031 11.5046C18.9533 11.6439 18.973 11.7924 18.9609 11.94C18.9581 12.1951 18.9245 12.4489 18.8609 12.696H17.2609C17.2009 13.14 17.4889 13.332 17.9609 13.332C18.2517 13.3315 18.5387 13.2659 18.8009 13.14L18.6569 13.896H18.6649ZM18.2089 12.072C18.2089 12.012 18.2929 11.52 17.8369 11.52C17.5849 11.52 17.3929 11.712 17.3209 12.072H18.2089ZM13.0849 11.856C13.085 12.0456 13.144 12.2305 13.2536 12.3852C13.3632 12.54 13.5181 12.6569 13.6969 12.72C14.0209 12.876 14.0809 12.92 14.0809 13.056C14.0809 13.248 13.9369 13.332 13.6129 13.332C13.3679 13.3322 13.1246 13.2916 12.8929 13.212C12.8929 13.212 12.7849 13.884 12.7849 13.92C13.0613 13.9787 13.3424 14.0122 13.6249 14.02C14.4769 14.02 14.8729 13.696 14.8729 12.988C14.8857 12.8021 14.836 12.6172 14.7316 12.4628C14.6272 12.3084 14.4742 12.1934 14.2969 12.136C13.9609 11.98 13.9129 11.944 13.9129 11.8C13.9129 11.632 14.0462 11.548 14.3129 11.548C14.5059 11.548 14.6985 11.5641 14.8889 11.596L15.0089 10.888C14.7746 10.8512 14.538 10.8311 14.3009 10.828C13.4009 10.828 13.0889 11.296 13.0889 11.86M29.6369 13.96H28.8689L28.9049 13.672C28.8149 13.7812 28.701 13.8684 28.572 13.9266C28.443 13.9849 28.3023 14.0127 28.1609 14.008C27.5729 14.008 27.1889 13.508 27.1889 12.736C27.1889 11.716 27.7889 10.852 28.5089 10.852C28.6619 10.8517 28.8125 10.89 28.9468 10.9635C29.081 11.0369 29.1946 11.143 29.2769 11.272L29.4569 10.18H30.2489L29.6369 13.96ZM28.4369 13.252C28.8089 13.252 29.0729 12.82 29.0729 12.22C29.0729 11.82 28.9169 11.62 28.6409 11.62C28.2689 11.62 28.0169 12.052 28.0169 12.652C28.0329 13.044 28.1649 13.248 28.4409 13.248L28.4369 13.252ZM26.0849 10.888C25.9849 11.836 25.8089 12.808 25.6649 13.756L25.6289 13.956H26.4289C26.7169 12.072 26.7889 11.712 27.2449 11.756C27.2971 11.4443 27.4026 11.1439 27.5569 10.868C27.2209 10.796 27.0289 10.988 26.7769 11.348C26.8106 11.1943 26.8267 11.0373 26.8249 10.88H26.0809M19.4209 10.88C19.3209 11.828 19.1449 12.8 19.0009 13.748L18.9649 13.948H19.7649C20.0529 12.064 20.1249 11.704 20.5809 11.748C20.6331 11.4363 20.7387 11.1359 20.8929 10.86C20.5569 10.788 20.3649 10.98 20.1129 11.34C20.1466 11.1863 20.1627 11.0293 20.1609 10.872H19.4169M29.9769 13.704C29.9769 13.6565 29.991 13.6101 30.0173 13.5707C30.0437 13.5312 30.0812 13.5004 30.125 13.4823C30.1689 13.4641 30.2171 13.4593 30.2637 13.4686C30.3103 13.4779 30.353 13.5007 30.3866 13.5343C30.4201 13.5679 30.443 13.6106 30.4523 13.6572C30.4615 13.7037 30.4568 13.752 30.4386 13.7958C30.4204 13.8397 30.3897 13.8772 30.3502 13.9035C30.3107 13.9299 30.2643 13.944 30.2169 13.944C30.1851 13.945 30.1535 13.9394 30.1239 13.9277C30.0943 13.916 30.0675 13.8983 30.045 13.8759C30.0225 13.8534 30.0049 13.8265 29.9932 13.797C29.9814 13.7674 29.9759 13.7358 29.9769 13.704ZM30.2169 13.896C30.2525 13.896 30.2873 13.8854 30.3169 13.8657C30.3465 13.8459 30.3695 13.8178 30.3832 13.7849C30.3968 13.752 30.4004 13.7158 30.3934 13.6809C30.3865 13.646 30.3693 13.6139 30.3442 13.5887C30.319 13.5635 30.2869 13.5464 30.252 13.5395C30.2171 13.5325 30.1809 13.5361 30.148 13.5497C30.1151 13.5633 30.087 13.5864 30.0672 13.616C30.0474 13.6456 30.0369 13.6804 30.0369 13.716C30.0359 13.7415 30.0402 13.7669 30.0495 13.7906C30.0588 13.8144 30.0729 13.8359 30.0909 13.8539C30.109 13.872 30.1305 13.8861 30.1543 13.8954C30.178 13.9047 30.2034 13.909 30.2289 13.908L30.2169 13.896ZM30.1929 13.812H30.1449V13.596H30.2289C30.2529 13.596 30.2649 13.596 30.2769 13.608C30.2895 13.6212 30.2979 13.6379 30.3009 13.656C30.3011 13.6684 30.2978 13.6805 30.2915 13.6912C30.2851 13.7018 30.2759 13.7104 30.2649 13.716L30.3009 13.816H30.2409L30.2049 13.732H30.1689L30.1929 13.812ZM30.1929 13.692H30.2529C30.2649 13.692 30.2649 13.68 30.2649 13.668C30.2649 13.656 30.2649 13.656 30.2529 13.644H30.1929V13.692Z" fill="white"/>
</g>
<defs>
<clipPath id="clip0_56_1647">
<rect width="38.004" height="24" fill="white"/>
</clipPath>
</defs>
</svg>
