<svg width="32" height="32" viewBox="0 0 32 32" fill="none" xmlns="http://www.w3.org/2000/svg">
<g clip-path="url(#clip0_12_3199)">
<path d="M21.5624 18.9714C22.6441 18.9715 23.7016 19.2914 24.602 19.8909C25.5024 20.4904 26.2055 21.3427 26.6228 22.3406C27.0402 23.3386 27.1532 24.4377 26.9476 25.4996C26.742 26.5616 26.2271 27.5392 25.4675 28.3093C24.7079 29.0794 23.7376 29.6078 22.6785 29.828C21.6195 30.0482 20.519 29.9504 19.5153 29.5468C18.5117 29.1433 17.6498 28.452 17.038 27.56C16.4261 26.668 16.0917 25.6149 16.0767 24.5333C16.0805 23.0725 16.6572 21.6715 17.683 20.6315C18.7088 19.5914 20.1018 18.9954 21.5624 18.9714ZM21.5624 16.9905C20.0856 16.9905 18.642 17.4284 17.4141 18.2488C16.1862 19.0693 15.2292 20.2354 14.6641 21.5998C14.0989 22.9641 13.9511 24.4654 14.2392 25.9138C14.5273 27.3622 15.2384 28.6926 16.2826 29.7369C17.3269 30.7811 18.6573 31.4922 20.1057 31.7803C21.5541 32.0684 23.0554 31.9206 24.4197 31.3554C25.7841 30.7903 26.9502 29.8333 27.7707 28.6054C28.5911 27.3775 29.029 25.9339 29.029 24.4571C29.0258 22.4779 28.2381 20.5805 26.8385 19.181C25.439 17.7814 23.5417 16.9937 21.5624 16.9905Z" fill="#6885E9"/>
<path d="M25.0669 -2.57815e-05H7.08595C6.02899 0.00290385 5.01506 0.418885 4.26059 1.15911C3.50613 1.89934 3.07091 2.90517 3.04785 3.96188V27.9619C3.05078 29.0188 3.46676 30.0328 4.20699 30.7872C4.94722 31.5417 5.95305 31.9769 7.00976 32H9.98119V30.019H7.08595C6.56344 30.0098 6.0649 29.7982 5.69538 29.4286C5.32585 29.0591 5.11419 28.5606 5.10499 28.0381V3.96188C5.11419 3.43937 5.32585 2.94084 5.69538 2.57131C6.0649 2.20178 6.56344 1.99012 7.08595 1.98093H25.0669C25.5894 1.99012 26.0879 2.20178 26.4575 2.57131C26.827 2.94084 27.0387 3.43937 27.0479 3.96188V12.9524H29.0288V3.96188C29.0324 3.44058 28.9325 2.92375 28.7346 2.44142C28.5368 1.95909 28.2451 1.52088 27.8765 1.15226C27.5079 0.783634 27.0697 0.49194 26.5874 0.294128C26.105 0.0963149 25.5882 -0.0036728 25.0669 -2.57815e-05Z" fill="#6885E9"/>
<path d="M13.1052 32C13.6522 32 14.0957 31.5565 14.0957 31.0095C14.0957 30.4625 13.6522 30.019 13.1052 30.019C12.5582 30.019 12.1147 30.4625 12.1147 31.0095C12.1147 31.5565 12.5582 32 13.1052 32Z" fill="#6885E9"/>
<path d="M28.0383 16.9905C28.5854 16.9905 29.0288 16.547 29.0288 16C29.0288 15.453 28.5854 15.0095 28.0383 15.0095C27.4913 15.0095 27.0479 15.453 27.0479 16C27.0479 16.547 27.4913 16.9905 28.0383 16.9905Z" fill="#6885E9"/>
<path d="M27.0479 12.5714H29.0288V16H27.0479V12.5714Z" fill="#6885E9"/>
<path d="M9.29541 30.019H13.1049V32H9.29541V30.019Z" fill="#6885E9"/>
<path d="M22.0955 7.00952H10.0574C9.79468 7.00952 9.54275 6.90516 9.357 6.71941C9.17125 6.53366 9.06689 6.28173 9.06689 6.01904C9.06689 5.75635 9.17125 5.50442 9.357 5.31867C9.54275 5.13292 9.79468 5.02856 10.0574 5.02856H22.0193C22.2805 5.03326 22.5297 5.13912 22.7145 5.32386C22.8992 5.5086 23.0051 5.75782 23.0098 6.01904C23.0159 6.14438 22.997 6.26968 22.9542 6.38763C22.9113 6.50558 22.8454 6.61382 22.7603 6.70602C22.6752 6.79823 22.5726 6.87256 22.4584 6.92467C22.3443 6.97677 22.2209 7.00562 22.0955 7.00952Z" fill="#6885E9"/>
<path d="M22.0955 10.7429H10.0574C9.79468 10.7429 9.54275 10.6385 9.357 10.4528C9.17125 10.267 9.06689 10.0151 9.06689 9.75238C9.06689 9.48969 9.17125 9.23776 9.357 9.05201C9.54275 8.86626 9.79468 8.7619 10.0574 8.7619H22.0193C22.2805 8.7666 22.5297 8.87246 22.7145 9.0572C22.8992 9.24194 23.0051 9.49115 23.0098 9.75238C23.0289 9.8803 23.019 10.0109 22.981 10.1345C22.9429 10.2581 22.8776 10.3716 22.7899 10.4667C22.7022 10.5617 22.5942 10.6358 22.4741 10.6836C22.3539 10.7314 22.2245 10.7517 22.0955 10.7429Z" fill="#6885E9"/>
<path d="M18.0574 14.4762H10.0574C9.79468 14.4762 9.54275 14.3718 9.357 14.1861C9.17125 14.0003 9.06689 13.7484 9.06689 13.4857C9.06689 13.223 9.17125 12.9711 9.357 12.7853C9.54275 12.5996 9.79468 12.4952 10.0574 12.4952H18.0574C18.3186 12.4999 18.5678 12.6058 18.7526 12.7905C18.9373 12.9753 19.0432 13.2245 19.0478 13.4857C19.0584 13.6185 19.04 13.7519 18.994 13.8769C18.948 14.0019 18.8753 14.1153 18.7812 14.2095C18.687 14.3037 18.5735 14.3763 18.4486 14.4223C18.3236 14.4684 18.1901 14.4868 18.0574 14.4762Z" fill="#6885E9"/>
<path d="M21.5623 28.4952C21.301 28.4905 21.0518 28.3847 20.8671 28.1999C20.6823 28.0152 20.5765 27.766 20.5718 27.5048V21.4857C20.5718 21.223 20.6761 20.9711 20.8619 20.7853C21.0476 20.5996 21.2996 20.4952 21.5623 20.4952C21.8249 20.4952 22.0769 20.5996 22.2626 20.7853C22.4484 20.9711 22.5527 21.223 22.5527 21.4857V27.5048C22.548 27.766 22.4422 28.0152 22.2574 28.1999C22.0727 28.3847 21.8235 28.4905 21.5623 28.4952Z" fill="#6885E9"/>
<path d="M21.562 28.6476C21.4318 28.6545 21.3018 28.6304 21.1826 28.5774C21.0634 28.5245 20.9585 28.4441 20.8763 28.3429L18.0572 25.5238C17.8733 25.3277 17.771 25.0689 17.771 24.8C17.771 24.5311 17.8733 24.2723 18.0572 24.0762C18.1499 23.977 18.262 23.8979 18.3865 23.8438C18.511 23.7897 18.6453 23.7618 18.781 23.7618C18.9168 23.7618 19.0511 23.7897 19.1756 23.8438C19.3001 23.8979 19.4122 23.977 19.5048 24.0762L22.3239 26.8952C22.5078 27.0914 22.6101 27.3502 22.6101 27.6191C22.6101 27.8879 22.5078 28.1467 22.3239 28.3429C22.2265 28.4458 22.108 28.5264 21.9764 28.579C21.8449 28.6316 21.7035 28.655 21.562 28.6476Z" fill="#6885E9"/>
<path d="M21.5623 28.6476C21.4321 28.6544 21.3021 28.6304 21.1829 28.5774C21.0637 28.5244 20.9588 28.4441 20.8766 28.3428C20.6927 28.1467 20.5903 27.8879 20.5903 27.619C20.5903 27.3501 20.6927 27.0913 20.8766 26.8952L23.6956 24.0761C23.8918 23.8923 24.1506 23.7899 24.4194 23.7899C24.6883 23.7899 24.9471 23.8923 25.1432 24.0761C25.2424 24.1688 25.3215 24.2809 25.3756 24.4054C25.4297 24.5299 25.4576 24.6642 25.4576 24.8C25.4576 24.9357 25.4297 25.07 25.3756 25.1945C25.3215 25.319 25.2424 25.4311 25.1432 25.5238L22.3242 28.3428C22.2268 28.4458 22.1083 28.5263 21.9767 28.5789C21.8452 28.6316 21.7038 28.655 21.5623 28.6476Z" fill="#6885E9"/>
</g>
<defs>
<clipPath id="clip0_12_3199">
<rect width="32" height="32" fill="white"/>
</clipPath>
</defs>
</svg>
