<svg width="41" height="40" viewBox="0 0 41 40" fill="none" xmlns="http://www.w3.org/2000/svg">
<g clip-path="url(#clip0_56_1723)">
<path d="M20.5895 27.7143C17.8472 27.713 15.2175 26.649 13.2784 24.7561C11.3393 22.8631 10.2493 20.2961 10.248 17.619V10.0952C10.248 7.43043 11.3325 4.87478 13.2627 2.99049C15.193 1.10619 17.8109 0.0476074 20.5407 0.0476074C23.2705 0.0476074 25.8885 1.10619 27.8188 2.99049C29.749 4.87478 30.8334 7.43043 30.8334 10.0952V17.619C30.8374 20.2812 29.7625 22.8368 27.8433 24.7281C25.9241 26.6194 23.3165 27.6929 20.5895 27.7143ZM20.5895 2.47618C18.5467 2.48046 16.5889 3.27451 15.1445 4.68458C13.7 6.09464 12.8866 8.00586 12.8822 9.99999V17.5238C12.8822 18.5118 13.0815 19.4902 13.4689 20.403C13.8562 21.3159 14.4239 22.1453 15.1396 22.8439C15.8553 23.5426 16.705 24.0968 17.64 24.4749C18.5751 24.853 19.5774 25.0476 20.5895 25.0476C21.6016 25.0476 22.6039 24.853 23.539 24.4749C24.4741 24.0968 25.3237 23.5426 26.0394 22.8439C26.7551 22.1453 27.3228 21.3159 27.7101 20.403C28.0975 19.4902 28.2968 18.5118 28.2968 17.5238V10.0952C28.297 8.09092 27.4881 6.16728 26.0454 4.74114C24.6028 3.315 22.6425 2.50123 20.5895 2.47618Z" fill="#333333"/>
<path d="M20.9888 33.5238H20.501C13.8668 33.5238 7.72047 29.8095 5.47656 24.2857C5.47656 24.3809 5.57412 24.3809 5.57412 24.4762L7.6229 23.0476C7.68241 23.0929 7.7308 23.1507 7.76456 23.2166C7.79832 23.2825 7.81658 23.3549 7.81803 23.4286C9.67168 28 14.8424 31.1428 20.501 31.1428C23.1562 31.2092 25.7715 30.5017 28.0131 29.1108C30.2547 27.7198 32.0209 25.7084 33.0863 23.3333L35.4278 24.3809C34.1988 27.115 32.1765 29.4379 29.6105 31.0627C27.0445 32.6875 24.0472 33.5431 20.9888 33.5238Z" fill="#333333"/>
<path d="M6.6472 24.9524C7.34766 24.9524 7.91549 24.3981 7.91549 23.7143C7.91549 23.0305 7.34766 22.4762 6.6472 22.4762C5.94674 22.4762 5.37891 23.0305 5.37891 23.7143C5.37891 24.3981 5.94674 24.9524 6.6472 24.9524Z" fill="#333333"/>
<path d="M34.3542 24.9524C35.0547 24.9524 35.6225 24.3981 35.6225 23.7143C35.6225 23.0305 35.0547 22.4762 34.3542 22.4762C33.6538 22.4762 33.0859 23.0305 33.0859 23.7143C33.0859 24.3981 33.6538 24.9524 34.3542 24.9524Z" fill="#333333"/>
<path d="M19.2324 32.1905H21.769V39.0476H19.2324V32.1905Z" fill="#333333"/>
<path d="M24.8908 40H16.3054C15.969 40 15.6464 39.8696 15.4086 39.6374C15.1707 39.4052 15.0371 39.0903 15.0371 38.7619C15.0371 38.4335 15.1707 38.1186 15.4086 37.8864C15.6464 37.6542 15.969 37.5238 16.3054 37.5238H24.8908C25.2271 37.5238 25.5497 37.6542 25.7876 37.8864C26.0254 38.1186 26.1591 38.4335 26.1591 38.7619C26.1591 39.0903 26.0254 39.4052 25.7876 39.6374C25.5497 39.8696 25.2271 40 24.8908 40Z" fill="#333333"/>
<path d="M21.4762 16.8571L21.086 15.7143H17.3787L16.9884 16.8571C16.8909 17.1429 16.6957 17.5238 16.5982 17.8095C16.525 17.8928 16.4356 17.961 16.3351 18.0101C16.2345 18.0592 16.125 18.0881 16.0128 18.0952C15.8987 18.0981 15.7856 18.0736 15.6836 18.0238C15.5815 17.974 15.4935 17.9004 15.4274 17.8095C15.3421 17.7381 15.2722 17.6508 15.222 17.5527C15.1717 17.4545 15.1421 17.3476 15.1348 17.2381V16.8571C15.155 16.6548 15.2217 16.4595 15.3299 16.2857L17.5738 10.4762L17.8665 9.90476L18.1592 9.33333C18.2567 9.14286 18.4518 9.04762 18.5494 8.95238C18.7658 8.86734 19.0001 8.83467 19.2323 8.85714C19.4643 8.84181 19.697 8.87426 19.9153 8.95238C20.0895 9.0273 20.2288 9.16321 20.3055 9.33333C20.4031 9.52381 20.5006 9.61905 20.5982 9.80952C20.7134 10.024 20.8113 10.2469 20.8909 10.4762L23.3299 16.2857C23.5153 16.5709 23.6165 16.9004 23.6226 17.2381C23.6256 17.3495 23.6004 17.4599 23.5494 17.5595C23.4983 17.6592 23.423 17.745 23.3299 17.8095C23.2154 17.9471 23.0553 18.0414 22.8772 18.0762C22.6991 18.111 22.5142 18.084 22.3543 18C22.2567 17.9048 22.1592 17.9048 22.0616 17.8095C21.9588 17.7046 21.8908 17.5718 21.8665 17.4286L21.4762 16.8571ZM17.7689 14.381H20.5006L19.1348 10.5714L17.7689 14.381ZM24.3055 16.9524V9.80952C24.3128 9.50163 24.4148 9.20299 24.5982 8.95238C24.6863 8.86214 24.7922 8.79029 24.9096 8.74121C25.027 8.69212 25.1534 8.66681 25.2811 8.66681C25.4088 8.66681 25.5352 8.69212 25.6526 8.74121C25.77 8.79029 25.8759 8.86214 25.964 8.95238C26.1608 9.19614 26.2643 9.49926 26.2567 9.80952V16.8571C26.2494 17.165 26.1474 17.4637 25.964 17.7143C25.8759 17.8045 25.77 17.8764 25.6526 17.9255C25.5352 17.9745 25.4088 17.9999 25.2811 17.9999C25.1534 17.9999 25.027 17.9745 24.9096 17.9255C24.7922 17.8764 24.6863 17.8045 24.5982 17.7143C24.4662 17.6404 24.3647 17.5239 24.3113 17.3848C24.2579 17.2457 24.2558 17.0928 24.3055 16.9524Z" fill="#333333"/>
</g>
<defs>
<clipPath id="clip0_56_1723">
<rect width="40" height="40" fill="white" transform="translate(0.5)"/>
</clipPath>
</defs>
</svg>
