<svg width="16" height="17" viewBox="0 0 16 17" fill="none" xmlns="http://www.w3.org/2000/svg">
<mask id="path-1-inside-1_285_949" fill="white">
<path d="M14.3158 11.625H1.68421C1.03112 11.625 0.5 11.0994 0.5 10.4531V3.42187C0.5 2.77559 1.03112 2.25 1.68421 2.25H14.3158C14.9689 2.25 15.5 2.77559 15.5 3.42187V10.4531C15.5 11.0994 14.9689 11.625 14.3158 11.625ZM1.68421 3.03125C1.46651 3.03125 1.28947 3.20645 1.28947 3.42187V10.4531C1.28947 10.6686 1.46651 10.8438 1.68421 10.8438H14.3158C14.5335 10.8438 14.7105 10.6686 14.7105 10.4531V3.42187C14.7105 3.20645 14.5335 3.03125 14.3158 3.03125H1.68421Z"/>
</mask>
<path d="M14.3158 11.625H1.68421C1.03112 11.625 0.5 11.0994 0.5 10.4531V3.42187C0.5 2.77559 1.03112 2.25 1.68421 2.25H14.3158C14.9689 2.25 15.5 2.77559 15.5 3.42187V10.4531C15.5 11.0994 14.9689 11.625 14.3158 11.625ZM1.68421 3.03125C1.46651 3.03125 1.28947 3.20645 1.28947 3.42187V10.4531C1.28947 10.6686 1.46651 10.8438 1.68421 10.8438H14.3158C14.5335 10.8438 14.7105 10.6686 14.7105 10.4531V3.42187C14.7105 3.20645 14.5335 3.03125 14.3158 3.03125H1.68421Z" fill="#333333"/>
<path d="M14.3158 10.625H1.68421V12.625H14.3158V10.625ZM1.68421 10.625C1.57351 10.625 1.5 10.5373 1.5 10.4531H-0.5C-0.5 11.6615 0.488732 12.625 1.68421 12.625V10.625ZM1.5 10.4531V3.42187H-0.5V10.4531H1.5ZM1.5 3.42187C1.5 3.33772 1.57351 3.25 1.68421 3.25V1.25C0.488732 1.25 -0.5 2.21345 -0.5 3.42187H1.5ZM1.68421 3.25H14.3158V1.25H1.68421V3.25ZM14.3158 3.25C14.4265 3.25 14.5 3.33772 14.5 3.42187H16.5C16.5 2.21345 15.5113 1.25 14.3158 1.25V3.25ZM14.5 3.42187V10.4531H16.5V3.42187H14.5ZM14.5 10.4531C14.5 10.5373 14.4265 10.625 14.3158 10.625V12.625C15.5113 12.625 16.5 11.6615 16.5 10.4531H14.5ZM1.68421 2.03125C0.924127 2.03125 0.289474 2.64431 0.289474 3.42187H2.28947C2.28947 3.76858 2.0089 4.03125 1.68421 4.03125V2.03125ZM0.289474 3.42187V10.4531H2.28947V3.42187H0.289474ZM0.289474 10.4531C0.289474 11.2307 0.924127 11.8438 1.68421 11.8438V9.84375C2.0089 9.84375 2.28947 10.1064 2.28947 10.4531H0.289474ZM1.68421 11.8438H14.3158V9.84375H1.68421V11.8438ZM14.3158 11.8438C15.0759 11.8438 15.7105 11.2307 15.7105 10.4531H13.7105C13.7105 10.1064 13.9911 9.84375 14.3158 9.84375V11.8438ZM15.7105 10.4531V3.42187H13.7105V10.4531H15.7105ZM15.7105 3.42187C15.7105 2.64431 15.0759 2.03125 14.3158 2.03125V4.03125C13.9911 4.03125 13.7105 3.76858 13.7105 3.42187H15.7105ZM14.3158 2.03125H1.68421V4.03125H14.3158V2.03125Z" fill="#12D3BF" mask="url(#path-1-inside-1_285_949)"/>
<path d="M8 14.375C7.90054 14.375 7.80516 14.334 7.73483 14.2611C7.66451 14.1882 7.625 14.0893 7.625 13.9861V11.2639C7.625 11.1607 7.66451 11.0618 7.73483 10.9889C7.80516 10.916 7.90054 10.875 8 10.875C8.09946 10.875 8.19484 10.916 8.26517 10.9889C8.33549 11.0618 8.375 11.1607 8.375 11.2639V13.9861C8.375 14.0893 8.33549 14.1882 8.26517 14.2611C8.19484 14.334 8.09946 14.375 8 14.375Z" fill="#333333"/>
<rect x="5.25" y="13.875" width="5.5" height="0.75" rx="0.375" fill="#333333"/>
</svg>
