<svg width="38" height="40" viewBox="0 0 38 40" fill="none" xmlns="http://www.w3.org/2000/svg">
<path d="M32.991 1.00276H33.0084L33.0259 1.00215C33.9528 0.969765 34.8551 1.30462 35.5365 1.93391C36.2128 2.55847 36.6172 3.42293 36.6636 4.34176V35.6577C36.6172 36.5765 36.2128 37.441 35.5365 38.0655C34.8551 38.6948 33.9528 39.0297 33.0259 38.9973L33.0084 38.9967H32.991H5.01923H5.00005L4.98088 38.9974C4.05116 39.0331 3.14524 38.6986 2.46179 38.0673C1.78304 37.4403 1.37874 36.5714 1.33594 35.6489V4.34179C1.38235 3.4239 1.78606 2.56024 2.4612 1.93583C3.14145 1.30669 4.04238 0.971212 4.96845 1.0022L4.98517 1.00276H5.00189H32.991Z" stroke="#333333" stroke-width="2"/>
<mask id="path-2-inside-1_56_1845" fill="white">
<path d="M24.5279 8.69877C25.228 8.69887 25.9039 8.95544 26.4276 9.42C26.4532 9.44179 26.4696 9.47243 26.4736 9.5058C26.4776 9.53917 26.4688 9.57281 26.449 9.59997L25.6704 10.6571C25.6596 10.6719 25.6458 10.6842 25.63 10.6934C25.6142 10.7025 25.5966 10.7084 25.5784 10.7105H25.5598C25.528 10.7105 25.4973 10.6991 25.4731 10.6785C25.2419 10.4456 24.9305 10.3098 24.6026 10.2985C23.7174 10.2985 23.1455 11.0104 23.1455 12.1116C23.1455 13.1781 23.7134 13.9033 24.5586 13.9033C24.9769 13.8812 25.3748 13.7155 25.6851 13.4341C25.7091 13.4142 25.7393 13.4033 25.7704 13.4034H25.7931C25.812 13.4066 25.83 13.4138 25.8459 13.4247C25.8618 13.4355 25.8752 13.4496 25.8851 13.466L26.5303 14.5459C26.5463 14.5725 26.5525 14.6038 26.5478 14.6344C26.5432 14.6651 26.5281 14.6932 26.505 14.7139C25.9152 15.2251 25.1605 15.5058 24.38 15.5044C23.9417 15.5145 23.5062 15.4318 23.1021 15.2618C22.6979 15.0918 22.3343 14.8384 22.035 14.518C21.7357 14.1977 21.5074 13.8177 21.3652 13.403C21.223 12.9883 21.17 12.5482 21.2098 12.1116C21.194 11.646 21.2744 11.1822 21.446 10.7492C21.6176 10.3161 21.8766 9.92307 22.207 9.59464C22.8351 9.00631 23.6674 8.68508 24.5279 8.69877ZM17.3744 15.4417C16.9499 15.4387 16.5307 15.3482 16.1428 15.176C15.7548 15.0038 15.4065 14.7536 15.1195 14.441C14.8325 14.1283 14.6129 13.7599 14.4745 13.3587C14.336 12.9575 14.2817 12.5321 14.3148 12.1089C14.2872 11.6902 14.3458 11.2702 14.487 10.875C14.6282 10.4798 14.8491 10.1178 15.1359 9.81138C15.4227 9.505 15.7694 9.26076 16.1544 9.09378C16.5395 8.92681 16.9547 8.84065 17.3744 8.84065C17.794 8.84065 18.2093 8.92681 18.5943 9.09378C18.9793 9.26076 19.326 9.505 19.6128 9.81138C19.8996 10.1178 20.1205 10.4798 20.2617 10.875C20.4029 11.2702 20.4615 11.6902 20.4339 12.1089C20.467 12.5321 20.4127 12.9575 20.2742 13.3587C20.1358 13.7599 19.9162 14.1283 19.6292 14.441C19.3422 14.7536 18.9939 15.0038 18.6059 15.176C18.218 15.3482 17.7988 15.4387 17.3744 15.4417ZM17.3744 10.2345C16.5865 10.2345 16.1172 10.9371 16.1172 12.1143C16.1172 13.2914 16.5878 13.9726 17.3744 13.9726C18.1609 13.9726 18.6315 13.2781 18.6315 12.1143C18.6315 10.9504 18.1609 10.2345 17.3744 10.2345ZM29.1899 6.20715C29.2252 6.20715 29.2592 6.2212 29.2842 6.2462C29.3092 6.2712 29.3232 6.30511 29.3232 6.34047V11.357L31.2922 8.90541C31.3048 8.88994 31.3206 8.87748 31.3386 8.86895C31.3566 8.86041 31.3763 8.85602 31.3962 8.85608H33.176C33.1991 8.85609 33.2218 8.86211 33.2419 8.87357C33.262 8.88502 33.2788 8.90151 33.2906 8.92141H33.3199L33.2999 8.94407L33.3093 8.9814C33.3109 9.01545 33.2995 9.04885 33.2773 9.07472L31.1803 11.5477L33.4852 15.1471C33.498 15.1668 33.5053 15.1895 33.5065 15.2129C33.5076 15.2363 33.5026 15.2596 33.4919 15.2804H33.4839L33.4572 15.3151C33.4331 15.3358 33.4024 15.3471 33.3706 15.3471H31.6042C31.5811 15.3471 31.5583 15.3411 31.5382 15.3296C31.5181 15.3182 31.5013 15.3017 31.4895 15.2818L30.0684 12.8635L29.3219 13.7113V15.2191C29.3219 15.2545 29.3078 15.2884 29.2828 15.3134C29.2578 15.3384 29.2239 15.3524 29.1886 15.3524H27.5981C27.5628 15.3524 27.5289 15.3384 27.5039 15.3134C27.4789 15.2884 27.4648 15.2545 27.4648 15.2191V6.34047C27.4648 6.30511 27.4789 6.2712 27.5039 6.2462C27.5289 6.2212 27.5628 6.20715 27.5981 6.20715H29.1899ZM7.2279 6.85239C7.2553 6.8524 7.28203 6.86085 7.30445 6.8766C7.32687 6.89234 7.3439 6.91461 7.35321 6.94038L8.75433 10.7891C8.87832 11.1464 8.9943 11.525 9.10495 11.889L9.15961 12.0703C9.2036 11.929 9.24626 11.789 9.29292 11.6503C9.37957 11.365 9.46756 11.0704 9.55955 10.7905L10.9287 6.94171C10.9378 6.91548 10.955 6.89277 10.9777 6.87676C11.0004 6.86074 11.0275 6.85222 11.0553 6.85239H12.879C12.9144 6.85239 12.9483 6.86643 12.9733 6.89144C12.9983 6.91644 13.0124 6.95034 13.0124 6.9857V15.2191C13.0124 15.2545 12.9983 15.2884 12.9733 15.3134C12.9483 15.3384 12.9144 15.3524 12.879 15.3524H11.3779C11.3426 15.3524 11.3087 15.3384 11.2837 15.3134C11.2587 15.2884 11.2446 15.2545 11.2446 15.2191V11.785C11.2446 11.2824 11.2953 10.6251 11.3526 10.0172L10.9927 11.0611L9.72352 14.5272C9.7142 14.553 9.69718 14.5753 9.67476 14.591C9.65233 14.6067 9.6256 14.6152 9.59821 14.6152H8.65168C8.62444 14.6153 8.59783 14.607 8.57543 14.5915C8.55302 14.5761 8.5359 14.5541 8.52637 14.5286L7.24656 11.0624L6.90395 10.0519C6.96261 10.6518 7.01593 11.2904 7.01593 11.785V15.2191C7.01593 15.2545 7.00189 15.2884 6.97689 15.3134C6.95188 15.3384 6.91798 15.3524 6.88262 15.3524H5.40284C5.36749 15.3524 5.33358 15.3384 5.30858 15.3134C5.28358 15.2884 5.26953 15.2545 5.26953 15.2191V6.9857C5.26953 6.95034 5.28358 6.91644 5.30858 6.89144C5.33358 6.86643 5.36749 6.85239 5.40284 6.85239H7.2279Z"/>
</mask>
<path d="M24.5279 8.69877C25.228 8.69887 25.9039 8.95544 26.4276 9.42C26.4532 9.44179 26.4696 9.47243 26.4736 9.5058C26.4776 9.53917 26.4688 9.57281 26.449 9.59997L25.6704 10.6571C25.6596 10.6719 25.6458 10.6842 25.63 10.6934C25.6142 10.7025 25.5966 10.7084 25.5784 10.7105H25.5598C25.528 10.7105 25.4973 10.6991 25.4731 10.6785C25.2419 10.4456 24.9305 10.3098 24.6026 10.2985C23.7174 10.2985 23.1455 11.0104 23.1455 12.1116C23.1455 13.1781 23.7134 13.9033 24.5586 13.9033C24.9769 13.8812 25.3748 13.7155 25.6851 13.4341C25.7091 13.4142 25.7393 13.4033 25.7704 13.4034H25.7931C25.812 13.4066 25.83 13.4138 25.8459 13.4247C25.8618 13.4355 25.8752 13.4496 25.8851 13.466L26.5303 14.5459C26.5463 14.5725 26.5525 14.6038 26.5478 14.6344C26.5432 14.6651 26.5281 14.6932 26.505 14.7139C25.9152 15.2251 25.1605 15.5058 24.38 15.5044C23.9417 15.5145 23.5062 15.4318 23.1021 15.2618C22.6979 15.0918 22.3343 14.8384 22.035 14.518C21.7357 14.1977 21.5074 13.8177 21.3652 13.403C21.223 12.9883 21.17 12.5482 21.2098 12.1116C21.194 11.646 21.2744 11.1822 21.446 10.7492C21.6176 10.3161 21.8766 9.92307 22.207 9.59464C22.8351 9.00631 23.6674 8.68508 24.5279 8.69877ZM17.3744 15.4417C16.9499 15.4387 16.5307 15.3482 16.1428 15.176C15.7548 15.0038 15.4065 14.7536 15.1195 14.441C14.8325 14.1283 14.6129 13.7599 14.4745 13.3587C14.336 12.9575 14.2817 12.5321 14.3148 12.1089C14.2872 11.6902 14.3458 11.2702 14.487 10.875C14.6282 10.4798 14.8491 10.1178 15.1359 9.81138C15.4227 9.505 15.7694 9.26076 16.1544 9.09378C16.5395 8.92681 16.9547 8.84065 17.3744 8.84065C17.794 8.84065 18.2093 8.92681 18.5943 9.09378C18.9793 9.26076 19.326 9.505 19.6128 9.81138C19.8996 10.1178 20.1205 10.4798 20.2617 10.875C20.4029 11.2702 20.4615 11.6902 20.4339 12.1089C20.467 12.5321 20.4127 12.9575 20.2742 13.3587C20.1358 13.7599 19.9162 14.1283 19.6292 14.441C19.3422 14.7536 18.9939 15.0038 18.6059 15.176C18.218 15.3482 17.7988 15.4387 17.3744 15.4417ZM17.3744 10.2345C16.5865 10.2345 16.1172 10.9371 16.1172 12.1143C16.1172 13.2914 16.5878 13.9726 17.3744 13.9726C18.1609 13.9726 18.6315 13.2781 18.6315 12.1143C18.6315 10.9504 18.1609 10.2345 17.3744 10.2345ZM29.1899 6.20715C29.2252 6.20715 29.2592 6.2212 29.2842 6.2462C29.3092 6.2712 29.3232 6.30511 29.3232 6.34047V11.357L31.2922 8.90541C31.3048 8.88994 31.3206 8.87748 31.3386 8.86895C31.3566 8.86041 31.3763 8.85602 31.3962 8.85608H33.176C33.1991 8.85609 33.2218 8.86211 33.2419 8.87357C33.262 8.88502 33.2788 8.90151 33.2906 8.92141H33.3199L33.2999 8.94407L33.3093 8.9814C33.3109 9.01545 33.2995 9.04885 33.2773 9.07472L31.1803 11.5477L33.4852 15.1471C33.498 15.1668 33.5053 15.1895 33.5065 15.2129C33.5076 15.2363 33.5026 15.2596 33.4919 15.2804H33.4839L33.4572 15.3151C33.4331 15.3358 33.4024 15.3471 33.3706 15.3471H31.6042C31.5811 15.3471 31.5583 15.3411 31.5382 15.3296C31.5181 15.3182 31.5013 15.3017 31.4895 15.2818L30.0684 12.8635L29.3219 13.7113V15.2191C29.3219 15.2545 29.3078 15.2884 29.2828 15.3134C29.2578 15.3384 29.2239 15.3524 29.1886 15.3524H27.5981C27.5628 15.3524 27.5289 15.3384 27.5039 15.3134C27.4789 15.2884 27.4648 15.2545 27.4648 15.2191V6.34047C27.4648 6.30511 27.4789 6.2712 27.5039 6.2462C27.5289 6.2212 27.5628 6.20715 27.5981 6.20715H29.1899ZM7.2279 6.85239C7.2553 6.8524 7.28203 6.86085 7.30445 6.8766C7.32687 6.89234 7.3439 6.91461 7.35321 6.94038L8.75433 10.7891C8.87832 11.1464 8.9943 11.525 9.10495 11.889L9.15961 12.0703C9.2036 11.929 9.24626 11.789 9.29292 11.6503C9.37957 11.365 9.46756 11.0704 9.55955 10.7905L10.9287 6.94171C10.9378 6.91548 10.955 6.89277 10.9777 6.87676C11.0004 6.86074 11.0275 6.85222 11.0553 6.85239H12.879C12.9144 6.85239 12.9483 6.86643 12.9733 6.89144C12.9983 6.91644 13.0124 6.95034 13.0124 6.9857V15.2191C13.0124 15.2545 12.9983 15.2884 12.9733 15.3134C12.9483 15.3384 12.9144 15.3524 12.879 15.3524H11.3779C11.3426 15.3524 11.3087 15.3384 11.2837 15.3134C11.2587 15.2884 11.2446 15.2545 11.2446 15.2191V11.785C11.2446 11.2824 11.2953 10.6251 11.3526 10.0172L10.9927 11.0611L9.72352 14.5272C9.7142 14.553 9.69718 14.5753 9.67476 14.591C9.65233 14.6067 9.6256 14.6152 9.59821 14.6152H8.65168C8.62444 14.6153 8.59783 14.607 8.57543 14.5915C8.55302 14.5761 8.5359 14.5541 8.52637 14.5286L7.24656 11.0624L6.90395 10.0519C6.96261 10.6518 7.01593 11.2904 7.01593 11.785V15.2191C7.01593 15.2545 7.00189 15.2884 6.97689 15.3134C6.95188 15.3384 6.91798 15.3524 6.88262 15.3524H5.40284C5.36749 15.3524 5.33358 15.3384 5.30858 15.3134C5.28358 15.2884 5.26953 15.2545 5.26953 15.2191V6.9857C5.26953 6.95034 5.28358 6.91644 5.30858 6.89144C5.33358 6.86643 5.36749 6.85239 5.40284 6.85239H7.2279Z" fill="#333333" stroke="#333333" stroke-width="2" mask="url(#path-2-inside-1_56_1845)"/>
<path d="M14.4776 25.3295H6.65611C5.96475 25.3295 5.4043 25.8899 5.4043 26.5813C5.4043 27.2726 5.96475 27.8331 6.65611 27.8331H14.4776C15.1689 27.8331 15.7294 27.2726 15.7294 26.5813C15.7294 25.8899 15.1689 25.3295 14.4776 25.3295Z" fill="#333333"/>
<path d="M17.3878 30.7713H6.65611C5.96475 30.7713 5.4043 31.3318 5.4043 32.0231C5.4043 32.7145 5.96475 33.2749 6.65611 33.2749H17.3878C18.0792 33.2749 18.6396 32.7145 18.6396 32.0231C18.6396 31.3318 18.0792 30.7713 17.3878 30.7713Z" fill="#333333"/>
<path d="M22.4764 19.9969H6.65611C5.96475 19.9969 5.4043 20.5574 5.4043 21.2488C5.4043 21.9401 5.96475 22.5006 6.65611 22.5006H22.4764C23.1677 22.5006 23.7282 21.9401 23.7282 21.2488C23.7282 20.5574 23.1677 19.9969 22.4764 19.9969Z" fill="#333333"/>
</svg>
