<svg width="61" height="60" viewBox="0 0 61 60" fill="none" xmlns="http://www.w3.org/2000/svg">
<path d="M53.0806 6.25H7.91935C6.58366 6.25 5.5 7.3431 5.5 8.69218V40.7569C5.5 42.1059 6.58368 43.199 7.91935 43.199H28.0806V48.8657H23.8861C22.5505 48.8657 21.4668 49.9588 21.4668 51.3078C21.4668 52.6569 22.5505 53.75 23.8861 53.75H37.1138C38.4495 53.75 39.5332 52.6569 39.5332 51.3078C39.5332 49.9588 38.4495 48.8657 37.1138 48.8657H32.9194V43.199H53.0806C54.4163 43.199 55.5 42.1059 55.5 40.7569V8.69218C55.5 7.34309 54.4163 6.25 53.0806 6.25ZM50.6613 38.3147H10.3387V11.1344H50.6613V38.3147Z" fill="white"/>
</svg>
