<svg width="16" height="17" viewBox="0 0 16 17" fill="none" xmlns="http://www.w3.org/2000/svg">
<path d="M6.37012 14.4012C6.70297 14.819 7.19176 15.0893 7.72831 15.1525C8.26487 15.2156 8.80494 15.0663 9.22901 14.7376C9.35943 14.6404 9.47679 14.5273 9.57828 14.4012M2.33405 9.69141V9.54542C2.35546 9.1135 2.4939 8.69499 2.73507 8.33307C3.1365 7.89831 3.4113 7.36554 3.53064 6.79065C3.53064 6.34633 3.53064 5.89567 3.56945 5.45135C3.76996 3.31228 5.88501 1.83333 7.9742 1.83333H8.02595C10.1151 1.83333 12.2302 3.31228 12.4372 5.45135C12.476 5.89567 12.4372 6.34633 12.4695 6.79065C12.5905 7.36687 12.865 7.9013 13.2651 8.33942C13.5081 8.69814 13.6467 9.11511 13.6661 9.54542V9.68507C13.6805 10.2654 13.4807 10.8312 13.1034 11.2783C12.6048 11.801 11.9282 12.1262 11.2018 12.1923C9.07149 12.4208 6.92219 12.4208 4.79191 12.1923C4.06626 12.1233 3.39067 11.7986 2.8903 11.2783C2.51883 10.8309 2.32166 10.2684 2.33405 9.69141Z" stroke="#333333" stroke-width="1.5" stroke-linecap="round" stroke-linejoin="round"/>
</svg>
