<svg width="10" height="10" viewBox="0 0 10 10" fill="none" xmlns="http://www.w3.org/2000/svg">
<path d="M2.80862 2.91666L7.19112 2.91666C7.26443 2.91663 7.33646 2.93596 7.39991 2.97267C7.46337 3.00939 7.51602 3.0622 7.55254 3.12577C7.58906 3.18934 7.60816 3.26142 7.60791 3.33474C7.60766 3.40805 7.58807 3.48 7.55112 3.54332L5.35945 7.29957C5.32274 7.36242 5.27021 7.41456 5.20709 7.45079C5.14396 7.48703 5.07245 7.50609 4.99966 7.50609C4.92688 7.50609 4.85536 7.48703 4.79224 7.45079C4.72911 7.41456 4.67658 7.36242 4.63987 7.29957L2.44862 3.54332C2.41167 3.48 2.39208 3.40805 2.39183 3.33474C2.39158 3.26142 2.41068 3.18934 2.4472 3.12577C2.48372 3.0622 2.53637 3.00939 2.59983 2.97267C2.66328 2.93596 2.73531 2.91663 2.80862 2.91666Z" fill="black"/>
</svg>
