<svg width="32" height="32" viewBox="0 0 32 32" fill="none" xmlns="http://www.w3.org/2000/svg">
<g clip-path="url(#clip0_12_3172)">
<path d="M9.59996 23.3935C9.46974 23.4004 9.33974 23.3763 9.22057 23.3234C9.10141 23.2704 8.99644 23.19 8.91425 23.0888C8.79393 22.9719 8.70344 22.8279 8.6504 22.6688C8.59736 22.5097 8.58333 22.3402 8.60949 22.1745L10.819 11.8888C10.8576 11.7012 10.9503 11.529 11.0857 11.3936C11.2211 11.2582 11.3933 11.1654 11.5809 11.1269L22.1714 8.68878C22.3369 8.64445 22.5118 8.6497 22.6743 8.70388C22.8368 8.75806 22.9799 8.85878 23.0857 8.99354C23.1959 9.11547 23.2744 9.26265 23.3143 9.42211C23.3541 9.58156 23.3541 9.74838 23.3142 9.90783L20.8762 20.1935C20.8376 20.3811 20.7449 20.5533 20.6094 20.6887C20.474 20.8242 20.3018 20.9169 20.1142 20.9554L9.75234 23.3935H9.59996ZM12.6476 12.9554L10.8952 21.0316L19.1238 19.1269L21.0285 11.0507L12.6476 12.9554Z" fill="#FF6666"/>
<path d="M17.2951 18.5936C17.1649 18.6004 17.0349 18.5763 16.9157 18.5234C16.7965 18.4704 16.6916 18.39 16.6094 18.2888L13.4856 15.2412C13.3021 15.0475 13.2015 14.7899 13.2052 14.5231C13.2088 14.2564 13.3164 14.0016 13.505 13.813C13.6936 13.6244 13.9484 13.5168 14.2152 13.5132C14.4819 13.5095 14.7395 13.6101 14.9332 13.7936L18.057 16.8412C18.2409 17.0373 18.3432 17.2961 18.3432 17.565C18.3432 17.8339 18.2409 18.0926 18.057 18.2888C17.8454 18.4745 17.5764 18.5821 17.2951 18.5936Z" fill="#FF6666"/>
<path d="M16 32C12.8355 32 9.74207 31.0616 7.11088 29.3035C4.4797 27.5454 2.42894 25.0466 1.21793 22.1229C0.00693249 19.1993 -0.309921 15.9823 0.307443 12.8786C0.924806 9.77487 2.44866 6.92394 4.6863 4.6863C6.92394 2.44866 9.77487 0.924806 12.8786 0.307443C15.9823 -0.309921 19.1993 0.00693249 22.1229 1.21793C25.0466 2.42894 27.5454 4.4797 29.3035 7.11088C31.0616 9.74207 32 12.8355 32 16C32 20.2435 30.3143 24.3131 27.3137 27.3137C24.3131 30.3143 20.2435 32 16 32ZM16 1.98096C13.2273 1.98096 10.5169 2.80316 8.21144 4.3436C5.90602 5.88403 4.10916 8.0735 3.0481 10.6351C1.98703 13.1968 1.7094 16.0156 2.25033 18.735C2.79126 21.4544 4.12644 23.9524 6.08704 25.913C8.04764 27.8736 10.5456 29.2088 13.265 29.7497C15.9845 30.2906 18.8032 30.013 21.3649 28.9519C23.9265 27.8908 26.116 26.094 27.6564 23.7886C29.1969 21.4832 30.0191 18.7727 30.0191 16C30.003 12.2869 28.5209 8.73038 25.8953 6.10476C23.2696 3.47915 19.7132 1.997 16 1.98096Z" fill="#FF6666"/>
</g>
<defs>
<clipPath id="clip0_12_3172">
<rect width="32" height="32" fill="white"/>
</clipPath>
</defs>
</svg>
