<svg width="33" height="32" viewBox="0 0 33 32" fill="none" xmlns="http://www.w3.org/2000/svg">
<g clip-path="url(#clip0_12_3190)">
<path d="M13.4857 26.9714C10.8185 26.9714 8.21117 26.1805 5.99346 24.6987C3.77574 23.2169 2.04725 21.1107 1.02654 18.6465C0.00584312 16.1823 -0.261219 13.4708 0.25913 10.8548C0.77948 8.23882 2.06387 5.83589 3.94988 3.94988C5.83589 2.06387 8.23882 0.77948 10.8548 0.25913C13.4708 -0.261219 16.1823 0.00584312 18.6465 1.02654C21.1107 2.04725 23.2169 3.77574 24.6987 5.99346C26.1805 8.21117 26.9714 10.8185 26.9714 13.4857C26.9745 15.2576 26.6279 17.0126 25.9512 18.6502C25.2746 20.2877 24.2814 21.7756 23.0285 23.0285C21.7756 24.2814 20.2877 25.2746 18.6502 25.9512C17.0126 26.6279 15.2576 26.9745 13.4857 26.9714ZM13.4857 1.98096C11.2103 1.98096 8.98596 2.6557 7.09402 3.91986C5.20207 5.18402 3.72747 6.98082 2.85671 9.08304C1.98594 11.1853 1.75811 13.4985 2.20202 15.7302C2.64593 17.9619 3.74166 20.0118 5.35063 21.6208C6.9596 23.2298 9.00955 24.3255 11.2413 24.7694C13.473 25.2133 15.7862 24.9855 17.8884 24.1147C19.9906 23.244 21.7874 21.7694 23.0516 19.8774C24.3157 17.9855 24.9905 15.7611 24.9905 13.4857C24.9802 10.4376 23.7648 7.51729 21.6095 5.36194C19.4542 3.2066 16.5338 1.9912 13.4857 1.98096Z" fill="#45E4D3"/>
<path d="M31.0095 32C30.8793 32.0069 30.7493 31.9828 30.6302 31.9298C30.511 31.8769 30.406 31.7965 30.3238 31.6953L22.3238 23.6953C22.1399 23.4991 22.0376 23.2403 22.0376 22.9715C22.0376 22.7026 22.1399 22.4438 22.3238 22.2476C22.4165 22.1484 22.5286 22.0693 22.6531 22.0153C22.7776 21.9612 22.9119 21.9333 23.0476 21.9333C23.1834 21.9333 23.3177 21.9612 23.4422 22.0153C23.5667 22.0693 23.6788 22.1484 23.7714 22.2476L31.7715 30.2476C31.9553 30.4438 32.0577 30.7026 32.0577 30.9715C32.0577 31.2403 31.9553 31.4991 31.7715 31.6953C31.5668 31.8921 31.2935 32.0015 31.0095 32Z" fill="#45E4D3"/>
</g>
<defs>
<clipPath id="clip0_12_3190">
<rect width="32.0571" height="32" fill="white"/>
</clipPath>
</defs>
</svg>
