<svg width="32" height="32" viewBox="0 0 32 32" fill="none" xmlns="http://www.w3.org/2000/svg">
<g clip-path="url(#clip0_101_3071)">
<path d="M16.07 22.1714C13.8762 22.1704 11.7725 21.3192 10.2212 19.8048C8.66988 18.2905 7.79791 16.2369 7.79688 14.0952V8.07618C7.79688 5.94435 8.6644 3.89982 10.2086 2.39239C11.7528 0.884954 13.8472 0.0380859 16.031 0.0380859C18.2149 0.0380859 20.3092 0.884954 21.8534 2.39239C23.3976 3.89982 24.2652 5.94435 24.2652 8.07618V14.0952C24.2683 16.2249 23.4084 18.2694 21.8731 19.7825C20.3377 21.2955 18.2516 22.1543 16.07 22.1714ZM16.07 1.98094C14.4358 1.98436 12.8696 2.61961 11.714 3.74766C10.5584 4.87571 9.9077 6.40469 9.90419 7.99999V14.019C9.90419 14.8095 10.0637 15.5922 10.3735 16.3224C10.6834 17.0527 11.1376 17.7162 11.7101 18.2751C12.2827 18.8341 12.9624 19.2774 13.7105 19.5799C14.4586 19.8824 15.2603 20.0381 16.07 20.0381C16.8798 20.0381 17.6815 19.8824 18.4296 19.5799C19.1777 19.2774 19.8574 18.8341 20.43 18.2751C21.0025 17.7162 21.4567 17.0527 21.7666 16.3224C22.0764 15.5922 22.2359 14.8095 22.2359 14.019V8.07618C22.236 6.47274 21.5889 4.93383 20.4348 3.79291C19.2807 2.652 17.7125 2.00099 16.07 1.98094Z" fill="white"/>
<path d="M16.3902 26.8189H16C10.6927 26.8189 5.77559 23.8475 3.98047 19.4285C3.98047 19.5047 4.05852 19.5047 4.05852 19.5808L5.69754 18.438C5.74515 18.4743 5.78386 18.5204 5.81087 18.5732C5.83787 18.6259 5.85248 18.6838 5.85364 18.7427C7.33657 22.3999 11.4732 24.9142 16 24.9142C18.1242 24.9673 20.2164 24.4013 22.0097 23.2885C23.8029 22.1758 25.2159 20.5667 26.0683 18.6666L27.9414 19.5047C26.9583 21.6919 25.3404 23.5502 23.2876 24.85C21.2348 26.1499 18.837 26.8344 16.3902 26.8189Z" fill="white"/>
<path d="M4.91698 19.9619C5.47734 19.9619 5.93161 19.5185 5.93161 18.9714C5.93161 18.4244 5.47734 17.981 4.91698 17.981C4.35661 17.981 3.90234 18.4244 3.90234 18.9714C3.90234 19.5185 4.35661 19.9619 4.91698 19.9619Z" fill="white"/>
<path d="M27.083 19.9619C27.6434 19.9619 28.0976 19.5185 28.0976 18.9714C28.0976 18.4244 27.6434 17.981 27.083 17.981C26.5226 17.981 26.0684 18.4244 26.0684 18.9714C26.0684 19.5185 26.5226 19.9619 27.083 19.9619Z" fill="white"/>
<path d="M14.9854 25.7524H17.0146V31.2382H14.9854V25.7524Z" fill="white"/>
<path d="M19.5123 32H12.644C12.3749 32 12.1169 31.8956 11.9266 31.7099C11.7363 31.5241 11.6294 31.2722 11.6294 31.0095C11.6294 30.7468 11.7363 30.4949 11.9266 30.3091C12.1169 30.1234 12.3749 30.019 12.644 30.019H19.5123C19.7814 30.019 20.0395 30.1234 20.2298 30.3091C20.4201 30.4949 20.527 30.7468 20.527 31.0095C20.527 31.2722 20.4201 31.5241 20.2298 31.7099C20.0395 31.8956 19.7814 32 19.5123 32Z" fill="white"/>
</g>
<defs>
<clipPath id="clip0_101_3071">
<path d="M0 0H32V22C32 27.5228 27.5228 32 22 32H10C4.47715 32 0 27.5228 0 22V0Z" fill="white"/>
</clipPath>
</defs>
</svg>
