<svg width="9" height="15" viewBox="0 0 9 15" fill="none" xmlns="http://www.w3.org/2000/svg">
<path d="M0.280712 1.69472L6.06271 7.47672L0.280712 13.2587C0.0985537 13.4473 -0.00224062 13.6999 3.78026e-05 13.9621C0.00231622 14.2243 0.107485 14.4751 0.292893 14.6605C0.478301 14.8459 0.729114 14.9511 0.991311 14.9534C1.25351 14.9557 1.50611 14.8549 1.69471 14.6727L8.18071 8.18672C8.27411 8.09371 8.34804 7.98302 8.39818 7.86111C8.44831 7.7392 8.47365 7.60853 8.47271 7.47672C8.47338 7.34495 8.44791 7.21435 8.39779 7.09249C8.34767 6.97062 8.27389 6.8599 8.18071 6.76672L1.69471 0.280719C1.50611 0.0985603 1.25351 -0.00223351 0.991311 4.48227e-05C0.729114 0.00232315 0.478301 0.107491 0.292893 0.292899C0.107485 0.478308 0.00231622 0.72912 3.78026e-05 0.991317C-0.00224062 1.25351 0.0985537 1.50612 0.280712 1.69472Z" fill="white"/>
</svg>
