<svg width="9" height="16" viewBox="0 0 9 16" fill="none" xmlns="http://www.w3.org/2000/svg">
<path d="M0.280712 2.60371L6.06271 8.38572L0.280712 14.1677C0.0985537 14.3563 -0.00224062 14.6089 3.78026e-05 14.8711C0.00231622 15.1333 0.107485 15.3841 0.292893 15.5695C0.478301 15.7549 0.729114 15.8601 0.991311 15.8624C1.25351 15.8647 1.50611 15.7639 1.69471 15.5817L8.18071 9.09571C8.27411 9.0027 8.34804 8.89201 8.39818 8.77011C8.44831 8.6482 8.47365 8.51752 8.47271 8.38572C8.47338 8.25394 8.44791 8.12335 8.39779 8.00148C8.34767 7.87962 8.27389 7.76889 8.18071 7.67572L1.69471 1.18972C1.50611 1.00756 1.25351 0.906763 0.991311 0.909041C0.729114 0.91132 0.478301 1.01649 0.292893 1.2019C0.107485 1.3873 0.00231622 1.63812 3.78026e-05 1.90031C-0.00224062 2.16251 0.0985537 2.41511 0.280712 2.60371Z" fill="#333333"/>
</svg>
