<svg width="46" height="46" viewBox="0 0 46 46" fill="none" xmlns="http://www.w3.org/2000/svg">
<path d="M17.6094 15.4609L25.8259 23.6774L17.6094 31.894C17.3505 32.162 17.2073 32.5209 17.2105 32.8935C17.2137 33.2661 17.3632 33.6226 17.6267 33.886C17.8901 34.1495 18.2466 34.299 18.6192 34.3022C18.9917 34.3054 19.3507 34.1622 19.6187 33.9033L28.8357 24.6864C28.9684 24.5542 29.0735 24.3969 29.1447 24.2237C29.2159 24.0505 29.252 23.8648 29.2506 23.6774C29.2516 23.4902 29.2154 23.3046 29.1442 23.1314C29.0729 22.9583 28.9681 22.8009 28.8357 22.6685L19.6187 13.4516C19.3507 13.1927 18.9917 13.0495 18.6192 13.0527C18.2466 13.0559 17.8901 13.2054 17.6267 13.4689C17.3632 13.7323 17.2137 14.0888 17.2105 14.4613C17.2073 14.8339 17.3505 15.1929 17.6094 15.4609Z" fill="white"/>
</svg>
