<svg width="14" height="15" viewBox="0 0 14 15" fill="none" xmlns="http://www.w3.org/2000/svg">
<g clip-path="url(#clip0_247_343)">
<path d="M5.9893 12.5C4.80473 12.5 3.64676 12.1481 2.66183 11.4888C1.67689 10.8295 0.909227 9.89245 0.455911 8.7961C0.00259506 7.69974 -0.116013 6.49334 0.115085 5.32946C0.346184 4.16557 0.916609 3.09647 1.75423 2.25736C2.59185 1.41825 3.65904 0.846802 4.82085 0.615291C5.98266 0.38378 7.18691 0.5026 8.28131 0.956725C9.37571 1.41085 10.3111 2.17988 10.9692 3.16658C11.6273 4.15327 11.9786 5.31331 11.9786 6.5C11.98 7.28832 11.826 8.06915 11.5255 8.79773C11.225 9.52631 10.7839 10.1883 10.2275 10.7457C9.67102 11.3031 9.01022 11.7451 8.28294 12.0461C7.55566 12.3471 6.77622 12.5014 5.9893 12.5ZM5.9893 1.38136C4.97873 1.38136 3.99086 1.68156 3.15061 2.244C2.31035 2.80645 1.65545 3.60587 1.26873 4.54118C0.881998 5.47649 0.780813 6.50568 0.977965 7.49859C1.17512 8.49151 1.66175 9.40357 2.37633 10.1194C3.09091 10.8353 4.00134 11.3228 4.99248 11.5203C5.98363 11.7178 7.01099 11.6164 7.94463 11.229C8.87827 10.8416 9.67627 10.1855 10.2377 9.34376C10.7991 8.502 11.0988 7.51237 11.0988 6.5C11.0943 5.14385 10.5545 3.84455 9.59725 2.88561C8.64001 1.92666 7.34303 1.38592 5.9893 1.38136Z" fill="#999999"/>
<path d="M13.488 14.4995C13.4274 14.5026 13.367 14.4915 13.3116 14.4669C13.2562 14.4424 13.2074 14.4051 13.1692 14.3582L9.44996 10.65C9.36447 10.5591 9.31689 10.4392 9.31689 10.3145C9.31689 10.1899 9.36447 10.07 9.44996 9.97904C9.49304 9.93306 9.54514 9.89639 9.60303 9.87133C9.66092 9.84626 9.72335 9.83333 9.78646 9.83333C9.84957 9.83333 9.91201 9.84626 9.9699 9.87133C10.0278 9.89639 10.0799 9.93306 10.123 9.97904L13.8422 13.6872C13.9277 13.7781 13.9752 13.8981 13.9752 14.0227C13.9752 14.1473 13.9277 14.2673 13.8422 14.3582C13.747 14.4495 13.62 14.5001 13.488 14.4995Z" fill="#999999"/>
</g>
<defs>
<clipPath id="clip0_247_343">
<rect width="14" height="14" fill="white" transform="translate(0 0.5)"/>
</clipPath>
</defs>
</svg>
