<svg width="16" height="17" viewBox="0 0 16 17" fill="none" xmlns="http://www.w3.org/2000/svg">
<path d="M6.95244 1.16667C5.22276 1.16667 3.80947 2.57996 3.80947 4.30964C3.80947 6.03932 5.22276 7.45261 6.95244 7.45261C8.68212 7.45261 10.0954 6.03932 10.0954 4.30964C10.0954 2.57996 8.68212 1.16667 6.95244 1.16667ZM6.95244 2.21433C8.11586 2.21433 9.04776 3.14674 9.04776 4.30964C9.04776 5.47306 8.11586 6.40495 6.95244 6.40495C5.78902 6.40495 4.85713 5.47306 4.85713 4.30964C4.85713 3.14674 5.78902 2.21433 6.95244 2.21433ZM5.38096 8.50027C2.77806 8.50027 0.666504 10.6118 0.666504 13.2147V14.2624C0.666504 14.4013 0.721693 14.5345 0.81993 14.6328C0.918166 14.731 1.0514 14.7862 1.19033 14.7862H6.87282C7.01175 14.7862 7.14499 14.731 7.24322 14.6328C7.34146 14.5345 7.39665 14.4013 7.39665 14.2624C7.39665 14.1234 7.34146 13.9902 7.24322 13.892C7.14499 13.7937 7.01175 13.7385 6.87282 13.7385H1.71416V13.2147C1.71416 11.1744 3.34065 9.54792 5.38096 9.54792H7.48465C7.62358 9.54792 7.75682 9.49273 7.85505 9.3945C7.95329 9.29626 8.00848 9.16302 8.00848 9.0241C8.00848 8.88517 7.95329 8.75193 7.85505 8.65369C7.75682 8.55546 7.62358 8.50027 7.48465 8.50027H5.38096ZM11.6601 8.50027C11.5911 8.50102 11.523 8.51536 11.4596 8.54248C11.3962 8.56959 11.3388 8.60894 11.2906 8.65828C11.2424 8.70762 11.2045 8.76597 11.1789 8.83C11.1533 8.89403 11.1406 8.96248 11.1415 9.03143V9.60031C10.8133 9.66871 10.5013 9.7998 10.2227 9.98637L9.8204 9.58407C9.69678 9.4573 9.55692 9.40911 9.42439 9.41644C9.02785 9.4374 8.69889 9.95441 9.07971 10.3248L9.48358 10.7292C9.29797 11.0078 9.16778 11.3195 9.10014 11.6474H8.53126C7.82304 11.6375 7.82304 12.7056 8.53126 12.6951H9.10223C9.17033 13.0256 9.30391 13.3331 9.48463 13.606L9.07761 14.013C8.5695 14.507 9.32486 15.2618 9.81831 14.7537L10.2248 14.3478C10.5029 14.5335 10.8141 14.6641 11.1415 14.7323V15.3022C11.131 16.0104 12.1991 16.0104 12.1892 15.3022V14.7338C12.5161 14.6659 12.827 14.5357 13.1048 14.3504L13.5134 14.759C13.5614 14.8102 13.6192 14.8512 13.6834 14.8796C13.7476 14.908 13.8168 14.9233 13.887 14.9244C13.9572 14.9255 14.0269 14.9126 14.0919 14.8863C14.157 14.8599 14.2161 14.8208 14.2658 14.7712C14.3154 14.7216 14.3546 14.6625 14.381 14.5974C14.4073 14.5324 14.4204 14.4627 14.4193 14.3925C14.4182 14.3223 14.403 14.2531 14.3746 14.1889C14.3462 14.1247 14.3053 14.0668 14.2541 14.0188L13.8471 13.6113C14.0327 13.3337 14.1632 13.023 14.2316 12.6961H14.8025C14.9415 12.6961 15.0747 12.6409 15.1729 12.5427C15.2712 12.4445 15.3264 12.3112 15.3264 12.1723C15.3264 12.0334 15.2712 11.9001 15.1729 11.8019C15.0747 11.7037 14.9415 11.6485 14.8025 11.6485H14.2337C14.1661 11.3184 14.0351 11.0046 13.8481 10.7244L14.252 10.3206C14.3023 10.2719 14.3423 10.2136 14.3696 10.1492C14.397 10.0848 14.411 10.0155 14.411 9.94551C14.411 9.87552 14.397 9.80625 14.3696 9.74181C14.3423 9.67738 14.3023 9.6191 14.252 9.57045C14.1526 9.47355 14.0189 9.41988 13.8801 9.42116C13.7417 9.42354 13.6098 9.4806 13.5134 9.57988L13.1085 9.9848C12.8301 9.79887 12.5185 9.66832 12.1907 9.60031V9.03143C12.1919 8.96154 12.179 8.89214 12.1528 8.82732C12.1266 8.76251 12.0877 8.7036 12.0384 8.65408C11.9891 8.60456 11.9303 8.56543 11.8656 8.53901C11.8009 8.51259 11.7315 8.49942 11.6617 8.50027H11.6601ZM11.6669 10.5956C12.5406 10.5956 13.2384 11.2928 13.2384 12.1671C13.2384 13.0408 12.5406 13.7385 11.6669 13.7385C10.7926 13.7385 10.0954 13.0408 10.0954 12.1671C10.0954 11.2928 10.7926 10.5956 11.6669 10.5956Z" fill="#333333"/>
</svg>
