<svg width="16" height="17" viewBox="0 0 16 17" fill="none" xmlns="http://www.w3.org/2000/svg">
<path d="M13.4393 7.64644L12.1715 6.37868L12.1716 6.37867L13.4393 7.64644ZM14.2929 8.5H14.2929L13.4393 9.35355L14.2929 8.5Z" fill="#333333" stroke="#333333"/>
<path d="M12.2341 12.7427C11.1009 13.8759 9.59431 14.5 7.99175 14.5C6.38903 14.5 4.88219 13.8759 3.74887 12.7427C2.61553 11.6094 2 10.1027 2 8.5C2 6.89747 2.61553 5.39078 3.74891 4.25747C4.88225 3.12416 6.38906 2.5 7.99175 2.5C9.59422 2.5 11.1008 3.12416 12.2341 4.25744C12.3127 4.3362 12.3891 4.41708 12.4633 4.5H13.7361C12.4713 2.68663 10.3702 1.5 7.99175 1.5C4.12566 1.5 1 4.63431 1 8.5C1 12.3661 4.12566 15.5 7.99175 15.5C10.3702 15.5 12.4714 14.3134 13.7362 12.5H12.4634C12.3892 12.583 12.3127 12.6639 12.2341 12.7427Z" fill="#333333"/>
</svg>
