<svg width="4" height="8" viewBox="0 0 4 8" fill="none" xmlns="http://www.w3.org/2000/svg">
<mask id="path-1-inside-1_247_208" fill="white">
<path d="M0.372811 1.67894L2.90244 4.20856L0.372811 6.73819C0.293117 6.8207 0.24902 6.93121 0.250017 7.04592C0.251013 7.16063 0.297025 7.27037 0.378141 7.35148C0.459257 7.4326 0.568987 7.47861 0.683698 7.47961C0.79841 7.4806 0.908923 7.4365 0.991436 7.35681L3.82906 4.51918C3.86993 4.47849 3.90227 4.43007 3.9242 4.37673C3.94614 4.3234 3.95722 4.26623 3.95681 4.20856C3.9571 4.15091 3.94596 4.09378 3.92403 4.04046C3.90211 3.98714 3.86983 3.9387 3.82906 3.89794L0.991436 1.06031C0.908923 0.980616 0.79841 0.936519 0.683698 0.937515C0.568987 0.938512 0.459257 0.984523 0.378141 1.06564C0.297025 1.14676 0.251013 1.25649 0.250017 1.3712C0.24902 1.48591 0.293117 1.59642 0.372811 1.67894Z"/>
</mask>
<path d="M0.372811 1.67894L2.90244 4.20856L0.372811 6.73819C0.293117 6.8207 0.24902 6.93121 0.250017 7.04592C0.251013 7.16063 0.297025 7.27037 0.378141 7.35148C0.459257 7.4326 0.568987 7.47861 0.683698 7.47961C0.79841 7.4806 0.908923 7.4365 0.991436 7.35681L3.82906 4.51918C3.86993 4.47849 3.90227 4.43007 3.9242 4.37673C3.94614 4.3234 3.95722 4.26623 3.95681 4.20856C3.9571 4.15091 3.94596 4.09378 3.92403 4.04046C3.90211 3.98714 3.86983 3.9387 3.82906 3.89794L0.991436 1.06031C0.908923 0.980616 0.79841 0.936519 0.683698 0.937515C0.568987 0.938512 0.459257 0.984523 0.378141 1.06564C0.297025 1.14676 0.251013 1.25649 0.250017 1.3712C0.24902 1.48591 0.293117 1.59642 0.372811 1.67894Z" fill="#333333"/>
<path d="M0.372811 1.67894L-0.346477 2.37365L-0.34044 2.3799L-0.334295 2.38604L0.372811 1.67894ZM2.90244 4.20856L3.60954 4.91567L4.31665 4.20856L3.60954 3.50145L2.90244 4.20856ZM0.372811 6.73819L-0.334295 6.03108L-0.34044 6.03722L-0.346477 6.04347L0.372811 6.73819ZM0.991436 7.35681L1.68615 8.0761L1.6924 8.07006L1.69854 8.06392L0.991436 7.35681ZM3.82906 4.51918L3.12344 3.81059L3.12196 3.81208L3.82906 4.51918ZM3.95681 4.20856L2.95675 4.20353L2.95684 4.2157L3.95681 4.20856ZM3.82906 3.89794L4.53617 3.19083L4.53617 3.19083L3.82906 3.89794ZM0.991436 1.06031L1.69854 0.353203L1.6924 0.347059L1.68615 0.341022L0.991436 1.06031ZM-0.334295 2.38604L2.19533 4.91567L3.60954 3.50145L1.07992 0.971828L-0.334295 2.38604ZM2.19533 3.50145L-0.334295 6.03108L1.07992 7.44529L3.60954 4.91567L2.19533 3.50145ZM-0.346477 6.04347C-0.608329 6.31459 -0.753221 6.67771 -0.749946 7.05461L1.24998 7.03723C1.25126 7.18472 1.19456 7.32681 1.0921 7.4329L-0.346477 6.04347ZM-0.749946 7.05461C-0.74667 7.43152 -0.595491 7.79206 -0.328966 8.05859L1.08525 6.64437C1.18954 6.74867 1.2487 6.88975 1.24998 7.03723L-0.749946 7.05461ZM-0.328966 8.05859C-0.0624413 8.32511 0.298102 8.47629 0.675009 8.47957L0.692388 6.47964C0.839873 6.48092 0.980955 6.54008 1.08525 6.64437L-0.328966 8.05859ZM0.675009 8.47957C1.05192 8.48284 1.41503 8.33795 1.68615 8.0761L0.296724 6.63752C0.402813 6.53506 0.544902 6.47836 0.692388 6.47964L0.675009 8.47957ZM1.69854 8.06392L4.53617 5.22629L3.12196 3.81208L0.28433 6.6497L1.69854 8.06392ZM4.53468 5.22778C4.6697 5.09333 4.77657 4.93331 4.84904 4.75709L2.99936 3.99638C3.02797 3.92682 3.07015 3.86366 3.12344 3.81059L4.53468 5.22778ZM4.84904 4.75709C4.92152 4.58086 4.95815 4.39196 4.95679 4.20143L2.95684 4.2157C2.9563 4.14049 2.97076 4.06593 2.99936 3.99638L4.84904 4.75709ZM4.9568 4.21359C4.95775 4.02377 4.92107 3.83565 4.84887 3.6601L2.99919 4.42082C2.97085 4.3519 2.95645 4.27805 2.95682 4.20353L4.9568 4.21359ZM4.84887 3.6601C4.77668 3.48455 4.67039 3.32506 4.53617 3.19083L3.12195 4.60504C3.06926 4.55235 3.02754 4.48973 2.99919 4.42082L4.84887 3.6601ZM4.53617 3.19083L1.69854 0.353203L0.28433 1.76742L3.12196 4.60504L4.53617 3.19083ZM1.68615 0.341022C1.41503 0.0791702 1.05192 -0.065722 0.675009 -0.0624471L0.692388 1.93748C0.544902 1.93876 0.402813 1.88206 0.296724 1.7796L1.68615 0.341022ZM0.675009 -0.0624471C0.298104 -0.0591717 -0.0624396 0.0920057 -0.328966 0.358532L1.08525 1.77275C0.980953 1.87704 0.83987 1.9362 0.692388 1.93748L0.675009 -0.0624471ZM-0.328966 0.358532C-0.595491 0.625057 -0.74667 0.9856 -0.749946 1.36251L1.24998 1.37989C1.2487 1.52737 1.18954 1.66845 1.08525 1.77275L-0.328966 0.358532ZM-0.749946 1.36251C-0.753221 1.73941 -0.608329 2.10253 -0.346477 2.37365L1.0921 0.984223C1.19456 1.09031 1.25126 1.2324 1.24998 1.37989L-0.749946 1.36251Z" fill="#999999" mask="url(#path-1-inside-1_247_208)"/>
</svg>
