<svg width="24" height="24" viewBox="0 0 24 24" fill="none" xmlns="http://www.w3.org/2000/svg">
<path d="M9.21053 8.02105L13.547 12.3576L9.21053 16.6941C9.07392 16.8355 8.99832 17.025 9.00003 17.2216C9.00174 17.4183 9.08061 17.6064 9.21967 17.7454C9.35873 17.8845 9.54684 17.9634 9.74348 17.9651C9.94013 17.9668 10.1296 17.8912 10.271 17.7546L15.1355 12.8901C15.2056 12.8203 15.261 12.7373 15.2986 12.6458C15.3362 12.5544 15.3552 12.4564 15.3545 12.3576C15.355 12.2587 15.3359 12.1608 15.2983 12.0694C15.2608 11.978 15.2054 11.8949 15.1355 11.8251L10.271 6.96055C10.1296 6.82394 9.94013 6.74834 9.74348 6.75005C9.54684 6.75176 9.35873 6.83063 9.21967 6.96969C9.08061 7.10875 9.00174 7.29685 9.00003 7.4935C8.99832 7.69015 9.07392 7.8796 9.21053 8.02105Z" fill="#808080"/>
</svg>
