<svg width="4" height="8" viewBox="0 0 4 8" fill="none" xmlns="http://www.w3.org/2000/svg">
<mask id="path-1-inside-1_182_2224" fill="white">
<path d="M0.372811 1.58799L2.90244 4.11761L0.372811 6.64724C0.293117 6.72975 0.24902 6.84026 0.250017 6.95497C0.251013 7.06968 0.297025 7.17942 0.378141 7.26053C0.459257 7.34165 0.568987 7.38766 0.683698 7.38866C0.79841 7.38965 0.908923 7.34555 0.991436 7.26586L3.82906 4.42823C3.86993 4.38754 3.90227 4.33912 3.9242 4.28578C3.94614 4.23245 3.95722 4.17528 3.95681 4.11761C3.9571 4.05996 3.94596 4.00283 3.92403 3.94951C3.90211 3.89619 3.86983 3.84775 3.82906 3.80699L0.991436 0.96936C0.908923 0.889666 0.79841 0.845569 0.683698 0.846565C0.568987 0.847562 0.459257 0.893573 0.378141 0.974689C0.297025 1.05581 0.251013 1.16554 0.250017 1.28025C0.24902 1.39496 0.293117 1.50547 0.372811 1.58799Z"/>
</mask>
<path d="M0.372811 1.58799L2.90244 4.11761L0.372811 6.64724C0.293117 6.72975 0.24902 6.84026 0.250017 6.95497C0.251013 7.06968 0.297025 7.17942 0.378141 7.26053C0.459257 7.34165 0.568987 7.38766 0.683698 7.38866C0.79841 7.38965 0.908923 7.34555 0.991436 7.26586L3.82906 4.42823C3.86993 4.38754 3.90227 4.33912 3.9242 4.28578C3.94614 4.23245 3.95722 4.17528 3.95681 4.11761C3.9571 4.05996 3.94596 4.00283 3.92403 3.94951C3.90211 3.89619 3.86983 3.84775 3.82906 3.80699L0.991436 0.96936C0.908923 0.889666 0.79841 0.845569 0.683698 0.846565C0.568987 0.847562 0.459257 0.893573 0.378141 0.974689C0.297025 1.05581 0.251013 1.16554 0.250017 1.28025C0.24902 1.39496 0.293117 1.50547 0.372811 1.58799Z" fill="#12D3BF"/>
<path d="M0.372811 1.58799L-0.346477 2.2827L-0.34044 2.28895L-0.334295 2.29509L0.372811 1.58799ZM2.90244 4.11761L3.60954 4.82472L4.31665 4.11761L3.60954 3.4105L2.90244 4.11761ZM0.372811 6.64724L-0.334295 5.94013L-0.34044 5.94627L-0.346477 5.95252L0.372811 6.64724ZM0.991436 7.26586L1.68615 7.98515L1.6924 7.97911L1.69854 7.97297L0.991436 7.26586ZM3.82906 4.42823L3.12344 3.71964L3.12196 3.72113L3.82906 4.42823ZM3.95681 4.11761L2.95675 4.11258L2.95684 4.12475L3.95681 4.11761ZM3.82906 3.80699L4.53617 3.09988L4.53617 3.09988L3.82906 3.80699ZM0.991436 0.96936L1.69854 0.262253L1.6924 0.256109L1.68615 0.250072L0.991436 0.96936ZM-0.334295 2.29509L2.19533 4.82472L3.60954 3.4105L1.07992 0.880878L-0.334295 2.29509ZM2.19533 3.4105L-0.334295 5.94013L1.07992 7.35434L3.60954 4.82472L2.19533 3.4105ZM-0.346477 5.95252C-0.608329 6.22364 -0.753221 6.58676 -0.749946 6.96366L1.24998 6.94628C1.25126 7.09377 1.19456 7.23586 1.0921 7.34195L-0.346477 5.95252ZM-0.749946 6.96366C-0.74667 7.34057 -0.595491 7.70111 -0.328966 7.96764L1.08525 6.55342C1.18954 6.65772 1.2487 6.7988 1.24998 6.94628L-0.749946 6.96366ZM-0.328966 7.96764C-0.0624413 8.23416 0.298102 8.38534 0.675009 8.38862L0.692388 6.38869C0.839873 6.38997 0.980955 6.44913 1.08525 6.55342L-0.328966 7.96764ZM0.675009 8.38862C1.05192 8.39189 1.41503 8.247 1.68615 7.98515L0.296724 6.54657C0.402813 6.44411 0.544902 6.38741 0.692388 6.38869L0.675009 8.38862ZM1.69854 7.97297L4.53617 5.13534L3.12196 3.72113L0.28433 6.55875L1.69854 7.97297ZM4.53468 5.13683C4.6697 5.00238 4.77657 4.84236 4.84904 4.66614L2.99936 3.90543C3.02797 3.83587 3.07015 3.77271 3.12344 3.71964L4.53468 5.13683ZM4.84904 4.66614C4.92152 4.48991 4.95815 4.30101 4.95679 4.11048L2.95684 4.12475C2.9563 4.04954 2.97076 3.97498 2.99936 3.90543L4.84904 4.66614ZM4.9568 4.12264C4.95775 3.93282 4.92107 3.7447 4.84887 3.56915L2.99919 4.32987C2.97085 4.26095 2.95645 4.1871 2.95682 4.11258L4.9568 4.12264ZM4.84887 3.56915C4.77668 3.3936 4.67039 3.23411 4.53617 3.09988L3.12195 4.51409C3.06926 4.4614 3.02754 4.39878 2.99919 4.32987L4.84887 3.56915ZM4.53617 3.09988L1.69854 0.262253L0.28433 1.67647L3.12196 4.51409L4.53617 3.09988ZM1.68615 0.250072C1.41503 -0.0117798 1.05192 -0.156672 0.675009 -0.153397L0.692388 1.84653C0.544902 1.84781 0.402813 1.79111 0.296724 1.68865L1.68615 0.250072ZM0.675009 -0.153397C0.298104 -0.150122 -0.0624396 0.00105572 -0.328966 0.267582L1.08525 1.6818C0.980953 1.78609 0.83987 1.84525 0.692388 1.84653L0.675009 -0.153397ZM-0.328966 0.267582C-0.595491 0.534107 -0.74667 0.89465 -0.749946 1.27156L1.24998 1.28894C1.2487 1.43642 1.18954 1.5775 1.08525 1.6818L-0.328966 0.267582ZM-0.749946 1.27156C-0.753221 1.64846 -0.608329 2.01158 -0.346477 2.2827L1.0921 0.893273C1.19456 0.999362 1.25126 1.14145 1.24998 1.28894L-0.749946 1.27156Z" fill="#12D3BF" mask="url(#path-1-inside-1_182_2224)"/>
</svg>
