<svg width="12" height="12" viewBox="0 0 12 12" fill="none" xmlns="http://www.w3.org/2000/svg">
<path d="M8.0415 5.70833H6.2915V2.79166C6.2915 2.63059 6.16091 2.5 5.99984 2.5C5.83877 2.5 5.70817 2.63059 5.70817 2.79166V6C5.70817 5.99989 5.70817 6.0001 5.70817 6C5.70828 6.161 5.83884 6.29177 5.99984 6.29166H8.0415C8.20258 6.29166 8.33317 6.16107 8.33317 6C8.33317 5.83893 8.20258 5.70833 8.0415 5.70833ZM5.99984 0.166664C2.77819 0.166664 0.166504 2.77835 0.166504 6C0.166504 9.22165 2.77819 11.8333 5.99984 11.8333C9.21992 11.8296 11.8294 9.22008 11.8332 6C11.8332 2.77835 9.22149 0.166664 5.99984 0.166664ZM5.99984 11.25C3.10033 11.25 0.749837 8.8995 0.749837 6C0.749837 3.10049 3.10033 0.749997 5.99984 0.749997C8.89803 0.753166 11.2467 3.10181 11.2498 6C11.2498 8.8995 8.89934 11.25 5.99984 11.25Z" fill="#12D3BF"/>
</svg>
