<svg width="14" height="14" viewBox="0 0 14 14" fill="none" xmlns="http://www.w3.org/2000/svg">
<mask id="path-1-inside-1_468_2573" fill="white">
<path d="M4.37507 11.6314V0.875H3.50007V11.6314L1.77195 9.90325L1.15332 10.5219L3.62826 12.9968C3.7103 13.0788 3.82156 13.1249 3.93757 13.1249C4.05358 13.1249 4.16484 13.0788 4.24688 12.9968L6.72182 10.5219L6.1032 9.90325L4.37507 11.6314ZM12.8468 3.47813L10.3719 1.00319C10.2898 0.921169 10.1786 0.875093 10.0626 0.875093C9.94656 0.875093 9.8353 0.921169 9.75326 1.00319L7.27832 3.47813L7.89695 4.09675L9.62507 2.36863V13.125H10.5001V2.36863L12.2282 4.09675L12.8468 3.47813Z"/>
</mask>
<path d="M4.37507 11.6314V0.875H3.50007V11.6314L1.77195 9.90325L1.15332 10.5219L3.62826 12.9968C3.7103 13.0788 3.82156 13.1249 3.93757 13.1249C4.05358 13.1249 4.16484 13.0788 4.24688 12.9968L6.72182 10.5219L6.1032 9.90325L4.37507 11.6314ZM12.8468 3.47813L10.3719 1.00319C10.2898 0.921169 10.1786 0.875093 10.0626 0.875093C9.94656 0.875093 9.8353 0.921169 9.75326 1.00319L7.27832 3.47813L7.89695 4.09675L9.62507 2.36863V13.125H10.5001V2.36863L12.2282 4.09675L12.8468 3.47813Z" fill="black"/>
<path d="M4.37507 11.6314H3.37507V14.0456L5.08218 12.3385L4.37507 11.6314ZM4.37507 0.875H5.37507V-0.125H4.37507V0.875ZM3.50007 0.875V-0.125H2.50007V0.875H3.50007ZM3.50007 11.6314L2.79296 12.3385L4.50007 14.0456V11.6314H3.50007ZM1.77195 9.90325L2.47905 9.19614L1.77195 8.48904L1.06484 9.19614L1.77195 9.90325ZM1.15332 10.5219L0.446214 9.81477L-0.260893 10.5219L0.446214 11.229L1.15332 10.5219ZM3.62826 12.9968L2.92115 13.7039L2.92126 13.704L3.62826 12.9968ZM4.24688 12.9968L4.95388 13.704L4.95399 13.7039L4.24688 12.9968ZM6.72182 10.5219L7.42893 11.229L8.13604 10.5219L7.42893 9.81477L6.72182 10.5219ZM6.1032 9.90325L6.8103 9.19614L6.1032 8.48904L5.39609 9.19614L6.1032 9.90325ZM12.8468 3.47813L13.5539 4.18523L14.261 3.47812L13.5539 2.77102L12.8468 3.47813ZM10.3719 1.00319L11.079 0.296081L11.0789 0.295974L10.3719 1.00319ZM9.75326 1.00319L9.04626 0.295974L9.04615 0.296081L9.75326 1.00319ZM7.27832 3.47813L6.57121 2.77102L5.86411 3.47812L6.57121 4.18523L7.27832 3.47813ZM7.89695 4.09675L7.18984 4.80386L7.89695 5.51096L8.60405 4.80386L7.89695 4.09675ZM9.62507 2.36863H10.6251V-0.045588L8.91797 1.66152L9.62507 2.36863ZM9.62507 13.125H8.62507V14.125H9.62507V13.125ZM10.5001 13.125V14.125H11.5001V13.125H10.5001ZM10.5001 2.36863L11.2072 1.66152L9.50007 -0.045588V2.36863H10.5001ZM12.2282 4.09675L11.5211 4.80386L12.2282 5.51096L12.9353 4.80386L12.2282 4.09675ZM5.37507 11.6314V0.875H3.37507V11.6314H5.37507ZM4.37507 -0.125H3.50007V1.875H4.37507V-0.125ZM2.50007 0.875V11.6314H4.50007V0.875H2.50007ZM4.20718 10.9243L2.47905 9.19614L1.06484 10.6104L2.79296 12.3385L4.20718 10.9243ZM1.06484 9.19614L0.446214 9.81477L1.86043 11.229L2.47905 10.6104L1.06484 9.19614ZM0.446214 11.229L2.92115 13.7039L4.33537 12.2897L1.86043 9.81477L0.446214 11.229ZM2.92126 13.704C3.19083 13.9735 3.5564 14.1249 3.93757 14.1249V12.1249C4.08672 12.1249 4.22977 12.1841 4.33526 12.2896L2.92126 13.704ZM3.93757 14.1249C4.31874 14.1249 4.68431 13.9735 4.95388 13.704L3.53988 12.2896C3.64537 12.1841 3.78842 12.1249 3.93757 12.1249V14.1249ZM4.95399 13.7039L7.42893 11.229L6.01471 9.81477L3.53978 12.2897L4.95399 13.7039ZM7.42893 9.81477L6.8103 9.19614L5.39609 10.6104L6.01472 11.229L7.42893 9.81477ZM5.39609 9.19614L3.66796 10.9243L5.08218 12.3385L6.8103 10.6104L5.39609 9.19614ZM13.5539 2.77102L11.079 0.296081L9.66478 1.71029L12.1397 4.18523L13.5539 2.77102ZM11.0789 0.295974C10.8093 0.0264835 10.4437 -0.124907 10.0626 -0.124907V1.87509C9.91342 1.87509 9.77037 1.81585 9.66489 1.7104L11.0789 0.295974ZM10.0626 -0.124907C9.6814 -0.124907 9.31583 0.0264835 9.04626 0.295974L10.4603 1.7104C10.3548 1.81585 10.2117 1.87509 10.0626 1.87509V-0.124907ZM9.04615 0.296081L6.57121 2.77102L7.98543 4.18523L10.4604 1.71029L9.04615 0.296081ZM6.57121 4.18523L7.18984 4.80386L8.60405 3.38964L7.98543 2.77102L6.57121 4.18523ZM8.60405 4.80386L10.3322 3.07573L8.91797 1.66152L7.18984 3.38964L8.60405 4.80386ZM8.62507 2.36863V13.125H10.6251V2.36863H8.62507ZM9.62507 14.125H10.5001V12.125H9.62507V14.125ZM11.5001 13.125V2.36863H9.50007V13.125H11.5001ZM9.79297 3.07573L11.5211 4.80386L12.9353 3.38964L11.2072 1.66152L9.79297 3.07573ZM12.9353 4.80386L13.5539 4.18523L12.1397 2.77102L11.5211 3.38964L12.9353 4.80386Z" fill="#12D3BF" mask="url(#path-1-inside-1_468_2573)"/>
</svg>
