<svg width="32" height="32" viewBox="0 0 32 32" fill="none" xmlns="http://www.w3.org/2000/svg">
<g clip-path="url(#clip0_12_3177)">
<path d="M16.07 22.1714C13.8762 22.1704 11.7725 21.3192 10.2212 19.8048C8.66988 18.2905 7.79791 16.2369 7.79688 14.0952V8.07618C7.79688 5.94435 8.6644 3.89982 10.2086 2.39239C11.7528 0.884954 13.8472 0.0380859 16.031 0.0380859C18.2149 0.0380859 20.3092 0.884954 21.8534 2.39239C23.3976 3.89982 24.2652 5.94435 24.2652 8.07618V14.0952C24.2683 16.2249 23.4084 18.2694 21.8731 19.7825C20.3377 21.2955 18.2516 22.1543 16.07 22.1714ZM16.07 1.98094C14.4358 1.98436 12.8696 2.61961 11.714 3.74766C10.5584 4.87571 9.9077 6.40469 9.90419 7.99999V14.019C9.90419 14.8095 10.0637 15.5922 10.3735 16.3224C10.6834 17.0527 11.1376 17.7162 11.7101 18.2751C12.2827 18.8341 12.9624 19.2774 13.7105 19.5799C14.4586 19.8824 15.2603 20.0381 16.07 20.0381C16.8798 20.0381 17.6815 19.8824 18.4296 19.5799C19.1777 19.2774 19.8574 18.8341 20.43 18.2751C21.0025 17.7162 21.4567 17.0527 21.7666 16.3224C22.0764 15.5922 22.2359 14.8095 22.2359 14.019V8.07618C22.236 6.47274 21.5889 4.93383 20.4348 3.79291C19.2807 2.652 17.7125 2.00099 16.07 1.98094Z" fill="#FFAD66"/>
<path d="M16.3902 26.8191H16C10.6927 26.8191 5.77559 23.8476 3.98047 19.4286C3.98047 19.5048 4.05852 19.5048 4.05852 19.581L5.69754 18.4381C5.74515 18.4744 5.78386 18.5205 5.81087 18.5733C5.83787 18.626 5.85248 18.6839 5.85364 18.7429C7.33657 22.4 11.4732 24.9143 16 24.9143C18.1242 24.9674 20.2164 24.4014 22.0097 23.2887C23.8029 22.1759 25.2159 20.5668 26.0683 18.6667L27.9414 19.5048C26.9583 21.692 25.3404 23.5503 23.2876 24.8502C21.2348 26.15 18.837 26.8345 16.3902 26.8191Z" fill="#FFAD66"/>
<path d="M4.91698 19.9619C5.47734 19.9619 5.93161 19.5185 5.93161 18.9714C5.93161 18.4244 5.47734 17.981 4.91698 17.981C4.35661 17.981 3.90234 18.4244 3.90234 18.9714C3.90234 19.5185 4.35661 19.9619 4.91698 19.9619Z" fill="#FFAD66"/>
<path d="M27.083 19.9619C27.6434 19.9619 28.0976 19.5185 28.0976 18.9714C28.0976 18.4244 27.6434 17.981 27.083 17.981C26.5226 17.981 26.0684 18.4244 26.0684 18.9714C26.0684 19.5185 26.5226 19.9619 27.083 19.9619Z" fill="#FFAD66"/>
<path d="M14.9854 25.7524H17.0146V31.2381H14.9854V25.7524Z" fill="#FFAD66"/>
<path d="M19.5123 32H12.644C12.3749 32 12.1169 31.8956 11.9266 31.7099C11.7363 31.5241 11.6294 31.2722 11.6294 31.0095C11.6294 30.7468 11.7363 30.4949 11.9266 30.3091C12.1169 30.1234 12.3749 30.019 12.644 30.019H19.5123C19.7814 30.019 20.0395 30.1234 20.2298 30.3091C20.4201 30.4949 20.527 30.7468 20.527 31.0095C20.527 31.2722 20.4201 31.5241 20.2298 31.7099C20.0395 31.8956 19.7814 32 19.5123 32Z" fill="#FFAD66"/>
<path d="M16.7802 13.4857L16.468 12.5714H13.5022L13.19 13.4857C13.1119 13.7142 12.9558 14.019 12.8778 14.2476C12.8193 14.3142 12.7477 14.3688 12.6673 14.408C12.5868 14.4473 12.4992 14.4705 12.4095 14.4762C12.3182 14.4785 12.2277 14.4588 12.1461 14.419C12.0644 14.3791 11.994 14.3203 11.9412 14.2476C11.8729 14.1905 11.817 14.1206 11.7768 14.0421C11.7366 13.9636 11.7129 13.878 11.707 13.7904V13.4857C11.7232 13.3238 11.7766 13.1675 11.8631 13.0285L13.6583 8.38092L13.8924 7.92377L14.1265 7.46663C14.2046 7.31425 14.3607 7.23806 14.4387 7.16187C14.6119 7.09384 14.7993 7.0677 14.9851 7.08568C15.1707 7.07341 15.3568 7.09937 15.5314 7.16187C15.6708 7.2218 15.7822 7.33053 15.8436 7.46663C15.9217 7.61901 15.9997 7.6952 16.0778 7.84758C16.1699 8.01913 16.2482 8.19745 16.3119 8.38092L18.2631 13.0285C18.4114 13.2567 18.4925 13.5203 18.4973 13.7904C18.4997 13.8795 18.4795 13.9678 18.4387 14.0476C18.3979 14.1273 18.3376 14.196 18.2631 14.2476C18.1715 14.3577 18.0434 14.4331 17.901 14.4609C17.7585 14.4887 17.6106 14.4672 17.4826 14.4C17.4046 14.3238 17.3265 14.3238 17.2485 14.2476C17.1662 14.1636 17.1118 14.0574 17.0924 13.9428L16.7802 13.4857ZM13.8143 11.5047H15.9997L14.907 8.45711L13.8143 11.5047ZM19.0436 13.5619V7.84758C19.0495 7.60127 19.1311 7.36236 19.2778 7.16187C19.3482 7.08967 19.433 7.0322 19.5269 6.99293C19.6208 6.95366 19.7219 6.93341 19.8241 6.93341C19.9263 6.93341 20.0274 6.95366 20.1213 6.99293C20.2152 7.0322 20.3 7.08967 20.3704 7.16187C20.5279 7.35687 20.6107 7.59938 20.6046 7.84758V13.4857C20.5987 13.732 20.5171 13.9709 20.3704 14.1714C20.3 14.2436 20.2152 14.3011 20.1213 14.3403C20.0274 14.3796 19.9263 14.3998 19.8241 14.3998C19.7219 14.3998 19.6208 14.3796 19.5269 14.3403C19.433 14.3011 19.3482 14.2436 19.2778 14.1714C19.1722 14.1123 19.091 14.0191 19.0482 13.9078C19.0055 13.7965 19.0039 13.6742 19.0436 13.5619Z" fill="#FFAD66"/>
</g>
<defs>
<clipPath id="clip0_12_3177">
<rect width="32" height="32" fill="white"/>
</clipPath>
</defs>
</svg>
