<svg width="107" height="100" viewBox="0 0 107 100" fill="none" xmlns="http://www.w3.org/2000/svg">
<path d="M45.3654 99.4921C70.1919 99.4921 90.3178 95.7607 90.3178 91.1579C90.3178 86.555 70.1919 82.8237 45.3654 82.8237C20.5389 82.8237 0.413086 86.555 0.413086 91.1579C0.413086 95.7607 20.5389 99.4921 45.3654 99.4921Z" fill="#F5F5F7" fill-opacity="0.8"/>
<path fill-rule="evenodd" clip-rule="evenodd" d="M81.3268 66.6737L65.4635 47.3019C64.7023 46.3901 63.5897 45.8381 62.4181 45.8381H28.3112C27.1402 45.8381 26.0276 46.3901 25.2665 47.3019L9.40381 66.6737V76.7941H81.3275V66.6737H81.3268Z" fill="#AEB8C2"/>
<path fill-rule="evenodd" clip-rule="evenodd" d="M22.8441 20.8355H67.8866C68.59 20.8355 69.2646 21.1128 69.762 21.6063C70.2593 22.0998 70.5388 22.7692 70.5388 23.4671V84.8776C70.5388 85.5756 70.2593 86.2449 69.762 86.7384C69.2646 87.2319 68.59 87.5092 67.8866 87.5092H22.8441C22.1407 87.5092 21.4661 87.2319 20.9687 86.7384C20.4713 86.2449 20.1919 85.5756 20.1919 84.8776V23.4671C20.1919 22.7692 20.4713 22.0998 20.9687 21.6063C21.4661 21.1128 22.1407 20.8355 22.8441 20.8355Z" fill="#F5F5F7"/>
<path fill-rule="evenodd" clip-rule="evenodd" d="M28.7105 27.3835H62.0198C62.3715 27.3835 62.7088 27.5222 62.9575 27.7689C63.2062 28.0157 63.3459 28.3504 63.3459 28.6993V45.1184C63.3459 45.4674 63.2062 45.8021 62.9575 46.0488C62.7088 46.2956 62.3715 46.4342 62.0198 46.4342H28.7105C28.3588 46.4342 28.0215 46.2956 27.7728 46.0488C27.5241 45.8021 27.3844 45.4674 27.3844 45.1184V28.6993C27.3844 28.3504 27.5241 28.0157 27.7728 27.7689C28.0215 27.5222 28.3588 27.3835 28.7105 27.3835ZM28.8842 53.577H61.8461C62.2439 53.577 62.6253 53.7338 62.9066 54.0128C63.1879 54.2919 63.3459 54.6704 63.3459 55.0651C63.3459 55.4598 63.1879 55.8383 62.9066 56.1174C62.6253 56.3965 62.2439 56.5533 61.8461 56.5533H28.8842C28.4864 56.5533 28.1049 56.3965 27.8237 56.1174C27.5424 55.8383 27.3844 55.4598 27.3844 55.0651C27.3844 54.6704 27.5424 54.2919 27.8237 54.0128C28.1049 53.7338 28.4864 53.577 28.8842 53.577ZM28.8842 61.3158H61.8461C62.2439 61.3158 62.6255 61.4726 62.9068 61.7518C63.1882 62.0309 63.3462 62.4095 63.3462 62.8043C63.3462 63.199 63.1882 63.5776 62.9068 63.8568C62.6255 64.1359 62.2439 64.2928 61.8461 64.2928H28.8842C28.4863 64.2928 28.1048 64.1359 27.8234 63.8568C27.5421 63.5776 27.3841 63.199 27.3841 62.8043C27.3841 62.4095 27.5421 62.0309 27.8234 61.7518C28.1048 61.4726 28.4863 61.3158 28.8842 61.3158ZM81.1804 89.9355C80.6666 91.9559 78.8618 93.4618 76.7148 93.4618H14.0155C11.8685 93.4618 10.0637 91.9553 9.55052 89.9355C9.45264 89.5505 9.4032 89.1549 9.40332 88.7579V66.6743H26.8533C28.7808 66.6743 30.3343 68.2849 30.3343 70.2401V70.2664C30.3343 72.221 31.9057 73.7993 33.8332 73.7993H56.8971C58.8246 73.7993 60.396 72.2066 60.396 70.2513V70.2434C60.396 68.2881 61.9495 66.6737 63.877 66.6737H81.327V88.7585C81.327 89.1645 81.2759 89.5585 81.1804 89.9355Z" fill="#DCE0E6"/>
<path fill-rule="evenodd" clip-rule="evenodd" d="M83.3737 21.9026L78.8451 23.6461C78.7288 23.6909 78.602 23.7023 78.4794 23.6789C78.3569 23.6555 78.2435 23.5982 78.1522 23.5137C78.061 23.4292 77.9957 23.3208 77.9638 23.2011C77.9319 23.0813 77.9347 22.9551 77.9719 22.8368L79.2562 18.7533C77.5396 16.8164 76.5317 14.4546 76.5317 11.9059C76.5317 5.33026 83.2404 0 91.5165 0C99.7906 0 106.5 5.33026 106.5 11.9059C106.5 18.4816 99.7913 23.8118 91.5159 23.8118C88.5136 23.8118 85.7182 23.1105 83.3737 21.9026Z" fill="#DCE0E6"/>
<path d="M97.4193 14.0559C98.4626 14.0559 99.3083 13.2268 99.3083 12.204C99.3083 11.1811 98.4626 10.352 97.4193 10.352C96.376 10.352 95.5303 11.1811 95.5303 12.204C95.5303 13.2268 96.376 14.0559 97.4193 14.0559Z" fill="white"/>
<path fill-rule="evenodd" clip-rule="evenodd" d="M87.5026 13.8243H83.7246L85.6461 10.5836L87.5026 13.8243ZM89.8637 10.5836H93.169V13.8243H89.8637V10.5836Z" fill="white"/>
</svg>
