<svg width="16" height="17" viewBox="0 0 16 17" fill="none" xmlns="http://www.w3.org/2000/svg">
<mask id="path-1-inside-1_285_1341" fill="white">
<path d="M4.16667 15.6667H13.1667C13.35 15.6667 13.5 15.5167 13.5 15.3333V12.6667V1.66666C13.5 1.48333 13.35 1.33333 13.1667 1.33333H4.16667C3.24667 1.33333 2.5 2.07999 2.5 2.99999V14C2.5 14.92 3.24667 15.6667 4.16667 15.6667ZM4.5 1.99999H12.8333V12.3333H4.5V1.99999ZM3.16667 2.99999C3.16667 2.56666 3.44667 2.19999 3.83333 2.05999V12.3667C3.58667 12.4167 3.36 12.5267 3.16667 12.6733V2.99999ZM4.16667 13H12.8333V13.6667H9.5C9.31667 13.6667 9.16667 13.8167 9.16667 14C9.16667 14.1833 9.31667 14.3333 9.5 14.3333H12.8333V15H4.16667C3.61667 15 3.16667 14.55 3.16667 14C3.16667 13.45 3.61667 13 4.16667 13Z"/>
</mask>
<path d="M4.16667 15.6667H13.1667C13.35 15.6667 13.5 15.5167 13.5 15.3333V12.6667V1.66666C13.5 1.48333 13.35 1.33333 13.1667 1.33333H4.16667C3.24667 1.33333 2.5 2.07999 2.5 2.99999V14C2.5 14.92 3.24667 15.6667 4.16667 15.6667ZM4.5 1.99999H12.8333V12.3333H4.5V1.99999ZM3.16667 2.99999C3.16667 2.56666 3.44667 2.19999 3.83333 2.05999V12.3667C3.58667 12.4167 3.36 12.5267 3.16667 12.6733V2.99999ZM4.16667 13H12.8333V13.6667H9.5C9.31667 13.6667 9.16667 13.8167 9.16667 14C9.16667 14.1833 9.31667 14.3333 9.5 14.3333H12.8333V15H4.16667C3.61667 15 3.16667 14.55 3.16667 14C3.16667 13.45 3.61667 13 4.16667 13Z" fill="#333333"/>
<path d="M4.5 1.99999V0.999995H3.5V1.99999H4.5ZM12.8333 1.99999H13.8333V0.999995H12.8333V1.99999ZM12.8333 12.3333V13.3333H13.8333V12.3333H12.8333ZM4.5 12.3333H3.5V13.3333H4.5V12.3333ZM3.83333 2.05999H4.83333V0.634397L3.49289 1.11973L3.83333 2.05999ZM3.83333 12.3667L4.032 13.3467L4.83333 13.1843V12.3667H3.83333ZM3.16667 12.6733H2.16667V14.6871L3.77105 13.47L3.16667 12.6733ZM12.8333 13H13.8333V12H12.8333V13ZM12.8333 13.6667V14.6667H13.8333V13.6667H12.8333ZM12.8333 14.3333H13.8333V13.3333H12.8333V14.3333ZM12.8333 15V16H13.8333V15H12.8333ZM4.16667 16.6667H13.1667V14.6667H4.16667V16.6667ZM13.1667 16.6667C13.9023 16.6667 14.5 16.0689 14.5 15.3333H12.5C12.5 14.9644 12.7977 14.6667 13.1667 14.6667V16.6667ZM14.5 15.3333V12.6667H12.5V15.3333H14.5ZM14.5 12.6667V1.66666H12.5V12.6667H14.5ZM14.5 1.66666C14.5 0.931044 13.9023 0.333328 13.1667 0.333328V2.33333C12.7977 2.33333 12.5 2.03561 12.5 1.66666H14.5ZM13.1667 0.333328H4.16667V2.33333H13.1667V0.333328ZM4.16667 0.333328C2.69438 0.333328 1.5 1.52771 1.5 2.99999H3.5C3.5 2.63228 3.79895 2.33333 4.16667 2.33333V0.333328ZM1.5 2.99999V14H3.5V2.99999H1.5ZM1.5 14C1.5 15.4723 2.69438 16.6667 4.16667 16.6667V14.6667C3.79895 14.6667 3.5 14.3677 3.5 14H1.5ZM4.5 2.99999H12.8333V0.999995H4.5V2.99999ZM11.8333 1.99999V12.3333H13.8333V1.99999H11.8333ZM12.8333 11.3333H4.5V13.3333H12.8333V11.3333ZM5.5 12.3333V1.99999H3.5V12.3333H5.5ZM4.16667 2.99999C4.16667 2.99977 4.16668 3.00028 4.16651 3.0013C4.16635 3.00231 4.16609 3.00338 4.16575 3.0044C4.16506 3.00648 4.16445 3.00718 4.16481 3.00669C4.16525 3.00608 4.1664 3.00473 4.16835 3.00326C4.17024 3.00183 4.17214 3.00085 4.17377 3.00026L3.49289 1.11973C2.734 1.3945 2.16667 2.12105 2.16667 2.99999H4.16667ZM2.83333 2.05999V12.3667H4.83333V2.05999H2.83333ZM3.63467 11.3866C3.22513 11.4696 2.86202 11.6493 2.56228 11.8766L3.77105 13.47C3.85798 13.4041 3.94821 13.3637 4.032 13.3467L3.63467 11.3866ZM4.16667 12.6733V2.99999H2.16667V12.6733H4.16667ZM4.16667 14H12.8333V12H4.16667V14ZM11.8333 13V13.6667H13.8333V13H11.8333ZM12.8333 12.6667H9.5V14.6667H12.8333V12.6667ZM9.5 12.6667C8.76438 12.6667 8.16667 13.2644 8.16667 14H10.1667C10.1667 14.3689 9.86895 14.6667 9.5 14.6667V12.6667ZM8.16667 14C8.16667 14.7356 8.76438 15.3333 9.5 15.3333V13.3333C9.86895 13.3333 10.1667 13.631 10.1667 14H8.16667ZM9.5 15.3333H12.8333V13.3333H9.5V15.3333ZM11.8333 14.3333V15H13.8333V14.3333H11.8333ZM12.8333 14H4.16667V16H12.8333V14ZM4.16667 14H2.16667C2.16667 15.1023 3.06438 16 4.16667 16V14ZM4.16667 14V12C3.06438 12 2.16667 12.8977 2.16667 14H4.16667Z" fill="#12D3BF" mask="url(#path-1-inside-1_285_1341)"/>
</svg>
