<svg width="20" height="18" viewBox="0 0 20 18" fill="none" xmlns="http://www.w3.org/2000/svg">
<path d="M17.5419 3.49454C17.93 3.29398 18.8595 2.69815 19.2976 1.41926C19.2976 1.41926 18.2418 2.18315 16.8048 2.27315L16.7787 2.28759C16.4022 1.87531 15.9438 1.54617 15.4329 1.32122C14.922 1.09628 14.3697 0.980469 13.8116 0.981205C11.5884 0.981205 9.78638 2.78454 9.78638 5.00898C9.78638 5.34648 9.8283 5.67426 9.90686 5.98759L9.88743 5.95843C9.88743 5.95843 5.57602 6.20565 1.51142 1.75648C1.51142 1.75648 -0.285598 4.81232 2.79124 7.14926C2.11746 7.26148 0.927591 6.65482 0.927591 6.65482C0.927591 6.65482 0.994775 9.86759 4.18349 10.6543C3.66712 10.7893 2.70129 10.8337 2.38703 10.6993C2.38703 10.6993 2.85842 13.1481 6.11488 13.5754C5.28397 14.0473 3.73459 15.4851 0.231049 15.2154C0.231049 15.2154 2.74682 17.2823 7.41774 16.9906C12.0887 16.699 15.4798 13.5526 16.8495 10.2273C18.2193 6.90204 17.8381 5.0087 17.8381 5.0087C17.8381 5.0087 18.9827 4.40759 19.7695 2.96982C19.4061 3.0787 18.0583 3.40815 17.5566 3.53009C17.5515 3.51831 17.5466 3.50646 17.5419 3.49454Z" fill="#A2A2A3"/>
</svg>
