<svg width="14" height="14" viewBox="0 0 14 14" fill="none" xmlns="http://www.w3.org/2000/svg">
<path d="M3.89011 2.66316H3V2H4.87912V8.25263L10.4176 2H12L3.89011 11V2.66316Z" fill="#FFC411"/>
<path d="M9.30185 7.63636V12H8.37926V7.63636H9.30185ZM10.0609 12V7.63636H11.7825C12.1135 7.63636 12.3954 7.69957 12.6284 7.82599C12.8613 7.95099 13.0389 8.125 13.161 8.34801C13.2846 8.5696 13.3464 8.82528 13.3464 9.11506C13.3464 9.40483 13.2839 9.66051 13.1589 9.8821C13.0339 10.1037 12.8528 10.2763 12.6156 10.3999C12.3798 10.5234 12.0943 10.5852 11.7591 10.5852H10.6618V9.84588H11.6099C11.7875 9.84588 11.9338 9.81534 12.0488 9.75426C12.1653 9.69176 12.252 9.60582 12.3088 9.49645C12.367 9.38565 12.3961 9.25852 12.3961 9.11506C12.3961 8.97017 12.367 8.84375 12.3088 8.7358C12.252 8.62642 12.1653 8.5419 12.0488 8.48224C11.9324 8.42116 11.7846 8.39062 11.6056 8.39062H10.9835V12H10.0609Z" fill="#FFC411"/>
</svg>
