<svg width="20" height="20" viewBox="0 0 20 20" fill="none" xmlns="http://www.w3.org/2000/svg">
<path d="M2.48352 2.10526H1V1H4.13187V11.4211L13.3626 1H16L2.48352 16V2.10526Z" fill="#686767"/>
<path d="M11.1697 9.72727V17H9.6321V9.72727H11.1697ZM12.4348 17V9.72727H15.3042C15.8558 9.72727 16.3257 9.83262 16.714 10.0433C17.1022 10.2517 17.3981 10.5417 17.6017 10.9134C17.8077 11.2827 17.9107 11.7088 17.9107 12.1918C17.9107 12.6747 17.8065 13.1009 17.5982 13.4702C17.3899 13.8395 17.088 14.1271 16.6926 14.3331C16.2997 14.5391 15.8238 14.642 15.2651 14.642H13.4363V13.4098H15.0165C15.3124 13.4098 15.5563 13.3589 15.748 13.2571C15.9422 13.1529 16.0866 13.0097 16.1813 12.8274C16.2783 12.6428 16.3269 12.4309 16.3269 12.1918C16.3269 11.9503 16.2783 11.7396 16.1813 11.5597C16.0866 11.3774 15.9422 11.2365 15.748 11.1371C15.5539 11.0353 15.3077 10.9844 15.0094 10.9844H13.9725V17H12.4348Z" fill="#686767"/>
</svg>
