<svg width="39" height="25" viewBox="0 0 39 25" fill="none" xmlns="http://www.w3.org/2000/svg">
<g clip-path="url(#clip0_56_1652)">
<path d="M0.000938023 7.23638e-06H36.1849C36.462 -0.0400431 36.7446 -0.0149167 37.0102 0.0733896C37.2759 0.161696 37.5173 0.310747 37.7152 0.508699C37.9132 0.706651 38.0622 0.948045 38.1506 1.2137C38.2389 1.47935 38.264 1.76194 38.2239 2.03901V21.965C38.2633 22.2418 38.2377 22.5239 38.149 22.789C38.0604 23.0542 37.9113 23.295 37.7134 23.4925C37.5155 23.69 37.2744 23.8386 37.0091 23.9267C36.7438 24.0148 36.4616 24.0399 36.1849 24H2.03994C1.76325 24.0399 1.48108 24.0148 1.21577 23.9267C0.950469 23.8386 0.70933 23.69 0.511466 23.4925C0.313602 23.295 0.164452 23.0542 0.0758378 22.789C-0.0127769 22.5239 -0.0384209 22.2418 0.000938023 21.965V2.03901C-0.0391123 1.76194 -0.0139859 1.47935 0.0743203 1.2137C0.162627 0.948045 0.311678 0.706651 0.50963 0.508699C0.707582 0.310747 0.948976 0.161696 1.21463 0.0733896C1.48028 -0.0149167 1.76287 -0.0400431 2.03994 7.23638e-06H0.000938023Z" fill="#0E4595"/>
<path d="M14.1763 17.034L15.8762 7.057H18.5953L16.8953 17.034H14.1763ZM26.7192 7.272C25.9381 6.98932 25.113 6.84745 24.2823 6.853C21.5953 6.853 19.7023 8.206 19.6823 10.145C19.6673 11.579 21.0333 12.378 22.0653 12.855C23.1243 13.344 23.4792 13.655 23.4743 14.093C23.4673 14.762 22.6292 15.067 21.8472 15.067C20.9649 15.0929 20.0885 14.9135 19.2873 14.543L18.9373 14.384L18.5553 16.617C19.5248 16.9747 20.5508 17.1549 21.5842 17.149C24.4432 17.149 26.2983 15.811 26.3193 13.74C26.3293 12.605 25.6053 11.74 24.0363 11.029C23.0853 10.568 22.5033 10.259 22.5103 9.792C22.5103 9.377 23.0033 8.934 24.0673 8.934C24.7648 8.91851 25.4578 9.04861 26.1023 9.316L26.3463 9.431L26.7153 7.269M33.7153 7.054H31.6152C31.32 7.01597 31.0204 7.0764 30.7629 7.22592C30.5055 7.37543 30.3046 7.60569 30.1912 7.881L26.1523 17.024H29.0072C29.0072 17.024 29.4742 15.795 29.5802 15.524H33.0632C33.1442 15.873 33.3943 17.019 33.3943 17.019H35.9172L33.7172 7.049L33.7153 7.054ZM30.3813 13.496C30.6063 12.921 31.4643 10.707 31.4643 10.707C31.4482 10.734 31.6873 10.129 31.8253 9.755L32.0092 10.615L32.6392 13.496H30.3813ZM11.8683 7.054L9.20625 13.854L8.92225 12.471C8.23288 10.6551 6.88965 9.16242 5.15625 8.286L7.59025 17.011H10.4673L14.7482 7.054H11.8683Z" fill="white"/>
<path d="M6.72369 7.057H2.33969L2.30469 7.265C5.71569 8.091 7.97369 10.086 8.91069 12.484L7.95769 7.899C7.88818 7.6336 7.72514 7.40224 7.49858 7.24752C7.27201 7.09281 6.99618 7.02515 6.72369 7.057Z" fill="#F2AE14"/>
</g>
<defs>
<clipPath id="clip0_56_1652">
<rect width="38.223" height="24.004" fill="white"/>
</clipPath>
</defs>
</svg>
