<svg width="32" height="32" viewBox="0 0 32 32" fill="none" xmlns="http://www.w3.org/2000/svg">
<g clip-path="url(#clip0_12_3186)">
<path d="M0.990558 31.7524C0.860331 31.7592 0.730333 31.7351 0.611167 31.6822C0.492 31.6292 0.387039 31.5488 0.304844 31.4476C0.200465 31.3355 0.119698 31.2035 0.0673427 31.0595C0.0149879 30.9155 -0.00788564 30.7625 8.18416e-05 30.6095L0.990558 22.3047C1.01235 22.0706 1.12108 21.8531 1.29532 21.6952L22.781 0.285691C22.8708 0.195113 22.9776 0.123214 23.0953 0.0741472C23.213 0.02508 23.3392 -0.000183105 23.4667 -0.000183105C23.5943 -0.000183105 23.7205 0.02508 23.8382 0.0741472C23.9559 0.123214 24.0627 0.195113 24.1525 0.285691L31.4667 7.4476C31.6432 7.63498 31.7506 7.87679 31.7715 8.13331C31.7783 8.26354 31.7543 8.39353 31.7013 8.5127C31.6484 8.63187 31.568 8.73683 31.4667 8.81902L10.1334 30.5333C9.9557 30.6794 9.74737 30.7835 9.52389 30.8381L1.14294 31.8285C1.06675 31.7524 1.06675 31.7524 0.990558 31.7524ZM2.89532 22.9143L2.13342 29.619L8.99056 28.8571L29.4096 8.28569L23.4667 2.49522L2.89532 22.9143Z" fill="#FFD666"/>
<path d="M17.2656 8.01293L18.666 6.61255L25.6702 13.616L24.2691 15.0164L17.2656 8.01293Z" fill="#FFD666"/>
</g>
<defs>
<clipPath id="clip0_12_3186">
<rect width="32" height="32" fill="white"/>
</clipPath>
</defs>
</svg>
