<svg width="37" height="37" viewBox="0 0 37 37" fill="none" xmlns="http://www.w3.org/2000/svg">
<path d="M34.3217 16.3166H1.68857C0.755999 16.3166 0 17.0722 0 18.0043C0 18.9364 0.755999 19.692 1.68857 19.692H34.3217C35.2543 19.692 36.0103 18.9364 36.0103 18.0043C36.0103 17.0722 35.2543 16.3166 34.3217 16.3166Z" fill="white"/>
<path d="M19.6938 34.3217L19.6938 1.68857C19.6938 0.755999 18.9382 0 18.0061 0C17.074 0 16.3184 0.755999 16.3184 1.68857L16.3184 34.3217C16.3184 35.2543 17.074 36.0103 18.0061 36.0103C18.9382 36.0103 19.6938 35.2543 19.6938 34.3217Z" fill="white"/>
</svg>
